<svg width="5000" height="3500" viewBox="0 0 5000 3500" fill="none" xmlns="http://www.w3.org/2000/svg">
<rect width="5000" height="3500" fill="#F1E6FF"/>
<path d="M4807.29 3138.49V3499.1H4230.42L4342.81 2945.34C4339.21 2967.21 4411.16 3008.2 4509.61 3049.3C4544.95 3064.05 4584.35 3078.7 4626.43 3092.58C4694.31 3115.1 4756.84 3130.4 4807.29 3138.49C4807.29 3138.49 4807.17 3138.49 4807.29 3138.49Z" fill="#A574D2"/>
<path d="M4807.29 3030.06V3126.58C4756.84 3118.49 4694.43 3103.29 4626.31 3080.78C4465.79 3027.76 4342.23 2962.29 4349.21 2932.88C4349.32 2932.44 4349.44 2932.01 4349.56 2931.68C4360.37 2902.93 4502.52 2922.83 4665.25 2976.5C4717.56 2993.77 4764.75 3011.58 4804.38 3028.75C4805.31 3029.18 4806.24 3029.62 4807.29 3030.06Z" fill="#FBC580"/>
<path d="M4728.13 2194.5C4671.88 2194.5 4626.31 2237.35 4626.31 2290.15V2552.27C4626.31 2605.07 4580.75 2647.92 4524.61 2647.92H4116.85C4173.11 2647.92 4218.56 2605.07 4218.56 2552.27V2290.15C4218.56 2237.24 4264.12 2194.5 4320.26 2194.5H4728.13Z" fill="white" stroke="#FBC580" stroke-width="5" stroke-miterlimit="10"/>
<path d="M4549.83 2330.16H4290.16V2556.75H4549.83V2330.16Z" fill="white" stroke="#FBC580" stroke-width="5" stroke-miterlimit="10"/>
<path d="M4549.71 2362.51H4290.16" stroke="#FBC580" stroke-width="5" stroke-miterlimit="10"/>
<path d="M4549.71 2394.87H4290.16" stroke="#FBC580" stroke-width="5" stroke-miterlimit="10"/>
<path d="M4549.71 2427.33H4290.16" stroke="#FBC580" stroke-width="5" stroke-miterlimit="10"/>
<path d="M4549.71 2459.69H4290.16" stroke="#FBC580" stroke-width="5" stroke-miterlimit="10"/>
<path d="M4549.71 2492.15H4290.16" stroke="#FBC580" stroke-width="5" stroke-miterlimit="10"/>
<path d="M4549.71 2524.51H4290.16" stroke="#FBC580" stroke-width="5" stroke-miterlimit="10"/>
<path d="M4626.31 2290.15C4626.31 2237.57 4671.41 2194.94 4727.09 2194.5C4782.88 2194.94 4827.86 2237.57 4827.86 2290.15H4626.31Z" fill="#66B0F0" stroke="#FBC580" stroke-width="5" stroke-miterlimit="10"/>
<path d="M4525.07 2650.32C4524.96 2650.32 4524.72 2650.32 4524.61 2650.32H4118.36C4118.13 2650.32 4117.9 2650.32 4117.67 2650.32C4075.94 2649.77 4040.25 2625.51 4025.14 2591.18H4432.2C4447.43 2625.51 4483.11 2649.77 4525.07 2650.32Z" fill="#FBC580"/>
<path d="M4307.13 2304.14H4260.17V2268.72H4282.26V2288.4C4282.26 2288.84 4282.49 2289.16 4282.72 2289.27L4282.84 2289.38L4307.13 2304.14Z" fill="#FF7081"/>
<path d="M4325.38 2280.97V2285.67C4325.38 2286.54 4325.26 2287.42 4325.26 2288.29C4325.26 2288.51 4325.15 2288.84 4325.15 2289.06C4325.03 2289.49 4325.03 2289.93 4324.91 2290.37C4323.64 2296.38 4319.8 2301.3 4315.03 2303.16C4314.69 2303.27 4314.34 2303.37 4313.99 2303.48C4313.41 2303.7 4312.71 2303.81 4312.13 2303.92C4311.9 2303.92 4311.66 2304.03 4311.43 2304.03L4284.81 2287.74C4285.05 2283.92 4287.6 2280.86 4290.62 2280.86H4325.38V2280.97Z" fill="#FF7081"/>
<path d="M4584.7 2268.72V2304.14H4537.74L4561.92 2289.38L4562.03 2289.27C4562.15 2289.16 4562.15 2289.16 4562.27 2289.16C4562.27 2289.06 4562.38 2289.06 4562.38 2288.95C4562.38 2288.95 4562.38 2288.84 4562.5 2288.84C4562.5 2288.73 4562.5 2288.73 4562.62 2288.73C4562.62 2288.73 4562.62 2288.73 4562.62 2288.62C4562.62 2288.51 4562.62 2288.51 4562.62 2288.4V2268.72H4584.7Z" fill="#FF7081"/>
<path d="M4560.29 2287.85L4533.67 2304.14C4532.98 2304.03 4532.28 2303.92 4531.58 2303.81C4531.35 2303.7 4531.12 2303.7 4530.88 2303.59C4530.53 2303.48 4530.3 2303.37 4529.95 2303.27C4529.72 2303.16 4529.37 2303.05 4529.14 2302.94C4525.54 2301.08 4522.51 2297.47 4521 2292.99C4520.77 2292.33 4520.54 2291.68 4520.42 2291.02C4520.31 2290.8 4520.31 2290.48 4520.19 2290.15C4519.96 2288.73 4519.72 2287.31 4519.72 2285.78V2281.08H4554.6C4557.5 2280.97 4560.06 2284.03 4560.29 2287.85Z" fill="#FF7081"/>
<path d="M4560.29 2250.8V2281.62C4560.06 2281.4 4559.83 2281.08 4559.59 2280.86C4559.13 2280.42 4558.66 2280.09 4558.2 2279.76C4557.04 2279.11 4555.76 2278.67 4554.48 2278.67H4290.51C4289.11 2278.67 4287.84 2279.11 4286.79 2279.76C4286.32 2280.09 4285.86 2280.42 4285.39 2280.86C4285.16 2281.08 4284.93 2281.29 4284.7 2281.62V2250.8C4284.7 2246.64 4287.25 2243.36 4290.51 2243.36H4554.48C4557.62 2243.36 4560.29 2246.75 4560.29 2250.8Z" fill="#FF7081"/>
<path d="M4807.29 2698.09V3126.58H4807.17C4756.73 3118.49 4694.31 3103.29 4626.2 3080.78C4584.12 3066.89 4544.72 3052.14 4509.38 3037.49L4528.33 2938.02L4560.52 2769.14C4459.51 2739.41 4443.13 2648.02 4443.13 2648.02H4524.37C4580.63 2648.02 4626.08 2605.18 4626.08 2552.38V2520.9H4573.89C4537.28 2520.9 4507.52 2487.01 4507.52 2452.58V2441.43H4623.52C4645.03 2441.43 4665.25 2450.94 4678.15 2467.12L4763 2573.69C4791.83 2609.55 4807.29 2653.16 4807.29 2698.09Z" fill="#FFAFA7"/>
<path d="M4807.29 3030.06V3126.58H4807.17C4756.73 3118.49 4694.31 3103.29 4626.2 3080.78C4584.12 3066.89 4544.72 3052.14 4509.38 3037.49L4528.33 2938.02C4570.17 2947.64 4616.66 2960.65 4665.02 2976.61C4717.32 2993.88 4764.52 3011.69 4804.04 3028.86C4805.31 3029.18 4806.24 3029.62 4807.29 3030.06Z" fill="#FFAFA7"/>
<path d="M4631.43 2520.9H4575.4C4538.79 2520.9 4509.03 2487.01 4509.03 2452.58V2441.43H4631.43V2520.9Z" fill="#FFAFA7"/>
<path d="M4596.21 2627.37C4596.21 2627.37 4676.99 2655.89 4684.31 2753.94" stroke="#FFAFA7" stroke-width="5" stroke-miterlimit="10"/>
<path d="M4560.76 2771.43H4615.73" stroke="#FFAFA7" stroke-width="5" stroke-miterlimit="10"/>
<path d="M4509.5 1545.87L4546.34 1522.91C4594.35 1493.07 4658.63 1522.58 4663.16 1576.47L4671.18 1671.9C4675.6 1724.26 4736.85 1754.1 4784.86 1727.32L4808.1 1714.31" stroke="#FBC580" stroke-width="6" stroke-miterlimit="10"/>
<path d="M3974 1191.38L4447.43 1449.79L4685.82 1953.15L4412.32 1779.9L4115.11 1452.41L3974 1191.38Z" fill="#A574D2"/>
<path d="M3975.28 1174L4458.7 1437.98L4702.21 1951.95" stroke="#FBC580" stroke-width="6" stroke-miterlimit="10"/>
<path d="M4407.38 1791.01C4429.5 1773.45 4379.79 1683.86 4296.34 1590.91C4212.9 1497.97 4127.32 1436.85 4105.2 1454.42C4083.08 1471.98 4132.79 1561.57 4216.23 1654.52C4299.68 1747.47 4385.26 1808.58 4407.38 1791.01Z" fill="white"/>
<path d="M4393.94 1796.39C4415.62 1779.17 4366.86 1691.33 4285.03 1600.18C4203.2 1509.03 4119.28 1449.09 4097.6 1466.31C4075.92 1483.52 4124.68 1571.36 4206.51 1662.51C4288.34 1753.66 4372.26 1813.6 4393.94 1796.39Z" fill="white" stroke="#FBC580" stroke-width="5" stroke-miterlimit="10"/>
<path d="M4451.61 1755.63L4406.51 1791.37C4414.88 1784.71 4413.02 1767.87 4402.91 1744.37C4386.29 1705.68 4347.35 1649.16 4295.51 1591.23C4243.55 1533.41 4190.78 1487.82 4153 1465.96C4130.1 1452.63 4112.67 1448.04 4104.3 1454.7L4149.4 1418.96C4171.48 1401.36 4260.98 1458.86 4344.44 1551.88C4427.9 1644.9 4473.81 1738.14 4451.61 1755.63Z" fill="#FBC580"/>
<path d="M4933.41 1618.89C4946.19 1613.09 4958.63 1607.95 4970.6 1603.69C4977.69 1610.69 4983.85 1618.89 4988.62 1628.07C4993.38 1637.25 4996.4 1646.87 4997.8 1656.38C4986.76 1662.5 4974.79 1668.62 4962.12 1674.41C4898.54 1703.38 4840.65 1714.42 4832.75 1699.12C4824.73 1683.71 4869.82 1647.85 4933.41 1618.89Z" fill="#FBC580"/>
<path d="M4821.12 1719.89C4828.89 1719.89 4835.19 1713.96 4835.19 1706.66C4835.19 1699.36 4828.89 1693.43 4821.12 1693.43C4813.35 1693.43 4807.06 1699.36 4807.06 1706.66C4807.06 1713.96 4813.35 1719.89 4821.12 1719.89Z" stroke="#A574D2" stroke-width="6" stroke-miterlimit="10"/>
<path d="M3756.49 2997.52V3498.8H3190.32L3262.87 2954.42C3262.87 2976.44 3373.33 3003.91 3509.62 3015.75C3645.91 3027.71 3756.49 3019.54 3756.49 2997.52Z" fill="#7CABFF"/>
<path d="M3753.91 2984.61C3753.91 3006.63 3644.38 3014.8 3509.39 3002.84C3374.39 2990.89 3264.86 2963.42 3264.86 2941.52C3264.86 2919.49 3374.39 2911.33 3509.39 2923.28C3644.5 2935.12 3753.91 2962.59 3753.91 2984.61Z" fill="#3FB1B5"/>
<path d="M3832.44 1873.36L3866.72 1895.74C3901 1922.49 3853.57 2042.07 3760.84 2162.6C3668.1 2283.24 3565.15 2359.25 3530.87 2332.49L3513.96 2316.39" stroke="#7CABFF" stroke-width="6" stroke-miterlimit="10"/>
<path d="M3356.43 2435.02L3745.58 2075.81L3881.63 1658L3466.3 2038.64L3356.43 2435.02Z" fill="#7CABFF"/>
<path d="M3336.59 2478.59L3760.13 2087.65L3898.3 1663.21" stroke="#FF7081" stroke-width="6" stroke-miterlimit="10" stroke-linecap="round"/>
<path d="M3560.57 2074.63L3191.02 2431.12C3173.06 2448.4 3143.71 2432.06 3148.76 2407.44L3159.09 2356.88C3163.79 2334.03 3138.08 2317.34 3119.42 2331.07L2997.33 2420.7" stroke="#FF7081" stroke-width="6" stroke-miterlimit="10"/>
<path d="M2897.9 2548.33C2886.98 2557.56 2876.06 2566.09 2865.5 2573.55C2856.7 2567.98 2848.6 2561 2841.43 2552.47C2834.39 2543.95 2828.87 2534.71 2825 2525C2834.16 2515.77 2844.25 2506.42 2855.17 2497.06C2909.76 2450.77 2963.52 2424.61 2975.38 2438.81C2987.12 2453.02 2952.49 2502.04 2897.9 2548.33Z" fill="#FBC580"/>
<path d="M2985.94 2443.67C2993.79 2443.67 3000.15 2437.25 3000.15 2429.34C3000.15 2421.43 2993.79 2415.02 2985.94 2415.02C2978.1 2415.02 2971.74 2421.43 2971.74 2429.34C2971.74 2437.25 2978.1 2443.67 2985.94 2443.67Z" stroke="#FF7081" stroke-width="6" stroke-miterlimit="10"/>
<path d="M3578.06 2620.19V3007.34C3556.34 3006.4 3533.22 3004.98 3509.39 3002.84C3421.46 2995.15 3344.45 2980.71 3301.37 2965.55L3307.83 2922.69L3329.43 2778.84H3301.49C3261.69 2778.84 3229.53 2746.4 3229.53 2706.27V2563.72C3229.53 2535.54 3239.62 2508.43 3258.05 2487.24L3349.97 2381.27C3355.96 2374.41 3367.23 2378.67 3367.23 2387.78V2531.87C3367.23 2549.16 3361.12 2565.85 3349.97 2578.99L3341.75 2588.7H3441.53C3455.97 2588.7 3464.43 2572.48 3456.33 2560.4C3444 2542.29 3427.8 2516.48 3412.42 2486.64C3381.78 2427.57 3434.96 2394.53 3434.96 2394.53L3556.69 2553.77C3570.55 2573.07 3578.06 2596.4 3578.06 2620.19Z" fill="#FBC580"/>
<path d="M3367.23 2380.09V2531.87C3367.23 2549.16 3361.12 2565.85 3349.97 2578.99L3341.75 2588.7" stroke="white" stroke-width="5" stroke-miterlimit="10" stroke-linecap="round"/>
<path d="M3341.75 2588.58L3275.78 2663.29" stroke="white" stroke-width="5" stroke-miterlimit="10" stroke-linecap="round"/>
<path d="M3367.23 2465.93C3367.23 2483.21 3361.12 2499.9 3349.97 2513.05L3341.75 2522.75L3275.9 2597.34" stroke="white" stroke-width="5" stroke-miterlimit="10" stroke-linecap="round"/>
<path d="M3367.23 2400.1C3367.23 2417.38 3361.12 2434.08 3349.97 2447.22L3341.75 2456.93L3275.9 2531.52" stroke="white" stroke-width="5" stroke-miterlimit="10" stroke-linecap="round"/>
<path d="M3329.43 2782.75H3380.02" stroke="white" stroke-width="5" stroke-miterlimit="10" stroke-linecap="round"/>
<path d="M3578.06 2930.86V3007.34C3556.34 3006.4 3533.22 3004.98 3509.39 3002.84C3421.46 2995.15 3344.45 2980.7 3301.37 2965.55L3307.83 2922.69C3351.97 2916.18 3425.8 2915.82 3509.5 2923.17C3533.22 2925.41 3556.22 2927.9 3578.06 2930.86Z" fill="#FF7081"/>
<path d="M2700.85 3498.8H2135V2883.84C2135 2910.09 2228.04 2931.33 2342.9 2931.33C2457.75 2931.33 2550.79 2910.09 2550.79 2883.84V2883.73L2700.85 3498.8Z" fill="#3FB1B5"/>
<path d="M2549.27 2871.6C2549.27 2897.96 2457.24 2919.21 2343.61 2919.21C2229.97 2919.21 2137.94 2897.97 2137.94 2871.72V2871.6C2138.25 2845.47 2230.17 2824.22 2343.61 2824.22C2457.04 2824.22 2549.07 2845.47 2549.27 2871.6Z" fill="#7CABFF"/>
<path d="M2549.27 2872.05C2548.56 2898.08 2456.74 2919.21 2343.61 2919.21C2321.79 2919.21 2300.89 2918.43 2281.21 2916.98V2688.2H2173.86C2160.16 2688.2 2149.1 2676.07 2149.1 2661.06V2642.7C2149.1 2634.47 2152.45 2627.13 2157.73 2622.13C2152.45 2617.12 2149.1 2609.78 2149.1 2601.55V2583.2C2149.1 2575.97 2151.74 2569.3 2156 2564.51C2151.74 2559.62 2149.1 2553.06 2149.1 2545.83V2527.48C2149.1 2520.02 2151.84 2513.24 2156.31 2508.23C2151.84 2503.34 2149.1 2496.56 2149.1 2489.1V2455.85C2149.1 2440.83 2160.16 2428.71 2173.86 2428.71H2310.93C2315.5 2425.82 2322.91 2415.58 2310.33 2409.58L2280.9 2402.01C2257.57 2389.22 2242.75 2367.98 2242.75 2339.28H2346.24C2363.59 2339.28 2379.12 2351.3 2385 2369.2L2546.73 2864.15L2549.27 2872.05Z" fill="#E57281"/>
<path d="M2549.78 2872.27C2549.47 2871.94 2549.27 2871.72 2549.27 2871.72C2549.27 2897.97 2457.24 2919.21 2343.61 2919.21C2321.79 2919.21 2300.89 2918.43 2281.21 2916.98V2826.56C2300.89 2825.11 2321.89 2824.33 2343.61 2824.33C2446.08 2824.33 2531.11 2841.69 2546.73 2864.26C2547.14 2864.82 2548.25 2867.82 2549.78 2872.27Z" fill="#A574D2"/>
<path d="M2313.27 2119.5V2209.71C2313.27 2258.76 2277.05 2298.46 2232.3 2298.46C2187.56 2298.46 2151.34 2258.76 2151.34 2209.71V2119.5C2151.34 2141.53 2187.56 2159.32 2232.3 2159.32C2277.05 2159.32 2313.27 2141.53 2313.27 2119.5Z" fill="white"/>
<path d="M2232.3 2159.32C2277.02 2159.32 2313.27 2141.5 2313.27 2119.5C2313.27 2097.51 2277.02 2079.69 2232.3 2079.69C2187.59 2079.69 2151.34 2097.51 2151.34 2119.5C2151.34 2141.5 2187.59 2159.32 2232.3 2159.32Z" fill="#FBC580"/>
<path d="M2313.27 1965.35V2209.6C2313.27 2242.52 2296.93 2271.21 2272.68 2286.56C2272.68 2286.56 2272.68 2286.56 2272.58 2286.56C2260.71 2294.02 2246.91 2298.35 2232.3 2298.35C2217.69 2298.35 2203.99 2294.13 2192.12 2286.67C2192.02 2286.67 2192.02 2286.56 2191.92 2286.56C2167.67 2271.21 2151.34 2242.52 2151.34 2209.6V1965.35H2313.27Z" stroke="#FBC580" stroke-width="6" stroke-miterlimit="10"/>
<path d="M2232.3 2005.17C2277.52 2005.17 2314.18 1987.34 2314.18 1965.35C2314.18 1943.36 2277.52 1925.53 2232.3 1925.53C2187.08 1925.53 2150.42 1943.36 2150.42 1965.35C2150.42 1987.34 2187.08 2005.17 2232.3 2005.17Z" fill="white" stroke="#FBC580" stroke-width="5" stroke-miterlimit="10"/>
<path d="M2232.3 1971.35C2238.91 1971.35 2244.27 1965.48 2244.27 1958.23C2244.27 1950.98 2238.91 1945.1 2232.3 1945.1C2225.69 1945.1 2220.33 1950.98 2220.33 1958.23C2220.33 1965.48 2225.69 1971.35 2232.3 1971.35Z" fill="#FBC580"/>
<path d="M2205.92 2239.4C2211.75 2239.4 2216.47 2234.23 2216.47 2227.84C2216.47 2221.45 2211.75 2216.27 2205.92 2216.27C2200.09 2216.27 2195.37 2221.45 2195.37 2227.84C2195.37 2234.23 2200.09 2239.4 2205.92 2239.4Z" fill="white" stroke="#FBC580" stroke-width="5" stroke-miterlimit="10"/>
<path d="M2269.23 2129.07C2274.05 2129.07 2277.96 2124.79 2277.96 2119.5C2277.96 2114.22 2274.05 2109.94 2269.23 2109.94C2264.41 2109.94 2260.51 2114.22 2260.51 2119.5C2260.51 2124.79 2264.41 2129.07 2269.23 2129.07Z" fill="white"/>
<path d="M2184.82 2200.81C2189.64 2200.81 2193.54 2196.53 2193.54 2191.24C2193.54 2185.96 2189.64 2181.68 2184.82 2181.68C2180 2181.68 2176.09 2185.96 2176.09 2191.24C2176.09 2196.53 2180 2200.81 2184.82 2200.81Z" fill="#FBC580"/>
<path d="M2310.12 2750.48H2154.48C2151.64 2750.48 2150.83 2746.37 2153.26 2744.92L2207.65 2722.34C2216.17 2718.78 2221.85 2709.77 2221.85 2699.76V2344.29C2221.85 2320.71 2210.69 2298.58 2192.12 2286.67C2203.99 2294.13 2217.69 2298.35 2232.3 2298.35C2247.01 2298.35 2260.71 2294.02 2272.58 2286.56C2253.91 2298.35 2242.75 2320.6 2242.75 2344.18V2699.65C2242.75 2709.66 2248.43 2718.67 2256.96 2722.23L2311.34 2744.81C2313.78 2746.37 2312.96 2750.48 2310.12 2750.48Z" fill="white" stroke="#FBC580" stroke-width="5" stroke-miterlimit="10"/>
<path d="M2174.67 1831.77C2182.29 1831.77 2188.47 1824.99 2188.47 1816.64C2188.47 1808.29 2182.29 1801.51 2174.67 1801.51C2167.05 1801.51 2160.87 1808.29 2160.87 1816.64C2160.87 1824.99 2167.05 1831.77 2174.67 1831.77Z" fill="#FBC580"/>
<path d="M2269.23 1856.12C2275.85 1856.12 2281.21 1850.25 2281.21 1843C2281.21 1835.75 2275.85 1829.88 2269.23 1829.88C2262.62 1829.88 2257.26 1835.75 2257.26 1843C2257.26 1850.25 2262.62 1856.12 2269.23 1856.12Z" fill="white" stroke="#FBC580" stroke-width="5" stroke-miterlimit="10"/>
<path d="M2210.59 1907.29C2215.41 1907.29 2219.31 1903.01 2219.31 1897.72C2219.31 1892.44 2215.41 1888.16 2210.59 1888.16C2205.77 1888.16 2201.86 1892.44 2201.86 1897.72C2201.86 1903.01 2205.77 1907.29 2210.59 1907.29Z" fill="white" stroke="#FBC580" stroke-width="5" stroke-miterlimit="10"/>
<path d="M2206.02 1790.84C2210 1790.84 2213.23 1787.3 2213.23 1782.94C2213.23 1778.58 2210 1775.04 2206.02 1775.04C2202.04 1775.04 2198.82 1778.58 2198.82 1782.94C2198.82 1787.3 2202.04 1790.84 2206.02 1790.84Z" fill="#FBC580"/>
<path d="M2336.6 2464.41V2688.31H2173.86C2160.16 2688.31 2149.1 2676.18 2149.1 2661.17V2642.82C2149.1 2634.59 2152.45 2627.24 2157.73 2622.24C2152.45 2617.23 2149.1 2609.89 2149.1 2601.66V2583.31C2149.1 2576.08 2151.74 2569.41 2156 2564.62C2151.74 2559.73 2149.1 2553.17 2149.1 2545.94V2527.59C2149.1 2520.13 2151.84 2513.35 2156.31 2508.35C2151.84 2503.45 2149.1 2496.67 2149.1 2489.21V2464.52H2336.6V2464.41Z" fill="#E57281"/>
<path d="M2151.94 2600.11C2151.94 2617.12 2164.53 2630.91 2180.05 2630.91H2311.75C2327.27 2630.91 2339.85 2617.12 2339.85 2600.11" stroke="#A574D2" stroke-width="5" stroke-miterlimit="10" stroke-linecap="round"/>
<path d="M2151.94 2544.6C2151.94 2561.62 2164.53 2575.41 2180.05 2575.41H2311.75C2327.27 2575.41 2339.85 2561.62 2339.85 2544.6" stroke="#A574D2" stroke-width="5" stroke-miterlimit="10" stroke-linecap="round"/>
<path d="M2151.94 2489.1C2151.94 2506.12 2164.53 2519.91 2180.05 2519.91H2311.75C2327.27 2519.91 2339.85 2506.12 2339.85 2489.1" stroke="#A574D2" stroke-width="5" stroke-miterlimit="10" stroke-linecap="round"/>
<path d="M2178.73 2686.42H2311.75C2327.27 2686.42 2339.85 2672.62 2339.85 2655.61V2447.51" stroke="#A574D2" stroke-width="5" stroke-miterlimit="10" stroke-linecap="round"/>
<path d="M2215.46 2446.62H2201.96C2197.5 2446.62 2193.85 2450.62 2193.85 2455.51C2193.85 2460.41 2197.5 2464.41 2201.96 2464.41H2277.45C2285.57 2464.41 2292.27 2457.18 2292.27 2448.17C2292.27 2437.5 2300.18 2428.82 2309.92 2428.82H2322.2C2331.94 2428.82 2339.85 2437.5 2339.85 2448.17V2484.21" stroke="#A574D2" stroke-width="5" stroke-miterlimit="10" stroke-linecap="round"/>
<path d="M3136.73 1300.33L2798.97 1680.06L2409.56 1209.46L2834.58 881.574L3136.73 1300.33Z" fill="#3FB1B5"/>
<path d="M2785.78 1698.3L2377.19 1207.35L2825.24 863" stroke="#FBC580" stroke-width="6" stroke-miterlimit="10"/>
<path d="M2792.37 1280.76L2817.84 1276.64C2859.74 1269.86 2898.6 1301.67 2904.79 1347.49L2927.01 1513.44C2934.52 1569.39 2989.31 1601.42 3035.88 1576.95L3142.11 1521.23" stroke="#FBC580" stroke-width="6" stroke-miterlimit="10"/>
<path d="M3277.56 1553.04C3288.42 1559.49 3298.67 1566.16 3308 1572.84C3306.38 1582.51 3303.33 1592.08 3298.87 1601.31C3294.4 1610.43 3288.72 1618.55 3282.23 1625.33C3271.98 1620.44 3261.23 1614.77 3250.37 1608.32C3196.09 1576.17 3158.24 1537.8 3165.75 1522.56C3173.26 1507.32 3223.28 1520.89 3277.56 1553.04Z" fill="#FBC580"/>
<path d="M3154.18 1531.57C3160.96 1531.57 3166.46 1525.55 3166.46 1518.11C3166.46 1510.68 3160.96 1504.65 3154.18 1504.65C3147.4 1504.65 3141.91 1510.68 3141.91 1518.11C3141.91 1525.55 3147.4 1531.57 3154.18 1531.57Z" stroke="#7CABFF" stroke-width="6" stroke-miterlimit="10"/>
<path d="M1654.37 3080.33V3497.5H1165.61V3251.72C1176.23 3279.11 1300.64 3261.63 1433.42 3211.51C1552.87 3166.41 1645.11 3110.95 1654.37 3080.33Z" fill="#FF7081"/>
<path d="M1654.37 3068.19C1645 3098.81 1552.87 3154.27 1433.3 3199.37C1300.64 3249.49 1176.23 3266.97 1165.5 3239.58C1154.77 3212.18 1262.03 3150.15 1394.8 3100.04C1527.47 3049.92 1643.75 3031.55 1654.37 3058.94C1655.5 3061.73 1655.5 3064.85 1654.37 3068.19Z" fill="#66B0F0"/>
<path d="M1550.84 2791.55V3145.03L1523.85 3158.5C1496.53 3171.64 1465.93 3184.67 1433.42 3196.92C1373.69 3219.53 1315.55 3235.46 1268.81 3243.7L1295.68 3139.57L1339.48 2969.63C1318.71 2969.63 1299.06 2960.5 1285.85 2944.68L1106 2742.89C1136.82 2715.16 1182.89 2752.91 1182.89 2752.91L1165.61 2665.93C1161.55 2645.33 1167.64 2623.95 1181.98 2608.47L1236.63 2549.34C1247.47 2537.64 1267 2542.21 1271.51 2557.35L1310.35 2689.54C1310.35 2689.54 1406.77 2762.15 1424.84 2762.15C1445.27 2762.15 1452.38 2745.78 1414.22 2691.99C1385.55 2651.57 1414.22 2622.06 1414.22 2622.06L1507.59 2699.57C1535.03 2722.51 1550.84 2756.14 1550.84 2791.55Z" fill="white" stroke="#FBC580" stroke-width="5" stroke-miterlimit="10"/>
<path d="M1345.01 2770.95L1276.71 2717.05L1239.34 2589.87C1235.05 2575.28 1216.87 2570.94 1206.48 2582.19" stroke="#FBC580" stroke-width="5" stroke-miterlimit="10"/>
<path d="M1300.31 2794.67L1240.92 2747.01L1205.58 2626.62C1201.52 2612.81 1183.68 2608.69 1173.85 2619.38" stroke="#FBC580" stroke-width="5" stroke-miterlimit="10"/>
<path d="M1247.81 2806.81L1182.77 2753.02" stroke="#FBC580" stroke-width="5" stroke-miterlimit="10"/>
<path d="M1339.48 2969.63H1415.47" stroke="#FBC580" stroke-width="5" stroke-miterlimit="10"/>
<path d="M1550.84 3053.93V3147.37C1517.19 3164.96 1477.11 3182.78 1433.42 3199.37C1373.58 3221.98 1315.43 3237.91 1268.58 3246.15L1295.68 3141.91C1325.71 3127.66 1359.35 3113.4 1394.92 3100.04C1452.38 3078.43 1506.8 3062.62 1550.84 3053.93Z" fill="#FBC580"/>
<path d="M1474.29 1877.24L1508.61 1951.53C1511.88 1979.03 1492.01 2003.87 1464.13 2007.21C1436.24 2010.44 1416.37 2035.38 1419.64 2062.89L1424.61 2104.1" stroke="#FBC580" stroke-width="6" stroke-miterlimit="10"/>
<path d="M1871.48 1638.59L2052.35 1360.18L1430.26 1355.28L1226.47 1890.5L1562.92 1874.91L1871.48 1638.59Z" fill="#FF7081"/>
<path d="M2059.8 1339.24L1409.37 1332L1193.39 1893.73" stroke="#FBC580" stroke-width="6" stroke-miterlimit="10"/>
<path d="M1860.3 1596.83C1896.43 1657.97 1835.01 1759.75 1723.01 1824.12C1611.01 1888.49 1491 1891.05 1454.87 1829.91C1449.9 1821.56 1446.85 1812.54 1445.38 1802.85C1436.35 1741.71 1495.4 1658.19 1592.16 1602.62C1688.92 1547.05 1791.66 1537.47 1841.11 1575.33C1848.9 1581.35 1855.33 1588.47 1860.3 1596.83Z" fill="#66B0F0" stroke="white" stroke-width="6" stroke-miterlimit="10"/>
<path d="M1831.62 1548.27L1860.3 1596.83C1855.33 1588.47 1848.9 1581.35 1841.11 1575.33C1791.66 1537.47 1688.92 1547.05 1592.16 1602.62C1495.4 1658.19 1436.47 1741.71 1445.38 1802.85C1446.74 1812.54 1449.9 1821.56 1454.87 1829.91L1426.19 1781.36C1390.06 1720.22 1451.48 1618.43 1563.48 1554.06C1675.37 1489.8 1795.5 1487.13 1831.62 1548.27Z" stroke="white" stroke-width="5" stroke-miterlimit="10" stroke-linecap="round"/>
<path d="M1414.9 2254.22C1410.5 2267.02 1405.76 2279.27 1400.79 2290.52C1390.74 2290.41 1380.58 2288.74 1370.64 2285.4C1360.59 2282.06 1351.56 2277.38 1343.43 2271.48C1346.37 2259.56 1349.98 2246.98 1354.39 2234.17C1376.29 2170.02 1407.45 2122.58 1424.16 2128.04C1440.87 2133.61 1436.69 2190.07 1414.9 2254.22Z" fill="#FBC580"/>
<path d="M1426.42 2128.26C1433.96 2128.26 1440.08 2122.23 1440.08 2114.79C1440.08 2107.35 1433.96 2101.31 1426.42 2101.31C1418.87 2101.31 1412.76 2107.35 1412.76 2114.79C1412.76 2122.23 1418.87 2128.26 1426.42 2128.26Z" stroke="#66B0F0" stroke-width="6" stroke-miterlimit="10"/>
<path d="M677.766 3052.82V3499.63H146.797V2842.02C157.19 2874.22 268.32 2941.36 406.258 2997.47C553.054 3057.4 674.695 3082.07 677.766 3052.82Z" fill="#7CABFF"/>
<path d="M677.766 3040.92C674.577 3070.18 553.054 3045.39 406.259 2985.57C268.32 2929.35 157.19 2862.21 146.797 2830.12C146.089 2828.05 145.852 2826.08 146.089 2824.33C149.159 2795.08 270.8 2819.86 417.596 2879.68C564.392 2939.5 680.955 3011.66 677.766 3040.92Z" fill="#A574D2"/>
<path d="M363.507 2400.01C376.143 2375.99 402.479 2360.71 431.413 2360.71H514.909L519.278 2670.96L577.501 2956.1L596.042 3046.7C546.913 3036.66 479.833 3015.59 406.377 2985.68C364.806 2968.76 312.725 2943.65 278.004 2925.97V2548.47C278.004 2543.34 279.067 2538.21 280.956 2533.41L363.507 2400.01Z" fill="#FFAFA7"/>
<path d="M595.924 3046.7C546.795 3036.66 479.715 3015.59 406.258 2985.68C364.688 2968.76 312.607 2943.65 277.886 2925.97V2831.1C315.795 2842.35 371.892 2861.12 417.596 2879.68C479.243 2904.79 533.096 2930.66 577.5 2956.1L595.924 3046.7Z" fill="#FFAFA7"/>
<path d="M906.876 2011.92L462.709 2767.35C446.294 2795.3 401.062 2801.95 361.736 2782.2C322.409 2762.44 303.868 2723.79 320.283 2695.74L764.45 1940.31L906.876 2011.92Z" fill="white" stroke="#FBC580" stroke-width="5" stroke-miterlimit="10"/>
<path d="M906.793 2012.1C923.237 1984.14 904.7 1945.45 865.388 1925.7C826.076 1905.95 780.877 1912.62 764.433 1940.59C747.989 1968.56 766.527 2007.24 805.838 2026.99C845.15 2046.74 890.349 2040.07 906.793 2012.1Z" fill="#7CABFF" stroke="#FBC580" stroke-width="5" stroke-miterlimit="10"/>
<path d="M616.709 2301.1L826.569 2142.7L823.262 2199.03L890.46 2214.53L737.405 2301.87C778.503 2295.32 827.986 2289.97 868.73 2292.91C917.268 2296.41 900.971 2348.92 882.784 2393.78C925.299 2389.96 1067.84 2310.16 1121.58 2325.23C1154.41 2334.4 1142.6 2396.29 1133.15 2430.46C1146.85 2431.12 1216.17 2430.35 1216.17 2430.35L1179.56 2461.25L1199.64 2492.14C1121.7 2495.31 1120.75 2483.95 1130.55 2432.86C1132.21 2377.3 1065.6 2430.68 923.764 2462.01C853.496 2477.51 862.589 2435.27 879.949 2391.27C872.982 2371.08 820.9 2349.13 653.556 2389.53L616.709 2301.1Z" fill="#FF7081"/>
<path d="M619.78 2397.6C654.022 2397.6 681.781 2371.94 681.781 2340.29C681.781 2308.64 654.022 2282.98 619.78 2282.98C585.537 2282.98 557.778 2308.64 557.778 2340.29C557.778 2371.94 585.537 2397.6 619.78 2397.6Z" fill="white" stroke="#FF7081" stroke-width="5" stroke-miterlimit="10"/>
<path d="M598.404 2360.71V2364.31C598.404 2400.99 566.282 2430.79 526.483 2430.79H451.018V2360.71H598.404Z" fill="#FFAFA7"/>
<path d="M690.285 2495.31L670.326 2538.54L647.061 2589.08L634.425 2616.48L615.174 2658.29C614.702 2659.38 613.993 2660.58 613.403 2661.57C613.403 2661.68 613.285 2661.68 613.285 2661.79C607.144 2671.61 595.216 2677.72 582.107 2677.72H429.17C410.629 2677.72 397.992 2661.46 404.842 2646.5L415.943 2622.38L440.389 2569.32L461.411 2523.58L479.952 2483.41C485.385 2471.62 498.494 2463.87 513.138 2463.87H666.075C684.498 2464.09 697.134 2480.35 690.285 2495.31Z" fill="#FFAFA7"/>
<path d="M467.789 2523.8C474.166 2517.25 483.378 2513.32 493.298 2513.32H639.385C654.738 2513.32 665.839 2525.55 664.304 2538.54" stroke="#FFAFA7" stroke-width="5" stroke-miterlimit="10" stroke-linecap="round"/>
<path d="M447.948 2569.54C454.207 2563.75 462.828 2560.37 472.158 2560.37H618.245C635.015 2560.37 646.589 2574.78 642.337 2588.97" stroke="#FFAFA7" stroke-width="5" stroke-miterlimit="10" stroke-linecap="round"/>
<path d="M425.037 2622.49C431.296 2617.03 439.681 2613.86 448.656 2613.86H594.743C611.986 2613.86 623.914 2629.36 618.363 2643.99" stroke="#FFAFA7" stroke-width="5" stroke-miterlimit="10" stroke-linecap="round"/>
<path d="M953.289 1225.45C963.091 1215.74 972.893 1206.67 982.577 1198.6C992.025 1202.64 1001 1208.2 1009.15 1215.19C1017.18 1222.18 1023.91 1230.04 1028.99 1238.44C1020.96 1247.94 1011.98 1257.66 1002.18 1267.37C953.288 1315.95 902.861 1345.97 889.279 1334.4C875.816 1322.83 904.396 1274.03 953.289 1225.45Z" fill="#FBC580"/>
<path d="M610.095 1610.15L594.506 1619.1C537.937 1651.53 427.752 1581.77 348.508 1463.32C269.146 1344.88 250.723 1222.72 307.174 1190.3L323.235 1181.13L418.776 1440.95L610.095 1610.15Z" fill="#7CABFF"/>
<path d="M768.347 1750.21L610.095 1610.15L418.659 1440.84L323.117 1181.13L237.732 948.934L635.368 1245.1L768.347 1750.21Z" fill="#7CABFF" stroke="white" stroke-width="6" stroke-miterlimit="10"/>
<path d="M780.748 1736.35L648.714 1232.11L246.118 939" stroke="#A574D2" stroke-width="6" stroke-miterlimit="10"/>
<path d="M558.25 1393.13C548.094 1354.27 573.957 1315.08 616 1305.69C655.917 1296.74 696.425 1317.81 708.943 1353.83L742.129 1452.84C760.434 1507.65 845.819 1503.39 857.747 1447.06L876.879 1356.12" stroke="#FBC580" stroke-width="6" stroke-miterlimit="10"/>
<path d="M881.366 1358.63C889.259 1358.63 895.656 1352.72 895.656 1345.42C895.656 1338.13 889.259 1332.22 881.366 1332.22C873.474 1332.22 867.077 1338.13 867.077 1345.42C867.077 1352.72 873.474 1358.63 881.366 1358.63Z" stroke="#7CABFF" stroke-width="6" stroke-miterlimit="10"/>
</svg>
