<svg width="508" height="508" viewBox="0 0 508 508" fill="none" xmlns="http://www.w3.org/2000/svg">
<path d="M254 508C394.28 508 508 394.28 508 254C508 113.72 394.28 0 254 0C113.72 0 0 113.72 0 254C0 394.28 113.72 508 254 508Z" fill="#A574D2"/>
<path d="M122.8 102.4V405.2C122.8 414 130 421.6 139.2 421.6H316V369.2C316 360 323.2 352.8 332.4 352.8H384.8V102.4C384.8 93.6 377.6 86 368.4 86H139.2C130 86.4 122.8 93.6 122.8 102.4Z" fill="white"/>
<path d="M316 421.6L384.8 352.8H332.8C323.6 352.8 316.4 360 316.4 369.2V421.6H316V421.6Z" fill="#E6E9EE"/>
<path d="M320.4 244.4C303.6 244.8 286.4 246.4 269.2 249.6C280.8 251.2 292.4 253.2 304 255.6C275.6 273.6 245.6 290 213.6 302.4C213.2 268 227.2 230.8 252 199.6C252.8 212 254 224 255.6 236C258.4 218 262.8 200 268 182C278 172.4 288.8 163.6 300.4 155.6C296 167.2 292 178.4 288.4 190C298.4 174 310 158.4 322.4 143.2C333.2 138 344.4 133.6 355.6 130.4C349.2 142 343.6 154 338.4 166C349.6 152.4 361.6 138.8 374.8 126C400 121.6 424.8 122.8 446.8 129.6C432.4 147.6 416.8 164 400.4 179.6C384 180.8 367.6 183.2 351.2 186.8C363.6 188 376 189.6 387.6 191.6C380 198.4 372.4 204.8 364.8 211.2C348.4 214.4 331.6 218.4 315.2 223.6C326.4 223.2 337.6 223.6 348.4 224.4C345.6 226.4 342.8 228.8 340 230.8C333.6 235.2 327.2 239.6 320.4 244.4Z" fill="#324A5E"/>
<path d="M429.6 134.4C418.4 138 402.8 143.2 384.8 151.6C366.8 159.6 346.4 170.8 326 184.4C316 191.2 305.6 198.8 295.6 206.8C285.6 214.8 276 223.6 266.4 232.8C257.2 242 248 251.6 240 261.2C231.6 270.8 224 281.2 216.8 291.2C204.4 308.8 194 326.4 186 342.8C184.8 345.6 185.2 348.4 187.2 350.8C196.4 334 208.4 314.8 222.4 295.6C229.6 286 237.6 276 245.6 266.4C254 256.8 262.8 247.6 272 238.4C281.2 229.2 290.8 220.8 300.4 212.8C310 204.8 320 197.2 330 190C349.6 176 369.2 164.4 386.8 155.6C404.4 146.8 419.2 140 430 135.6C440.8 131.2 447.2 129.2 447.2 129.2C447.2 129.2 440.4 130.8 429.6 134.4Z" fill="#E6E9EE"/>
</svg>
