<svg width="508" height="508" viewBox="0 0 508 508" fill="none" xmlns="http://www.w3.org/2000/svg">
<path d="M254 508C394.28 508 508 394.28 508 254C508 113.72 394.28 0 254 0C113.72 0 0 113.72 0 254C0 394.28 113.72 508 254 508Z" fill="#FBC580"/>
<path d="M122.8 102.4V405.2C122.8 414 130 421.6 139.2 421.6H316V369.2C316 360 323.2 352.8 332.4 352.8H384.8V102.4C384.8 93.6 377.6 86 368.4 86H139.2C130 86.4 122.8 93.6 122.8 102.4Z" fill="white"/>
<path d="M316 421.6L384.8 352.8H332.8C323.6 352.8 316.4 360 316.4 369.2V421.6H316V421.6Z" fill="#E6E9EE"/>
<path d="M259.6 297.2L248.8 271.6H199.2L188.4 297.2H160.4L211.2 179.2H236.8L287.6 297.2H259.6ZM224 214.4L209.2 248.8H238.8L224 214.4Z" fill="#7CABFF"/>
<path d="M309.201 239.2V216.8H287.601V201.6H309.201V179.2H326.001V201.6H347.601V216.8H326.001V239.2H309.201Z" fill="#7CABFF"/>
</svg>
