<svg width="508" height="508" viewBox="0 0 508 508" fill="none" xmlns="http://www.w3.org/2000/svg">
<path d="M254 508C394.28 508 508 394.28 508 254C508 113.72 394.28 0 254 0C113.72 0 0 113.72 0 254C0 394.28 113.72 508 254 508Z" fill="#54C0EB"/>
<path d="M388.8 300.4H148.4C126.8 300.4 109.6 318 109.6 339.2C109.6 360.8 127.2 378 148.4 378H388.8V300.4Z" fill="white"/>
<path d="M390 384.4H148.4C123.6 384.4 103.6 364.4 103.6 339.6C103.6 314.8 123.6 294.8 148.4 294.8H390C393.2 294.8 396 297.6 396 300.8C396 304 393.2 306.8 390 306.8H148.4C130 306.8 115.2 321.6 115.2 340C115.2 358.4 130 373.2 148.4 373.2H390C393.2 373.2 396 376 396 379.2C396 381.6 393.2 384.4 390 384.4Z" fill="#FF7058"/>
<path d="M408 210.4H167.6C146 210.4 128.8 228 128.8 249.2C128.8 270.4 146.4 288 167.6 288H408V210.4Z" fill="#E6E9EE"/>
<path d="M100 120.8H340.4C362 120.8 379.2 138.4 379.2 159.6C379.2 180.8 361.6 198.4 340.4 198.4H100V120.8Z" fill="white"/>
<path d="M98.7998 204.8H340.4C365.2 204.8 385.2 184.8 385.2 160C385.2 135.2 365.2 115.2 340.4 115.2H98.7998C95.5998 115.2 92.7998 118 92.7998 121.2C92.7998 124.4 95.5998 127.2 98.7998 127.2H340.4C358.8 127.2 373.6 142 373.6 160.4C373.6 178.8 358.8 193.6 340.4 193.6H98.7998C95.5998 193.6 92.7998 196.4 92.7998 199.6C92.7998 202.8 95.5998 204.8 98.7998 204.8Z" fill="#FFD05B"/>
<path d="M409.2 294.4H167.6C142.8 294.4 122.8 274.4 122.8 249.6C122.8 224.8 142.8 204.8 167.6 204.8H409.2C412.4 204.8 415.2 207.6 415.2 210.8C415.2 214 412.4 216.8 409.2 216.8H167.6C149.2 216.8 134.4 231.6 134.4 250C134.4 268.4 149.2 283.2 167.6 283.2H409.2C412.4 283.2 415.2 286 415.2 289.2C415.2 291.6 412.4 294.4 409.2 294.4Z" fill="#324A5E"/>
<path d="M359.2 235.2V292.4L342.4 274.4L324 294.4V235.2H359.2Z" fill="#7CABFF"/>
<path d="M191.6 334V391.2L175.2 373.2L156.8 393.2V334H191.6Z" fill="#324A5E"/>
<path d="M153.2 141.6V198.8L136.4 180.8L118.4 200.8V141.6H153.2Z" fill="#FF7058"/>
</svg>
