<svg width="506" height="506" viewBox="0 0 506 506" fill="none" xmlns="http://www.w3.org/2000/svg">
<path d="M253 506C392.728 506 506 392.728 506 253C506 113.272 392.728 0 253 0C113.272 0 0 113.272 0 253C0 392.728 113.272 506 253 506Z" fill="#FF7081"/>
<path d="M151.7 272.1V276.4V310.1L154.4 309.1C155.4 308.7 254.1 273.9 351.5 309.1L354.2 310.1V276.4V272.1C258.1 237.7 160.8 269 151.7 272.1Z" fill="#2B3B4E"/>
<path d="M253 98.8999L94.9004 153.5L253 208.1L411.1 153.5L253 98.8999Z" fill="#2B3B4E"/>
<path d="M253 208.1L151.7 173.1V272.1C160.8 269 258.1 237.7 354.3 272.1V173.1L253 208.1Z" fill="#435E70"/>
<path d="M253.1 369.5C266.907 369.5 278.1 358.307 278.1 344.5C278.1 330.693 266.907 319.5 253.1 319.5C239.292 319.5 228.1 330.693 228.1 344.5C228.1 358.307 239.292 369.5 253.1 369.5Z" fill="#FFD05B"/>
<path d="M253.1 319.5C262 319.5 269.8 324.2 274.3 331.2V316.1C274.3 314.1 272.7 312.4 270.6 312.4H235.4C233.4 312.4 231.7 314 231.7 316.1V331.5C236.1 324.3 244 319.5 253.1 319.5Z" fill="#F1543F"/>
<path d="M235.7 326.6L235.6 326.7C235.6 326.7 235.6 326.7 235.7 326.6Z" fill="#E6E9EE"/>
<path d="M233.3 329.3C233.4 329.2 233.5 329 233.6 328.9C233.6 329 233.5 329.1 233.3 329.3Z" fill="#E6E9EE"/>
<path d="M231.9 331.4C231.9 331.5 231.8 331.5 231.8 331.6V320.7H99.0996V352.9H229.6C228.7 350.3 228.2 347.5 228.2 344.6C228.1 339.7 229.5 335.2 231.9 331.4Z" fill="white"/>
<path d="M274.3 320.6V331.2C274.2 331.1 274.1 331 274.1 330.9C276.7 334.8 278.2 339.5 278.2 344.5C278.2 347.4 277.7 350.2 276.8 352.8H407.1V320.6H274.3V320.6Z" fill="white"/>
<path d="M270.3 326.4C270.5 326.5 270.6 326.7 270.7 326.9C270.6 326.7 270.4 326.5 270.3 326.4Z" fill="#E6E9EE"/>
<path d="M272.8 329.2C272.6 329 272.5 328.8 272.3 328.5C272.4 328.7 272.6 328.9 272.8 329.2Z" fill="#E6E9EE"/>
<path d="M253.1 361C262.212 361 269.6 353.613 269.6 344.5C269.6 335.387 262.212 328 253.1 328C243.987 328 236.6 335.387 236.6 344.5C236.6 353.613 243.987 361 253.1 361Z" fill="#F9B54C"/>
<path d="M253 157.6V149.5H107.4V247.5L98.9004 275.8H124.1L115.5 247.7V157.6H253Z" fill="#1C2A38"/>
<path d="M253.1 369.5C244 369.5 236.1 364.7 231.7 357.4V409.2L253 390.8L274.3 409.2V357.7C269.8 364.8 262 369.5 253.1 369.5Z" fill="#F1543F"/>
<path d="M235.7 362.4C235.6 362.3 235.5 362.2 235.4 362.1C235.5 362.2 235.6 362.3 235.7 362.4Z" fill="#ACB3BA"/>
<path d="M233.2 359.5C233.4 359.7 233.5 359.9 233.7 360.1C233.5 360 233.3 359.7 233.2 359.5Z" fill="#ACB3BA"/>
<path d="M231.7 357.5C231.7 357.6 231.8 357.7 231.9 357.7C231 356.2 230.1 354.6 229.5 352.8H99.0996V356.9V377.3H231.8V357.5H231.7Z" fill="#CED5E0"/>
<path d="M270.3 362.7C270.6 362.4 270.9 362.1 271.2 361.8C270.8 362 270.6 362.4 270.3 362.7Z" fill="#ACB3BA"/>
<path d="M276.7 352.8C276.1 354.6 275.2 356.3 274.2 357.9C274.2 357.8 274.3 357.8 274.3 357.7V377.2H407V356.8V352.7H276.7V352.8Z" fill="#CED5E0"/>
<path d="M273.1 359.4C272.9 359.7 272.6 360.1 272.4 360.4C272.6 360.1 272.8 359.8 273.1 359.4Z" fill="#ACB3BA"/>
</svg>
