<svg width="5000" height="3500" viewBox="0 0 5000 3500" fill="none" xmlns="http://www.w3.org/2000/svg">
<path d="M3055.2 519L3253.1 710L3452 1786.7H1586.3L3055.2 519Z" fill="#FBC580"/>
<path d="M3254.8 708.5L3056.3 516.9L3089.5 482.4C3138.4 431.6 3226.5 437.4 3277.3 486.2C3328.1 535.1 3337 623.2 3288.1 674L3254.8 708.5Z" fill="white" stroke="#FBC580" stroke-width="6" stroke-miterlimit="10" stroke-linecap="round"/>
<path d="M3288 674L3089.4 482.4" stroke="#FBC580" stroke-width="6" stroke-miterlimit="10" stroke-linecap="round"/>
<path d="M3288.2 494.9L3310.4 477.9C3340.2 455.1 3383 461.1 3405.3 491.4L3950.9 1155.6L3671.6 1778.5" stroke="#A574D2" stroke-width="6" stroke-miterlimit="10" stroke-linecap="round"/>
<path d="M3942 1189.5C3958.9 1189.5 3972.6 1175.8 3972.6 1158.9C3972.6 1142 3958.9 1128.3 3942 1128.3C3925.1 1128.3 3911.4 1142 3911.4 1158.9C3911.4 1175.8 3925.1 1189.5 3942 1189.5Z" fill="white" stroke="#FBC580" stroke-width="6" stroke-miterlimit="10" stroke-linecap="round"/>
<path d="M3594 1708.9H3743.1C3786 1708.9 3820.7 1743.7 3820.7 1786.5V1788.7H3516.3V1786.5C3516.4 1743.7 3551.1 1708.9 3594 1708.9Z" fill="white" stroke="#FBC580" stroke-width="6" stroke-miterlimit="10" stroke-linecap="round"/>
<path d="M2871.7 1561.6H1927.8C1892.3 1561.6 1863.6 1532.9 1863.6 1497.4V837.2C1863.6 801.7 1892.3 773 1927.8 773H2871.7C2907.2 773 2935.9 801.7 2935.9 837.2V1497.3C2936 1532.8 2907.2 1561.6 2871.7 1561.6Z" fill="white" stroke="#7CABFF" stroke-width="6" stroke-miterlimit="10" stroke-linecap="round"/>
<path d="M2872.3 1500.2H1937.5C1923.6 1500.2 1912.4 1488.9 1912.4 1475.1V843.5C1912.4 829.6 1923.7 818.4 1937.5 818.4H2872.3C2886.2 818.4 2897.4 829.7 2897.4 843.5V1475C2897.5 1488.9 2886.2 1500.2 2872.3 1500.2Z" fill="#A574D2" stroke="#7CABFF" stroke-width="6" stroke-miterlimit="10" stroke-linejoin="round"/>
<path d="M1971 877.4H1956.2C1951.4 877.4 1947.4 873.5 1947.4 868.6V853.8C1947.4 849 1951.3 845 1956.2 845H1971C1975.8 845 1979.8 848.9 1979.8 853.8V868.6C1979.7 873.5 1975.8 877.4 1971 877.4Z" stroke="white" stroke-width="6" stroke-miterlimit="10" stroke-linecap="round"/>
<path d="M2038.3 877.4H2023.5C2018.7 877.4 2014.7 873.5 2014.7 868.6V853.8C2014.7 849 2018.6 845 2023.5 845H2038.3C2043.1 845 2047.1 848.9 2047.1 853.8V868.6C2047.1 873.5 2043.1 877.4 2038.3 877.4Z" stroke="white" stroke-width="6" stroke-miterlimit="10" stroke-linecap="round"/>
<path d="M2105.6 877.4H2090.8C2086 877.4 2082 873.5 2082 868.6V853.8C2082 849 2085.9 845 2090.8 845H2105.6C2110.4 845 2114.4 848.9 2114.4 853.8V868.6C2114.4 873.5 2110.5 877.4 2105.6 877.4Z" stroke="white" stroke-width="6" stroke-miterlimit="10" stroke-linecap="round"/>
<path d="M2599 1786.7H2232.6L2304.5 1561.6H2527L2599 1786.7Z" fill="white" stroke="#7CABFF" stroke-width="6" stroke-miterlimit="10" stroke-linecap="round"/>
<path d="M2261.4 1696.6L2304.5 1561.6H2527L2261.4 1696.6Z" fill="#7CABFF"/>
<path d="M2817.9 1025.5H2639.8C2623.1 1025.5 2609.6 1012 2609.6 995.3V880.3C2609.6 863.6 2623.1 850.1 2639.8 850.1H2817.9C2834.6 850.1 2848.1 863.6 2848.1 880.3V995.3C2848.1 1012 2834.6 1025.5 2817.9 1025.5Z" stroke="white" stroke-width="6" stroke-miterlimit="10" stroke-linecap="round"/>
<path d="M2660.5 891.1H2796.4" stroke="white" stroke-width="6" stroke-miterlimit="10" stroke-linecap="round"/>
<path d="M2660.5 922.1H2796.4" stroke="white" stroke-width="6" stroke-miterlimit="10" stroke-linecap="round"/>
<path d="M2660.5 953.1H2796.4" stroke="white" stroke-width="6" stroke-miterlimit="10" stroke-linecap="round"/>
<path d="M2660.5 984.1H2796.4" stroke="white" stroke-width="6" stroke-miterlimit="10" stroke-linecap="round"/>
<path d="M2867.1 1500.2H2159.2L2117.7 1559.7C2070.8 1626.9 1971.7 1627.9 1923.5 1561.6L1670.7 1213.9C1681.3 1227.1 1729.8 1212.4 1776 1182C1822.9 1151.1 1853.2 1112.2 1843.7 1097.8L2019 1321.2L2072.7 1226.4C2087.4 1201.3 2111.8 1183.3 2140.2 1176.7L2322.9 1138H2480.4L2654 1176.3C2684.2 1183.2 2709.8 1202.9 2724.3 1230.2L2867.1 1500.2Z" fill="white" stroke="#7CABFF" stroke-width="6" stroke-miterlimit="10"/>
<path d="M2672.8 1496.1L2622.5 1396.8" stroke="#7CABFF" stroke-width="6" stroke-miterlimit="10" stroke-linecap="round"/>
<path d="M2155.2 1505.4L2205 1407.1" stroke="#7CABFF" stroke-width="6" stroke-miterlimit="10" stroke-linecap="round"/>
<path d="M1950.8 1234.5L2064.9 1380.4" stroke="#7CABFF" stroke-width="6" stroke-miterlimit="10" stroke-linecap="round"/>
<path d="M2421.3 1186L2463.3 1237.1L2557.3 1157.3" stroke="#7CABFF" stroke-width="6" stroke-miterlimit="10" stroke-linecap="round"/>
<path d="M2389.2 1187L2348.4 1239.1L2245.1 1157.3" stroke="#7CABFF" stroke-width="6" stroke-miterlimit="10" stroke-linecap="round"/>
<path d="M1878.5 1142.5C1888 1157 1857.6 1196.4 1810.4 1227.7C1764 1258.5 1714.8 1273.3 1704.1 1260" stroke="#7CABFF" stroke-width="6" stroke-miterlimit="10" stroke-linecap="round"/>
<path d="M1847.1 1167.8C1853.34 1167.8 1858.4 1162.74 1858.4 1156.5C1858.4 1150.26 1853.34 1145.2 1847.1 1145.2C1840.86 1145.2 1835.8 1150.26 1835.8 1156.5C1835.8 1162.74 1840.86 1167.8 1847.1 1167.8Z" stroke="#7CABFF" stroke-width="6" stroke-miterlimit="10" stroke-linecap="round"/>
<path d="M2405.1 1238.8C2411.34 1238.8 2416.4 1233.74 2416.4 1227.5C2416.4 1221.26 2411.34 1216.2 2405.1 1216.2C2398.86 1216.2 2393.8 1221.26 2393.8 1227.5C2393.8 1233.74 2398.86 1238.8 2405.1 1238.8Z" stroke="#7CABFF" stroke-width="6" stroke-miterlimit="10" stroke-linecap="round"/>
<path d="M2405.1 1329.8C2411.34 1329.8 2416.4 1324.74 2416.4 1318.5C2416.4 1312.26 2411.34 1307.2 2405.1 1307.2C2398.86 1307.2 2393.8 1312.26 2393.8 1318.5C2393.8 1324.74 2398.86 1329.8 2405.1 1329.8Z" stroke="#7CABFF" stroke-width="6" stroke-miterlimit="10" stroke-linecap="round"/>
<path d="M2114.1 1564.5L2159.2 1500.2V1564.5H2114.1Z" fill="#7CABFF"/>
<path d="M1774.9 1179C1728.7 1209.4 1680.2 1224.1 1669.6 1210.9C1669.4 1210.7 1669.3 1210.5 1669.1 1210.2C1666.9 1206.9 1667.1 1202.4 1669.1 1196.9C1676 1178.8 1704.5 1150.8 1740.7 1127C1769.5 1108 1797.9 1094.8 1817.6 1090.7C1829 1088.4 1837.5 1089.1 1841.6 1093.5L1842.6 1094.7C1852 1109.1 1821.8 1148.1 1774.9 1179Z" fill="#FF7081"/>
<path d="M1774.9 1179C1748.6 1196.3 1721.5 1208.6 1701.1 1213.4L1609.8 1084.6C1597.1 1066.6 1601.3 1041.7 1619.4 1029L1701.6 971.2L1655 891.9C1648.2 880.4 1652.1 865.5 1663.7 858.8C1667.5 856.6 1671.6 855.6 1675.7 855.6C1683.6 855.6 1691.4 859.5 1696 866.7L1841.7 1093.3L1842.7 1094.9C1852 1109.1 1821.8 1148.1 1774.9 1179Z" fill="#FFAFA7"/>
<path d="M1701.4 972.1L1752.3 1051C1757 1058.4 1754.9 1068.2 1747.5 1073L1736.2 1080.4C1728.8 1085.3 1718.8 1083.2 1714 1075.8L1665.9 1003.8" stroke="black" stroke-width="6" stroke-miterlimit="10" stroke-linecap="round"/>
<path d="M1713.8 1075.6C1718.7 1083.1 1716.5 1093.2 1709 1098L1698.7 1104.5C1691.3 1109.2 1681.5 1107.1 1676.7 1099.8" stroke="black" stroke-width="6" stroke-miterlimit="10" stroke-linecap="round"/>
<path d="M1629.4 1029.2L1676.5 1099.2C1681.4 1106.7 1679.3 1116.8 1671.6 1121.6L1662 1126.9C1654.8 1131.5 1645.3 1129.6 1640.3 1122.6L1613 1084.1" stroke="black" stroke-width="6" stroke-miterlimit="10" stroke-linecap="round"/>
<path d="M1807.7 1040.5L1783.8 1003.4C1775.9 991.1 1759.4 987.7 1747.3 995.9L1688 1036.1C1688 1036.1 1705.2 1067 1747 1042.5L1761 1064.8C1732.4 1082.9 1724.2 1121 1742.8 1149.3L1807.7 1040.5Z" fill="#FFAFA7"/>
<path d="M1804.6 1041.5L1780.7 1004.4C1772.8 992.1 1756.3 988.7 1744.2 996.9L1688 1036.1C1688 1036.1 1705.2 1067 1747 1042.5L1761 1064.8C1732.4 1082.9 1724.2 1121 1742.8 1149.3" stroke="black" stroke-width="6" stroke-miterlimit="10" stroke-linecap="round"/>
<path d="M1774.9 1179C1748.6 1196.3 1721.5 1208.6 1701.1 1213.4L1678.4 1181.4C1691.1 1164.8 1713.8 1144.8 1740.7 1127.1C1769.5 1108.1 1797.9 1094.9 1817.6 1090.8C1829 1088.5 1837.5 1089.2 1841.6 1093.6L1842.6 1094.8C1842.7 1095 1842.8 1095.1 1842.9 1095.3C1843 1095.4 1843 1095.5 1843.1 1095.7C1843.2 1095.9 1843.3 1096 1843.4 1096.2C1850.2 1111.5 1820.3 1149 1774.9 1179Z" fill="#FFAFA7"/>
<path d="M2480.3 1050V1137.9C2480.3 1163.4 2444.9 1184 2401.4 1184C2357.8 1184 2322.5 1163.4 2322.5 1137.9V1050H2480.3Z" fill="#FFAFA7"/>
<path d="M2345.6 1170.5C2331.3 1162.2 2322.4 1150.6 2322.4 1137.9V1050H2480.3V1074.4C2480.3 1099.7 2464.9 1122.4 2441.5 1131.9L2345.6 1170.5Z" fill="black"/>
<path d="M2524.3 1044.8V1046.3C2524.3 1061.5 2512 1073.8 2496.8 1073.8H2478.7C2472.6 1098.4 2450.4 1116.7 2423.8 1116.7H2379C2352.5 1116.7 2330.2 1098.5 2324.2 1073.8H2306.1C2290.9 1073.8 2278.6 1061.5 2278.6 1046.3V1044.8C2278.6 1029.6 2290.9 1017.3 2306.1 1017.3H2322.5V995.6C2322.5 972.4 2339.6 953.2 2361.9 950C2366.8 958.2 2381.6 977.8 2411.8 976.7C2426 976.2 2439.2 973.5 2450.1 970.3C2463.2 966.5 2476.3 974.5 2479.6 987C2480.1 989.8 2480.4 992.6 2480.4 995.5V1017.2H2496.8C2511.9 1017.2 2524.3 1029.6 2524.3 1044.8Z" fill="#FFAFA7"/>
<path d="M2492.9 1017.2H2480.3V993.1C2480.3 991 2480 988.9 2479.5 987C2476.2 974.5 2463.1 966.5 2450 970.3C2439.1 973.5 2426 976.2 2411.7 976.7C2381.5 977.8 2366.7 958.2 2361.8 950C2339.5 953.2 2322.4 972.4 2322.4 995.6V1017.3H2306.7C2306.7 1017.3 2288.7 952.2 2302.2 933.8C2315.5 915.7 2331.5 923.6 2331.5 923.6C2331.5 923.6 2321.9 869.4 2375.5 870.4C2429 871.4 2498.6 933.5 2503.7 944.9C2511.7 962.4 2492.9 1017.2 2492.9 1017.2Z" fill="black"/>
<path d="M2486.4 1049.9C2486.4 1039.2 2495.1 1030.6 2505.7 1030.6" stroke="black" stroke-width="5" stroke-miterlimit="10" stroke-linecap="round"/>
<path d="M2316.6 1049.9C2316.6 1039.2 2307.9 1030.6 2297.3 1030.6" stroke="black" stroke-width="5" stroke-miterlimit="10" stroke-linecap="round"/>
<path d="M2455.1 995.6C2455.1 995.6 2440.9 985.2 2422.8 992.7" stroke="black" stroke-width="5" stroke-miterlimit="10" stroke-linecap="round"/>
<path d="M2346.7 995.6C2346.7 995.6 2360.9 985.2 2379 992.7" stroke="black" stroke-width="5" stroke-miterlimit="10" stroke-linecap="round"/>
<path d="M2426.3 1069.4C2426.3 1069.4 2418.6 1086 2395 1077.3" stroke="black" stroke-width="5" stroke-miterlimit="10" stroke-linecap="round"/>
<path d="M2393.9 1060.8C2400 1061.2 2409.3 1060.8 2409.3 1060.8" stroke="black" stroke-width="5" stroke-miterlimit="10" stroke-linecap="round"/>
<path d="M2439 1037.3C2441.76 1037.3 2444 1033.54 2444 1028.9C2444 1024.26 2441.76 1020.5 2439 1020.5C2436.24 1020.5 2434 1024.26 2434 1028.9C2434 1033.54 2436.24 1037.3 2439 1037.3Z" fill="black"/>
<path d="M2367.3 1037.3C2370.06 1037.3 2372.3 1033.54 2372.3 1028.9C2372.3 1024.26 2370.06 1020.5 2367.3 1020.5C2364.54 1020.5 2362.3 1024.26 2362.3 1028.9C2362.3 1033.54 2364.54 1037.3 2367.3 1037.3Z" fill="black"/>
<path d="M2379.2 1057.2H2347.7C2341.6 1057.2 2336.7 1052.3 2336.7 1046.2V1014.7C2336.7 1008.6 2341.6 1003.7 2347.7 1003.7H2379.2C2385.3 1003.7 2390.2 1008.6 2390.2 1014.7V1046.2C2390.3 1052.2 2385.3 1057.2 2379.2 1057.2Z" stroke="white" stroke-width="5" stroke-miterlimit="10"/>
<path d="M2456.3 1057.2H2424.8C2418.7 1057.2 2413.8 1052.3 2413.8 1046.2V1014.7C2413.8 1008.6 2418.7 1003.7 2424.8 1003.7H2456.3C2462.4 1003.7 2467.3 1008.6 2467.3 1014.7V1046.2C2467.3 1052.2 2462.4 1057.2 2456.3 1057.2Z" stroke="white" stroke-width="5" stroke-miterlimit="10"/>
<path d="M2390.3 1024.5H2413.8" stroke="white" stroke-width="5" stroke-miterlimit="10"/>
<path d="M2464.6 1461.4H2355.3C2345.4 1461.4 2337.3 1453.4 2337.3 1443.4V1385.3C2337.3 1375.4 2345.3 1367.3 2355.3 1367.3H2464.6C2474.5 1367.3 2482.6 1375.3 2482.6 1385.3V1443.4C2482.6 1453.3 2474.6 1461.4 2464.6 1461.4Z" stroke="#7CABFF" stroke-width="6" stroke-miterlimit="10" stroke-linejoin="round"/>
<path d="M2412.7 1438H2375.7C2369.8 1438 2365 1433.2 2365 1427.3V1401.4C2365 1395.5 2369.8 1390.7 2375.7 1390.7H2412.7C2418.6 1390.7 2423.4 1395.5 2423.4 1401.4V1427.3C2423.4 1433.2 2418.6 1438 2412.7 1438Z" fill="#7CABFF"/>
<path d="M2448.7 1437.3L2437.3 1429.7C2434.2 1427.6 2432.3 1424 2432.3 1420.1V1408.7C2432.3 1404.8 2434.2 1401.2 2437.3 1399.1L2448.7 1391.5C2451.4 1389.7 2454.9 1391.7 2454.9 1395.1V1433.8C2455 1437.1 2451.4 1439.1 2448.7 1437.3Z" fill="#7CABFF"/>
<path d="M3926.4 1788.7H1271.7" stroke="#A574D2" stroke-width="6" stroke-miterlimit="10" stroke-linecap="round"/>
<path d="M2126.4 1806.2V3040.8H2056.7V2805.8C2056.7 2783.9 2038.9 2766.1 2017 2766.1H1518.1C1496.2 2766.1 1478.4 2783.9 1478.4 2805.8V3040.8H1408.7V1806.2H2126.4Z" fill="white" stroke="#A574D2" stroke-width="6" stroke-miterlimit="10" stroke-linecap="round"/>
<path d="M2128.5 1806.2V2133.8L1408.7 2726.5L1408.8 1806.2H2128.5Z" fill="#F1E6FF"/>
<path d="M2056.7 1900.2V2124.1C2056.7 2144.9 2039.9 2161.7 2019.1 2161.7H1516.1C1495.3 2161.7 1478.5 2144.9 1478.5 2124.1V1900.2C1478.5 1879.4 1495.3 1862.6 1516.1 1862.6H2019.1C2039.9 1862.6 2056.7 1879.4 2056.7 1900.2Z" stroke="#A574D2" stroke-width="6" stroke-miterlimit="10" stroke-linecap="round"/>
<path d="M1895.5 2331.3H1647.9L1637.6 2260.4H1885.3L1895.5 2331.3Z" fill="#FBC580"/>
<path d="M2027.6 2219.5C1996.7 2219.5 1971.7 2244.5 1971.7 2275.4V2331.3H1761V2275.4C1761 2244.5 1786 2219.5 1816.9 2219.5H2027.6Z" fill="white" stroke="#A574D2" stroke-width="6" stroke-miterlimit="10" stroke-linecap="round"/>
<path d="M2080.1 2260.4H1869.4C1862.9 2236.8 1841.2 2219.5 1815.5 2219.5H2026.2C2051.9 2219.5 2073.5 2236.8 2080.1 2260.4Z" fill="white" stroke="#A574D2" stroke-width="6" stroke-miterlimit="10" stroke-linecap="round"/>
<path d="M2056.7 2368.9V2592.8C2056.7 2613.6 2039.9 2630.4 2019.1 2630.4H1516.1C1495.3 2630.4 1478.5 2613.6 1478.5 2592.8V2368.9C1478.5 2348.1 1495.3 2331.3 1516.1 2331.3H2019.1C2039.9 2331.3 2056.7 2348.1 2056.7 2368.9Z" stroke="#A574D2" stroke-width="6" stroke-miterlimit="10" stroke-linecap="round"/>
<path d="M1664.6 2007.7C1664.6 1989.9 1679 1975.4 1696.9 1975.4H1838.4C1856.2 1975.4 1870.7 1989.8 1870.7 2007.7" stroke="#A574D2" stroke-width="6" stroke-miterlimit="10" stroke-linecap="round"/>
<path d="M1664.6 2476.4C1664.6 2458.6 1679 2444.1 1696.9 2444.1H1838.4C1856.2 2444.1 1870.7 2458.5 1870.7 2476.4" stroke="#A574D2" stroke-width="6" stroke-miterlimit="10" stroke-linecap="round"/>
<path d="M3820.7 1806.2H3746.4V3043.5H3820.7V1806.2Z" fill="white" stroke="#A574D2" stroke-width="6" stroke-miterlimit="10" stroke-linecap="round"/>
<path d="M2558 3043.5H4108.6" stroke="#A574D2" stroke-width="6" stroke-miterlimit="10" stroke-linecap="round"/>
<path d="M1619.7 1619H1574.8C1574.8 1619 1510.7 1351.9 1454.4 1343.2C1398.1 1334.5 1395.2 1437.3 1395.2 1437.3C1395.2 1437.3 1396.2 1281 1536.9 1302.4C1677.7 1323.8 1619.7 1619 1619.7 1619Z" fill="white" stroke="#7CABFF" stroke-width="6" stroke-miterlimit="10" stroke-linecap="round"/>
<path d="M1465.9 1309.2C1465.9 1309.2 1594.2 1261.8 1600 1615" stroke="#7CABFF" stroke-width="6" stroke-miterlimit="10" stroke-linecap="round"/>
<path d="M1742 1615H1531.1V1786.7H1742V1615Z" fill="#FF7081"/>
<path d="M1786.4 1700.9C1773 1706.7 1757 1706 1742.1 1699.5C1731.1 1694.7 1720.7 1686.8 1712.3 1676C1700.7 1661 1692.9 1640.5 1692.9 1615C1692.9 1553.2 1643.7 1514.4 1623.5 1596.2C1622.1 1601.9 1620.8 1608.1 1619.7 1615V1614.8V1614.4C1619.7 1614.2 1619.7 1613.9 1619.8 1613.6V1613.2C1620.2 1608.1 1621.7 1593 1626.3 1574.8C1629.7 1561.3 1634.8 1546.3 1642.4 1532.4C1646.2 1525.5 1650.6 1518.9 1655.8 1513C1669.2 1497.6 1687.6 1486.8 1712.7 1486.8C1758.9 1486.8 1792.7 1541.2 1805.6 1595.4C1816.9 1642.5 1812.3 1689.6 1786.4 1700.9Z" fill="white" stroke="#7CABFF" stroke-width="6" stroke-miterlimit="10" stroke-linecap="round"/>
<path d="M1655.9 1513C1655.9 1513 1748.5 1447.1 1775.7 1702.8" stroke="#7CABFF" stroke-width="6" stroke-miterlimit="10" stroke-linecap="round"/>
<path d="M1392.2 1437.3C1392.2 1453.8 1390.3 1516.9 1450.5 1519.8C1510.7 1522.7 1516.7 1431.8 1516.7 1431.8C1516.7 1431.8 1487.1 1351.4 1454.4 1343.2C1399.1 1329.3 1392.2 1437.3 1392.2 1437.3Z" fill="#7CABFF"/>
<path d="M1692.9 1615H1619.7C1636.6 1509.1 1692.9 1548.9 1692.9 1615Z" fill="#7CABFF"/>
<path opacity="0.4" d="M2936 837.2V1497.3C2936 1532.8 2907.2 1561.5 2871.8 1561.5H2116.3C2068.9 1626.8 1971.2 1627.1 1923.4 1561.5L1923.3 1561.4C1904.3 1560.1 1887.5 1550.4 1876.7 1536.1L1894.1 1521.1L2338.1 1137.9L2760.9 773H2871.8C2907.2 773 2936 801.8 2936 837.2Z" fill="white"/>
<path opacity="0.4" d="M1786.4 1703.9C1773.1 1709.9 1757 1709 1742.1 1702.5V1786.7H1586.4L1712.4 1678L1742.2 1652.3L1764.9 1632.7L1808.8 1595.4C1821.6 1650 1814.5 1691 1786.4 1703.9Z" fill="white"/>
<path d="M966.9 867C965.7 867 964.5 866.2 964.1 865C963.6 863.4 964.4 861.7 965.9 861.2L975.3 857.9C976.9 857.4 978.6 858.2 979.1 859.7C979.6 861.3 978.8 863 977.3 863.5L967.9 866.8C967.5 866.9 967.2 867 966.9 867ZM990.5 858.8C989.3 858.8 988.1 858 987.7 856.8C987.2 855.2 988 853.5 989.5 853L998.9 849.7C1000.5 849.2 1002.2 850 1002.7 851.5C1003.2 853.1 1002.4 854.8 1000.9 855.3L991.5 858.6C991.2 858.7 990.8 858.8 990.5 858.8ZM1014.1 850.5C1012.9 850.5 1011.7 849.7 1011.3 848.5C1010.8 846.9 1011.6 845.2 1013.1 844.7L1022.5 841.4C1024.1 840.9 1025.8 841.7 1026.3 843.2C1026.8 844.8 1026 846.5 1024.5 847L1015.1 850.3C1014.8 850.5 1014.4 850.5 1014.1 850.5ZM1037.7 842.3C1036.5 842.3 1035.3 841.5 1034.9 840.3C1034.4 838.7 1035.2 837 1036.7 836.5L1046.1 833.2C1047.7 832.7 1049.4 833.5 1049.9 835C1050.4 836.6 1049.6 838.3 1048.1 838.8L1038.7 842.1C1038.4 842.3 1038.1 842.3 1037.7 842.3ZM1061.3 834.1C1060.1 834.1 1058.9 833.3 1058.5 832.1C1058 830.5 1058.8 828.8 1060.3 828.3L1069.7 825C1071.3 824.5 1073 825.3 1073.5 826.8C1074 828.4 1073.2 830.1 1071.7 830.6L1062.3 833.9C1062 834.1 1061.7 834.1 1061.3 834.1ZM1085 825.9C1083.8 825.9 1082.6 825.1 1082.2 823.9C1081.7 822.3 1082.5 820.6 1084 820.1L1093.4 816.8C1095 816.3 1096.7 817.1 1097.2 818.6C1097.7 820.2 1096.9 821.9 1095.4 822.4L1086 825.7C1085.6 825.9 1085.3 825.9 1085 825.9ZM1108.6 817.7C1107.4 817.7 1106.2 816.9 1105.8 815.7C1105.3 814.1 1106.1 812.4 1107.6 811.9L1117 808.6C1118.6 808.1 1120.3 808.9 1120.8 810.4C1121.3 812 1120.5 813.7 1119 814.2L1109.6 817.5C1109.2 817.6 1108.9 817.7 1108.6 817.7ZM1132.2 809.5C1131 809.5 1129.8 808.7 1129.4 807.5C1128.9 805.9 1129.7 804.2 1131.2 803.7L1140.6 800.4C1142.2 799.9 1143.9 800.7 1144.4 802.2C1144.9 803.8 1144.1 805.5 1142.6 806L1133.2 809.3C1132.8 809.4 1132.5 809.5 1132.2 809.5ZM1155.8 801.3C1154.6 801.3 1153.4 800.5 1153 799.3C1152.5 797.7 1153.3 796 1154.8 795.5L1164.2 792.2C1165.8 791.7 1167.5 792.5 1168 794C1168.5 795.6 1167.7 797.3 1166.2 797.8L1156.8 801.1C1156.5 801.2 1156.1 801.3 1155.8 801.3ZM1179.4 793.1C1178.2 793.1 1177 792.3 1176.6 791.1C1176.1 789.5 1176.9 787.8 1178.4 787.3L1187.8 784C1189.4 783.5 1191.1 784.3 1191.6 785.8C1192.1 787.4 1191.3 789.1 1189.8 789.6L1180.4 792.9C1180.1 793 1179.7 793.1 1179.4 793.1ZM1203 784.9C1201.8 784.9 1200.6 784.1 1200.2 782.9C1199.7 781.3 1200.5 779.6 1202 779.1L1211.4 775.8C1213 775.3 1214.7 776.1 1215.2 777.6C1215.7 779.2 1214.9 780.9 1213.4 781.4L1204 784.7C1203.7 784.8 1203.3 784.9 1203 784.9ZM1226.6 776.6C1225.4 776.6 1224.2 775.8 1223.8 774.6C1223.3 773 1224.1 771.3 1225.6 770.8L1235 767.5C1236.6 767 1238.3 767.8 1238.8 769.3C1239.3 770.9 1238.5 772.6 1237 773.1L1227.6 776.4C1227.3 776.6 1227 776.6 1226.6 776.6ZM1250.2 768.4C1249 768.4 1247.8 767.6 1247.4 766.4C1246.9 764.8 1247.7 763.1 1249.2 762.6L1258.6 759.3C1260.2 758.8 1261.9 759.6 1262.4 761.1C1262.9 762.7 1262.1 764.4 1260.6 764.9L1251.2 768.2C1250.9 768.4 1250.6 768.4 1250.2 768.4ZM1273.9 760.2C1272.7 760.2 1271.5 759.4 1271.1 758.2C1270.6 756.6 1271.4 754.9 1272.9 754.4L1282.3 751.1C1283.9 750.6 1285.6 751.4 1286.1 752.9C1286.6 754.5 1285.8 756.2 1284.3 756.7L1274.9 760C1274.5 760.2 1274.2 760.2 1273.9 760.2ZM1297.5 752C1296.3 752 1295.1 751.2 1294.7 750C1294.2 748.4 1295 746.7 1296.5 746.2L1305.9 742.9C1307.5 742.4 1309.2 743.2 1309.7 744.7C1310.2 746.3 1309.4 748 1307.9 748.5L1298.5 751.8C1298.1 752 1297.8 752 1297.5 752ZM1321.1 743.8C1319.9 743.8 1318.7 743 1318.3 741.8C1317.8 740.2 1318.6 738.5 1320.1 738L1329.5 734.7C1331.1 734.2 1332.8 735 1333.3 736.5C1333.8 738.1 1333 739.8 1331.5 740.3L1322.1 743.6C1321.7 743.8 1321.4 743.8 1321.1 743.8ZM1344.7 735.6C1343.5 735.6 1342.3 734.8 1341.9 733.6C1341.4 732 1342.2 730.3 1343.7 729.8L1353.1 726.5C1354.7 726 1356.4 726.8 1356.9 728.3C1357.4 729.9 1356.6 731.6 1355.1 732.1L1345.7 735.4C1345.4 735.5 1345 735.6 1344.7 735.6ZM1368.3 727.4C1367.1 727.4 1365.9 726.6 1365.5 725.4C1365 723.8 1365.8 722.1 1367.3 721.6L1376.7 718.3C1378.3 717.8 1380 718.6 1380.5 720.1C1381 721.7 1380.2 723.4 1378.7 723.9L1369.3 727.2C1369 727.3 1368.6 727.4 1368.3 727.4Z" fill="#7CABFF"/>
<path d="M1073.3 867C1071.6 867 1070.3 865.7 1070.3 864C1070.3 836.9 1061.9 817.2 1045.2 805.6C1032.7 796.9 1020 796.1 1019.9 796.1C1018.2 796 1017 794.6 1017.1 792.9C1017.2 791.2 1018.6 790 1020.2 790.1C1020.8 790.1 1034.5 790.9 1048.4 800.5C1071.5 816.5 1076.3 843.9 1076.3 864C1076.3 865.6 1075 867 1073.3 867Z" fill="#A574D2"/>
<path d="M1551.1 867H966.9C965.8 867 964.7 866.4 964.2 865.3C963.7 864.3 963.8 863.1 964.5 862.2L1201.9 545.7C1202.4 545 1203.2 544.6 1204 544.5C1204.8 544.4 1205.7 544.7 1206.3 545.3L1553.2 861.8C1554.1 862.6 1554.4 863.9 1554 865.1C1553.5 866.2 1552.4 867 1551.1 867ZM972.9 861H1543.4L1204.7 551.9L972.9 861Z" fill="#A574D2"/>
<path d="M914.4 887.8C900.1 887.8 888.5 876.2 888.5 861.9C888.5 847.6 900.1 836 914.4 836C928.7 836 940.3 847.6 940.3 861.9C940.3 876.2 928.7 887.8 914.4 887.8ZM914.4 841.9C903.4 841.9 894.5 850.8 894.5 861.8C894.5 872.8 903.4 881.7 914.4 881.7C925.4 881.7 934.3 872.8 934.3 861.8C934.3 850.8 925.4 841.9 914.4 841.9Z" fill="#7CABFF"/>
<path d="M940.3 861.9H934.3V884.8H940.3V861.9Z" fill="#7CABFF"/>
<path d="M1222 526C1207.7 526 1196.1 514.4 1196.1 500.1C1196.1 485.8 1207.7 474.2 1222 474.2C1236.3 474.2 1247.9 485.8 1247.9 500.1C1247.9 514.3 1236.3 526 1222 526ZM1222 480.1C1211 480.1 1202.1 489 1202.1 500C1202.1 511 1211 520 1222 520C1233 520 1241.9 511.1 1241.9 500.1C1241.9 489.1 1233 480.1 1222 480.1Z" fill="#7CABFF"/>
<path d="M1201.9 460H1195.9V522.9H1201.9V460Z" fill="#7CABFF"/>
<path d="M1597.8 887.2C1583.5 887.2 1571.9 875.6 1571.9 861.3C1571.9 847 1583.5 835.4 1597.8 835.4V841.4C1586.8 841.4 1577.9 850.3 1577.9 861.3C1577.9 872.3 1586.8 881.2 1597.8 881.2V887.2Z" fill="#7CABFF"/>
<path d="M3112.3 2148.2V2704.8H2983.7L2901.8 2476.1L2784.5 2148.2H3112.3Z" fill="#FFAFA7"/>
<path d="M2784.5 2148.2H3112.3V2326.9L2823.5 2257.1L2784.5 2148.2Z" fill="#FFAFA7"/>
<path d="M3112.3 2476.1V2704.8H2983.7L2901.8 2476.1C2901.8 2476.1 2968.1 2512.7 3112.3 2476.1Z" stroke="white" stroke-width="6" stroke-miterlimit="10" stroke-linecap="round"/>
<path d="M2968.7 2529.8C2976.76 2529.8 2983.3 2523.26 2983.3 2515.2C2983.3 2507.14 2976.76 2500.6 2968.7 2500.6C2960.64 2500.6 2954.1 2507.14 2954.1 2515.2C2954.1 2523.26 2960.64 2529.8 2968.7 2529.8Z" stroke="white" stroke-width="6" stroke-miterlimit="10" stroke-linecap="round"/>
<path d="M3038.3 2576.9C3046.36 2576.9 3052.9 2570.36 3052.9 2562.3C3052.9 2554.24 3046.36 2547.7 3038.3 2547.7C3030.24 2547.7 3023.7 2554.24 3023.7 2562.3C3023.7 2570.36 3030.24 2576.9 3038.3 2576.9Z" stroke="white" stroke-width="6" stroke-miterlimit="10" stroke-linecap="round"/>
<path d="M3090.1 2524.6C3098.16 2524.6 3104.7 2518.06 3104.7 2510C3104.7 2501.94 3098.16 2495.4 3090.1 2495.4C3082.04 2495.4 3075.5 2501.94 3075.5 2510C3075.5 2518.06 3082.04 2524.6 3090.1 2524.6Z" stroke="white" stroke-width="6" stroke-miterlimit="10" stroke-linecap="round"/>
<path d="M3069.6 2631.7C3077.66 2631.7 3084.2 2625.16 3084.2 2617.1C3084.2 2609.04 3077.66 2602.5 3069.6 2602.5C3061.54 2602.5 3055 2609.04 3055 2617.1C3055 2625.16 3061.54 2631.7 3069.6 2631.7Z" stroke="white" stroke-width="6" stroke-miterlimit="10" stroke-linecap="round"/>
<path d="M2983.3 2605.1C2991.36 2605.1 2997.9 2598.56 2997.9 2590.5C2997.9 2582.44 2991.36 2575.9 2983.3 2575.9C2975.24 2575.9 2968.7 2582.44 2968.7 2590.5C2968.7 2598.56 2975.24 2605.1 2983.3 2605.1Z" stroke="white" stroke-width="6" stroke-miterlimit="10" stroke-linecap="round"/>
<path d="M3007.1 2685.1C3015.16 2685.1 3021.7 2678.56 3021.7 2670.5C3021.7 2662.44 3015.16 2655.9 3007.1 2655.9C2999.04 2655.9 2992.5 2662.44 2992.5 2670.5C2992.5 2678.56 2999.04 2685.1 3007.1 2685.1Z" stroke="white" stroke-width="6" stroke-miterlimit="10" stroke-linecap="round"/>
<path d="M3173.1 2808.6L3084.9 2991.7C3072.4 3021.2 3043.5 3040.4 3011.4 3040.4H2898.9C2870.1 3040.4 2852.6 3011.2 2863.6 2984.6L2976.7 2711.8C2983 2695.2 2994.1 2681.4 3008 2671.7C3022 2662 3038.8 2656.5 3056.5 2656.5C3081.1 2656.5 3105.5 2673.2 3121.7 2691.7L3160.9 2734C3179 2754.6 3183.7 2783.5 3173.1 2808.6Z" fill="#A574D2"/>
<path d="M3173.1 2808.6L3084.9 2991.7C3072.4 3021.2 3043.5 3040.4 3011.4 3040.4H2891.8C2880.7 3040.4 2874.4 3033.5 2870.7 3024H2897.3C2929.4 3024 2958.3 3004.8 2970.8 2975.3L3072.5 2763.2C3082 2743.4 3102.1 2730.7 3124.1 2730.7C3152.8 2730.7 3174.6 2751.7 3178.6 2778.3C3179 2788.5 3177.2 2798.8 3173.1 2808.6Z" fill="white" stroke="#A574D2" stroke-width="6" stroke-miterlimit="10" stroke-linejoin="round"/>
<path d="M3152.8 2725.2C3142.2 2719.4 3129.4 2715.2 3118.2 2715.2C3096.7 2715.2 3076.8 2727.7 3067.5 2747.1L2962.2 2966.7C2948.8 2998.4 2917.8 3018.9 2883.3 3018.9H2863.9C2862.9 3017 2862.2 3015 2861.5 3012.9H2883.3C2915.4 3012.9 2944.2 2993.8 2956.7 2964.3L2956.8 2964.2L3062.2 2744.5C3072.5 2723 3094.5 2709.2 3118.3 2709.2C3125.9 2709.2 3135 2711.7 3142.8 2714.4L3152.8 2725.2Z" fill="white"/>
<path d="M2784.5 2148.2L2759.4 2476.1L2748.2 2623C2748.2 2623 2675.1 2704.4 2591.9 2654.2L2553.4 2476.2L2465.3 2068.9C2441.5 1958.8 2516.7 1851.7 2628.4 1836.8L2784.5 2148.2Z" fill="#FFAFA7"/>
<path d="M2759.4 2476.1L2748.2 2627C2748.2 2627 2675.1 2708.4 2591.9 2658.2L2553.4 2476.2C2650.1 2505.2 2759.4 2476.1 2759.4 2476.1Z" stroke="white" stroke-width="6" stroke-miterlimit="10" stroke-linecap="round"/>
<path d="M2644.5 2566.8C2652.56 2566.8 2659.1 2560.26 2659.1 2552.2C2659.1 2544.14 2652.56 2537.6 2644.5 2537.6C2636.44 2537.6 2629.9 2544.14 2629.9 2552.2C2629.9 2560.26 2636.44 2566.8 2644.5 2566.8Z" stroke="white" stroke-width="6" stroke-miterlimit="10" stroke-linecap="round"/>
<path d="M2737.3 2544.4C2745.36 2544.4 2751.9 2537.86 2751.9 2529.8C2751.9 2521.74 2745.36 2515.2 2737.3 2515.2C2729.24 2515.2 2722.7 2521.74 2722.7 2529.8C2722.7 2537.86 2729.24 2544.4 2737.3 2544.4Z" stroke="white" stroke-width="6" stroke-miterlimit="10" stroke-linecap="round"/>
<path d="M2588.5 2524.6C2596.56 2524.6 2603.1 2518.06 2603.1 2510C2603.1 2501.94 2596.56 2495.4 2588.5 2495.4C2580.44 2495.4 2573.9 2501.94 2573.9 2510C2573.9 2518.06 2580.44 2524.6 2588.5 2524.6Z" stroke="white" stroke-width="6" stroke-miterlimit="10" stroke-linecap="round"/>
<path d="M2629.9 2646.3C2637.96 2646.3 2644.5 2639.76 2644.5 2631.7C2644.5 2623.64 2637.96 2617.1 2629.9 2617.1C2621.84 2617.1 2615.3 2623.64 2615.3 2631.7C2615.3 2639.76 2621.84 2646.3 2629.9 2646.3Z" stroke="white" stroke-width="6" stroke-miterlimit="10" stroke-linecap="round"/>
<path d="M2698 2617.1C2706.06 2617.1 2712.6 2610.56 2712.6 2602.5C2712.6 2594.44 2706.06 2587.9 2698 2587.9C2689.94 2587.9 2683.4 2594.44 2683.4 2602.5C2683.4 2610.56 2689.94 2617.1 2698 2617.1Z" stroke="white" stroke-width="6" stroke-miterlimit="10" stroke-linecap="round"/>
<path d="M2844.6 2658L2748.2 3043.5H2717.8C2716.4 3043.5 2715.1 3043.4 2713.7 3043.3C2690.7 3041.2 2671.3 3021.8 2666.4 2998.9L2591.8 2654C2675 2704.3 2748.2 2622.9 2748.2 2622.9L2844.6 2658Z" fill="#A574D2"/>
<path d="M2849.5 2855.8C2869.8 2748.6 2875.4 2666.7 2840.4 2660.1C2805.4 2653.5 2743.1 2724.6 2722.8 2831.8C2702.5 2939 2713.1 3033.8 2748.1 3040.4C2783.1 3047.1 2829.2 2963.1 2849.5 2855.8Z" fill="white" stroke="#A574D2" stroke-width="6" stroke-miterlimit="10" stroke-linejoin="round"/>
<path d="M2708.8 2830.1C2698.3 2885.7 2695.2 2939.4 2700.2 2981.4C2703.8 3011.6 2711.4 3033.1 2721.8 3043.5H2717.8C2716.4 3043.5 2715.1 3043.4 2713.7 3043.3C2704.3 3030.9 2697.6 3010.1 2694.2 2982.1C2689.1 2939.6 2692.2 2885.2 2702.9 2829C2713 2775.8 2733.4 2725.9 2760.5 2688.4C2776.7 2666 2793.7 2650.3 2809.2 2643.2L2818.2 2646.2C2782.5 2656.8 2728.3 2727.2 2708.8 2830.1Z" fill="white"/>
<path d="M2628.4 1836.7L3084.6 1789.7L3540.6 1917.6L3536.7 1978.2C3530.5 2073.8 3448.1 2148.2 3352.3 2148.2H2784.6L2628.4 1836.7Z" fill="#FF7081"/>
<path d="M3514.6 1913.2C3514.6 2000 3428 2106.2 3332.2 2106.2H2764.5" stroke="white" stroke-width="6" stroke-miterlimit="10" stroke-linecap="round" stroke-linejoin="round"/>
<path d="M3460.5 1895.9C3446.3 1973.4 3370.5 2056.2 3287.5 2056.2H2741.5" stroke="white" stroke-width="6" stroke-miterlimit="10" stroke-linecap="round" stroke-linejoin="round"/>
<path d="M3399 1877.5C3375 1943.3 3309.9 2005.2 3239.4 2005.2H2712.5" stroke="white" stroke-width="6" stroke-miterlimit="10" stroke-linecap="round" stroke-linejoin="round"/>
<path d="M3351.7 1864.6C3320.2 1912.5 3268.5 1950.2 3213.4 1950.2H2686.5" stroke="white" stroke-width="6" stroke-miterlimit="10" stroke-linecap="round" stroke-linejoin="round"/>
<path d="M3298.9 1849.8C3268.6 1880.3 3229.4 1900.2 3188.4 1900.2H2661.5" stroke="white" stroke-width="6" stroke-miterlimit="10" stroke-linecap="round" stroke-linejoin="round"/>
<path d="M3230.2 1829.9C3208.8 1842 3185.4 1849.2 3161.4 1849.2H2634.5" stroke="white" stroke-width="6" stroke-miterlimit="10" stroke-linecap="round" stroke-linejoin="round"/>
<path d="M2783.5 2148.2L2627.4 1836.7" stroke="white" stroke-width="6" stroke-miterlimit="10" stroke-linecap="round" stroke-linejoin="round"/>
<path d="M3565.6 1500.2C3522.6 1512.4 3480.3 1508.8 3475.8 1495.7C3471.6 1483.2 3490.6 1461.8 3529.1 1447.6C3531 1446.9 3533 1446.2 3535 1445.5C3546.6 1441.6 3558.2 1439.1 3569.1 1437.8C3601.4 1433.7 3627.7 1439.5 3631 1449.3C3635.5 1462.4 3611.1 1487.3 3565.6 1500.2Z" fill="white" stroke="#A574D2" stroke-width="6" stroke-miterlimit="10" stroke-linejoin="round"/>
<path d="M3538.4 1791.8H3521.9L3478.6 1499.5V1499.3L3477.5 1492C3479.6 1478.7 3500.4 1459.9 3537.1 1447.7C3555.4 1441.6 3573.6 1438.9 3589.1 1438.6L3604.9 1481.9L3606.4 1486L3656.4 1623.1C3686.4 1705 3625.7 1791.8 3538.4 1791.8Z" fill="#FFAFA7"/>
<path d="M3605.9 1485C3595.4 1491.6 3581.8 1497.7 3565.6 1502.3C3528.4 1512.8 3490.7 1508.5 3478.6 1499.5V1499.3L3477.5 1492C3479.6 1478.7 3500.4 1459.9 3537.1 1447.7C3555.4 1441.6 3573.6 1438.9 3589.1 1438.6L3605.9 1485Z" fill="#FFAFA7"/>
<path d="M3002.8 1551.3L2950.3 1681.9C2924.4 1746.4 2861.8 1788.7 2792.2 1788.7H2086.5V1724.1C2086.5 1708.5 2096.1 1694.5 2110.7 1689L2183.2 1661.5C2189.8 1659 2196.7 1657.7 2203.7 1657.7H2286L2751.8 1610.7L2832.2 1426.6L3002.8 1551.3Z" fill="#FFAFA7"/>
<path d="M2162.5 1701.2L2107.8 1721.9C2096.8 1726.1 2089.5 1736.6 2089.5 1748.4" stroke="#FFAFA7" stroke-width="6" stroke-miterlimit="10" stroke-linecap="round"/>
<path d="M2162.5 1734.2L2107.8 1754.9C2096.8 1759.1 2089.5 1769.6 2089.5 1781.4" stroke="#FFAFA7" stroke-width="6" stroke-miterlimit="10" stroke-linecap="round"/>
<path d="M2162.5 1766L2107.8 1785.7" stroke="#FFAFA7" stroke-width="6" stroke-miterlimit="10" stroke-linecap="round"/>
<path d="M2156.8 1672.6C2156.8 1672.6 2208 1541.9 2224.4 1544.1C2240.8 1546.3 2179 1664.2 2179 1664.2L2156.8 1672.6Z" fill="#FF7081"/>
<path d="M2832.2 1426.7L2820.4 1453.6L2971.5 1629.1L3002.8 1551.3L2832.2 1426.7Z" fill="#FFAFA7"/>
<path d="M3478.6 1499.6L3540.6 1917.6L3084.7 1789.7L3002.8 1551.2L2791.4 1396.7L2865.6 1308.3C2931.8 1229.4 3029.5 1183.8 3132.5 1183.8H3279C3406.4 1183.8 3523.7 1253.4 3584.8 1365.2L3632.3 1447.4C3632.3 1447.4 3618 1426.4 3540.9 1447.5C3473 1466.2 3478.6 1499.6 3478.6 1499.6Z" fill="#A574D2"/>
<path d="M3002.8 1549.3L3026.5 1446.5" stroke="white" stroke-width="6" stroke-miterlimit="10" stroke-linecap="round" stroke-linejoin="round"/>
<path d="M3529.1 1820L3452 1340.7" stroke="white" stroke-width="6" stroke-miterlimit="10" stroke-linecap="round" stroke-linejoin="round"/>
<path d="M3084.6 1787.8L3539.6 1917.6" stroke="white" stroke-width="6" stroke-miterlimit="10" stroke-linecap="round" stroke-linejoin="round"/>
<path d="M3109.2 1117V1184.2L3227.8 1183.2V1064.6L3109.2 1117Z" fill="#FFAFA7"/>
<path d="M3237.4 1043.9V1045.7C3237.4 1063.7 3223.8 1078.3 3205.8 1078.3H3198.8C3194.3 1096.1 3154.3 1116.9 3125.9 1116.9H3092.8C3056.6 1116.9 3028.9 1084.4 3034.8 1048.6L3036.4 1038.9L3026.6 1033.4C3021 1030.2 3019.4 1022.9 3023.3 1017.7L3044.5 989.7L3049.1 962.1C3052.8 939.4 3067.7 920.9 3087.5 911.8C3095.3 999.7 3172.9 1010.1 3193.4 1011.3H3204.8C3222.8 1011.3 3237.4 1025.9 3237.4 1043.9Z" fill="#FFAFA7"/>
<path d="M3184.9 1052.5C3184.9 1038.3 3196.4 1026.8 3210.6 1026.8" stroke="black" stroke-width="6" stroke-miterlimit="10" stroke-linecap="round"/>
<path d="M3076.5 1012.2C3079.32 1012.2 3081.6 1006.92 3081.6 1000.4C3081.6 993.883 3079.32 988.6 3076.5 988.6C3073.68 988.6 3071.4 993.883 3071.4 1000.4C3071.4 1006.92 3073.68 1012.2 3076.5 1012.2Z" fill="black"/>
<path d="M3068.7 963.9C3068.7 963.9 3082.8 962.5 3097.3 982.5" stroke="black" stroke-width="6" stroke-miterlimit="10" stroke-linecap="round"/>
<path d="M3193.4 1011.3H3204.8C3222.8 1011.3 3237.4 1025.9 3237.4 1043.9V1045.7C3237.4 1063.7 3223.8 1078.3 3205.8 1078.3L3198.1 1083.7C3165.7 1104.5 3120.9 1186.3 3131.9 1244.2C3144.3 1309.3 3201 1323.8 3253.4 1313.8C3305.8 1303.8 3344 1273.3 3331.6 1208.1C3330.2 1200.4 3327.9 1192.7 3325 1185.1C3325.9 1185.4 3326.7 1185.7 3327.6 1186C3390.6 1203.2 3464.6 1205.2 3485 1156C3505.4 1106.8 3500.8 1058.1 3439.5 1032.7C3403.9 1017.9 3355.5 1018 3318 1028.2C3336.9 962.5 3303.3 889.4 3241.6 882.1C3144.7 870.6 3089.1 910.6 3087.6 911.7C3087.5 923.3 3095.4 1005.6 3193.4 1011.3Z" fill="black"/>
<path d="M3320.5 1025.9C3312.6 1051.6 3296.3 1079.1 3269.8 1097.8C3269.8 1097.8 3316.6 1128.7 3327.6 1186.1" stroke="white" stroke-width="6" stroke-miterlimit="10" stroke-linecap="round" stroke-linejoin="round"/>
<path d="M3347.7 1023.7H3321.2V997.2C3321.2 983.3 3332.4 972.1 3346.3 972.1H3347.7C3361.6 972.1 3372.8 983.3 3372.8 997.2V998.6C3372.9 1012.4 3361.6 1023.7 3347.7 1023.7Z" stroke="#FF7081" stroke-width="6" stroke-miterlimit="10" stroke-linejoin="round"/>
<path d="M3338 1050.9L3321 1023.9L3348 1006.9C3361.5 998.4 3379.4 1002.4 3387.9 1015.9L3389.5 1018.4C3398 1031.9 3394 1049.8 3380.5 1058.3L3378 1059.9C3364.3 1068.4 3346.5 1064.4 3338 1050.9Z" stroke="#FF7081" stroke-width="6" stroke-miterlimit="10" stroke-linejoin="round"/>
<path d="M3181.4 1099.1L3200.3 1081L3218.8 1101.9C3227.9 1112.4 3226.7 1128.3 3216.2 1137.3L3215.1 1138.2C3204.6 1147.3 3188.7 1146.1 3179.7 1135.6L3178.8 1134.5C3169.7 1124.1 3170.9 1108.2 3181.4 1099.1Z" stroke="#FF7081" stroke-width="6" stroke-miterlimit="10" stroke-linejoin="round"/>
<path d="M3209 1112.1L3200.5 1081.4L3231.2 1072.9C3246.6 1068.6 3262.5 1077.6 3266.8 1093L3267.6 1095.9C3271.9 1111.3 3262.9 1127.2 3247.5 1131.5L3244.6 1132.3C3229.2 1136.5 3213.3 1127.4 3209 1112.1Z" stroke="#FF7081" stroke-width="6" stroke-miterlimit="10" stroke-linejoin="round"/>
<path d="M2936.1 2225.1L2761.9 3040.4" stroke="#FBC580" stroke-width="6" stroke-miterlimit="10" stroke-linecap="round"/>
<path d="M3381.9 2225.1L3556.1 3040.4" stroke="#FBC580" stroke-width="6" stroke-miterlimit="10" stroke-linecap="round"/>
<path d="M2800.5 2859.4H3515.1" stroke="#FBC580" stroke-width="6" stroke-miterlimit="10" stroke-linecap="round"/>
<path d="M3519 2225.1H2798.9C2789.8 2225.1 2782.4 2217.7 2782.4 2208.6V2164.7C2782.4 2155.6 2789.8 2148.2 2798.9 2148.2H3519C3528.1 2148.2 3535.5 2155.6 3535.5 2164.7V2208.6C3535.5 2217.7 3528.1 2225.1 3519 2225.1Z" fill="white" stroke="#7CABFF" stroke-width="6" stroke-miterlimit="10" stroke-linejoin="round"/>
</svg>
