<svg width="5000" height="3500" viewBox="0 0 5000 3500" fill="none" xmlns="http://www.w3.org/2000/svg">
<path d="M4042.9 2605V2934.9H3546.6L3643.3 2428.3C3640.2 2448.3 3702.1 2485.8 3786.8 2523.4C3817.2 2536.9 3851.1 2550.3 3887.3 2563C3945.7 2583.6 3999.5 2597.6 4042.9 2605C4042.8 2605 4042.9 2605 4042.9 2605Z" fill="#6F35A5"/>
<path d="M4042.9 2505.8V2594.1C3999.5 2586.7 3945.8 2572.8 3887.2 2552.2C3749.1 2503.7 3642.8 2443.8 3648.8 2416.9C3648.9 2416.5 3649 2416.1 3649.1 2415.8C3658.4 2389.5 3780.7 2407.7 3920.7 2456.8C3965.7 2472.6 4006.3 2488.9 4040.4 2504.6C4041.2 2505 4042 2505.4 4042.9 2505.8Z" fill="#FBC580"/>
<path d="M3974.8 1741.4C3926.4 1741.4 3887.2 1780.6 3887.2 1828.9V2068.7C3887.2 2117 3848 2156.2 3799.7 2156.2H3448.9C3497.3 2156.2 3536.4 2117 3536.4 2068.7V1828.9C3536.4 1780.5 3575.6 1741.4 3623.9 1741.4H3974.8Z" fill="white" stroke="#FBC580" stroke-width="5" stroke-miterlimit="10"/>
<path d="M3821.4 1865.5H3598V2072.8H3821.4V1865.5Z" fill="white" stroke="#FBC580" stroke-width="5" stroke-miterlimit="10"/>
<path d="M3821.3 1895.1H3598" stroke="#FBC580" stroke-width="5" stroke-miterlimit="10"/>
<path d="M3821.3 1924.7H3598" stroke="#FBC580" stroke-width="5" stroke-miterlimit="10"/>
<path d="M3821.3 1954.4H3598" stroke="#FBC580" stroke-width="5" stroke-miterlimit="10"/>
<path d="M3821.3 1984H3598" stroke="#FBC580" stroke-width="5" stroke-miterlimit="10"/>
<path d="M3821.3 2013.7H3598" stroke="#FBC580" stroke-width="5" stroke-miterlimit="10"/>
<path d="M3821.3 2043.3H3598" stroke="#FBC580" stroke-width="5" stroke-miterlimit="10"/>
<path d="M3887.2 1828.9C3887.2 1780.8 3926 1741.8 3973.9 1741.4C4021.9 1741.8 4060.6 1780.8 4060.6 1828.9H3887.2Z" fill="#66B0F0" stroke="#FBC580" stroke-width="5" stroke-miterlimit="10"/>
<path d="M3800.1 2158.4C3800 2158.4 3799.8 2158.4 3799.7 2158.4H3450.2C3450 2158.4 3449.8 2158.4 3449.6 2158.4C3413.7 2157.9 3383 2135.7 3370 2104.3H3720.2C3733.3 2135.7 3764 2157.9 3800.1 2158.4Z" fill="#FBC580"/>
<path d="M3612.6 1841.7H3572.2V1809.3H3591.2V1827.3C3591.2 1827.7 3591.4 1828 3591.6 1828.1L3591.7 1828.2L3612.6 1841.7Z" fill="#FF7081"/>
<path d="M3628.3 1820.5V1824.8C3628.3 1825.6 3628.2 1826.4 3628.2 1827.2C3628.2 1827.4 3628.1 1827.7 3628.1 1827.9C3628 1828.3 3628 1828.7 3627.9 1829.1C3626.8 1834.6 3623.5 1839.1 3619.4 1840.8C3619.1 1840.9 3618.8 1841 3618.5 1841.1C3618 1841.3 3617.4 1841.4 3616.9 1841.5C3616.7 1841.5 3616.5 1841.6 3616.3 1841.6L3593.4 1826.7C3593.6 1823.2 3595.8 1820.4 3598.4 1820.4H3628.3V1820.5Z" fill="#FF7081"/>
<path d="M3851.4 1809.3V1841.7H3811L3831.8 1828.2L3831.9 1828.1C3832 1828 3832 1828 3832.1 1828C3832.1 1827.9 3832.2 1827.9 3832.2 1827.8C3832.2 1827.8 3832.2 1827.7 3832.3 1827.7C3832.3 1827.6 3832.3 1827.6 3832.4 1827.6C3832.4 1827.6 3832.4 1827.6 3832.4 1827.5C3832.4 1827.4 3832.4 1827.4 3832.4 1827.3V1809.3H3851.4Z" fill="#FF7081"/>
<path d="M3830.4 1826.8L3807.5 1841.7C3806.9 1841.6 3806.3 1841.5 3805.7 1841.4C3805.5 1841.3 3805.3 1841.3 3805.1 1841.2C3804.8 1841.1 3804.6 1841 3804.3 1840.9C3804.1 1840.8 3803.8 1840.7 3803.6 1840.6C3800.5 1838.9 3797.9 1835.6 3796.6 1831.5C3796.4 1830.9 3796.2 1830.3 3796.1 1829.7C3796 1829.5 3796 1829.2 3795.9 1828.9C3795.7 1827.6 3795.5 1826.3 3795.5 1824.9V1820.6H3825.5C3828 1820.5 3830.2 1823.3 3830.4 1826.8Z" fill="#FF7081"/>
<path d="M3830.4 1792.9V1821.1C3830.2 1820.9 3830 1820.6 3829.8 1820.4C3829.4 1820 3829 1819.7 3828.6 1819.4C3827.6 1818.8 3826.5 1818.4 3825.4 1818.4H3598.3C3597.1 1818.4 3596 1818.8 3595.1 1819.4C3594.7 1819.7 3594.3 1820 3593.9 1820.4C3593.7 1820.6 3593.5 1820.8 3593.3 1821.1V1792.9C3593.3 1789.1 3595.5 1786.1 3598.3 1786.1H3825.4C3828.1 1786.1 3830.4 1789.2 3830.4 1792.9Z" fill="#FF7081"/>
<path d="M4042.9 2202.1V2594.1H4042.8C3999.4 2586.7 3945.7 2572.8 3887.1 2552.2C3850.9 2539.5 3817 2526 3786.6 2512.6L3802.9 2421.6L3830.6 2267.1C3743.7 2239.9 3729.6 2156.3 3729.6 2156.3H3799.5C3847.9 2156.3 3887 2117.1 3887 2068.8V2040H3842.1C3810.6 2040 3785 2009 3785 1977.5V1967.3H3884.8C3903.3 1967.3 3920.7 1976 3931.8 1990.8L4004.8 2088.3C4029.6 2121.1 4042.9 2161 4042.9 2202.1Z" fill="#FFAFA7"/>
<path d="M4042.9 2505.8V2594.1H4042.8C3999.4 2586.7 3945.7 2572.8 3887.1 2552.2C3850.9 2539.5 3817 2526 3786.6 2512.6L3802.9 2421.6C3838.9 2430.4 3878.9 2442.3 3920.5 2456.9C3965.5 2472.7 4006.1 2489 4040.1 2504.7C4041.2 2505 4042 2505.4 4042.9 2505.8Z" fill="#FFAFA7"/>
<path d="M3891.6 2040H3843.4C3811.9 2040 3786.3 2009 3786.3 1977.5V1967.3H3891.6V2040Z" fill="#FFAFA7"/>
<path d="M3861.3 2137.4C3861.3 2137.4 3930.8 2163.5 3937.1 2253.2" stroke="#FFAFA7" stroke-width="5" stroke-miterlimit="10"/>
<path d="M3830.8 2269.2H3878.1" stroke="#FFAFA7" stroke-width="5" stroke-miterlimit="10"/>
<path d="M3786.7 1148L3818.4 1127C3859.7 1099.7 3915 1126.7 3918.9 1176L3925.8 1263.3C3929.6 1311.2 3982.3 1338.5 4023.6 1314L4043.6 1302.1" stroke="#FBC580" stroke-width="6" stroke-miterlimit="10"/>
<path d="M3326 823.7L3733.3 1060.1L3938.4 1520.6L3703.1 1362.1L3447.4 1062.5L3326 823.7Z" fill="#6F35A5"/>
<path d="M3327.1 807.8L3743 1049.3L3952.5 1519.5" stroke="#FBC580" stroke-width="6" stroke-miterlimit="10"/>
<path d="M3698.85 1372.27C3717.88 1356.2 3675.11 1274.24 3603.32 1189.21C3531.53 1104.18 3457.9 1048.27 3438.87 1064.34C3419.84 1080.41 3462.61 1162.37 3534.4 1247.4C3606.19 1332.43 3679.82 1388.34 3698.85 1372.27Z" fill="white"/>
<path d="M3687.28 1377.19C3705.93 1361.44 3663.98 1281.07 3593.58 1197.69C3523.18 1114.3 3450.99 1059.47 3432.34 1075.21C3413.69 1090.96 3455.64 1171.33 3526.04 1254.71C3596.44 1338.1 3668.63 1392.93 3687.28 1377.19Z" fill="white" stroke="#FBC580" stroke-width="5" stroke-miterlimit="10"/>
<path d="M3736.9 1339.9L3698.1 1372.6C3705.3 1366.5 3703.7 1351.1 3695 1329.6C3680.7 1294.2 3647.2 1242.5 3602.6 1189.5C3557.9 1136.6 3512.5 1094.9 3480 1074.9C3460.3 1062.7 3445.3 1058.5 3438.1 1064.6L3476.9 1031.9C3495.9 1015.8 3572.9 1068.4 3644.7 1153.5C3716.5 1238.6 3756 1323.9 3736.9 1339.9Z" fill="#FBC580"/>
<path d="M4151.4 1214.8C4162.4 1209.5 4173.1 1204.8 4183.4 1200.9C4189.5 1207.3 4194.8 1214.8 4198.9 1223.2C4203 1231.6 4205.6 1240.4 4206.8 1249.1C4197.3 1254.7 4187 1260.3 4176.1 1265.6C4121.4 1292.1 4071.6 1302.2 4064.8 1288.2C4057.9 1274.1 4096.7 1241.3 4151.4 1214.8Z" fill="#FBC580"/>
<path d="M4054.8 1307.2C4061.48 1307.2 4066.9 1301.78 4066.9 1295.1C4066.9 1288.42 4061.48 1283 4054.8 1283C4048.12 1283 4042.7 1288.42 4042.7 1295.1C4042.7 1301.78 4048.12 1307.2 4054.8 1307.2Z" stroke="#6F35A5" stroke-width="6" stroke-miterlimit="10"/>
<path d="M3340.7 2511.5V2934.9H2858.4L2920.2 2475.1C2920.2 2493.7 3014.3 2516.9 3130.4 2526.9C3246.5 2537 3340.7 2530.1 3340.7 2511.5Z" fill="#7CABFF"/>
<path d="M3338.5 2500.6C3338.5 2519.2 3245.2 2526.1 3130.2 2516C3015.2 2505.9 2921.9 2482.7 2921.9 2464.2C2921.9 2445.6 3015.2 2438.7 3130.2 2448.8C3245.3 2458.8 3338.5 2482 3338.5 2500.6Z" fill="#3FB1B5"/>
<path d="M3405.4 1562L3434.6 1580.9C3463.8 1603.5 3423.4 1704.5 3344.4 1806.3C3265.4 1908.2 3177.7 1972.4 3148.5 1949.8L3134.1 1936.2" stroke="#7CABFF" stroke-width="6" stroke-miterlimit="10"/>
<path d="M2999.9 2036.4L3331.4 1733L3447.3 1380.1L3093.5 1701.6L2999.9 2036.4Z" fill="#7CABFF"/>
<path d="M2983 2073.2L3343.8 1743L3461.5 1384.5" stroke="#FF7081" stroke-width="6" stroke-miterlimit="10" stroke-linecap="round"/>
<path d="M3173.8 1732L2859 2033.1C2843.7 2047.7 2818.7 2033.9 2823 2013.1L2831.8 1970.4C2835.8 1951.1 2813.9 1937 2798 1948.6L2694 2024.3" stroke="#FF7081" stroke-width="6" stroke-miterlimit="10"/>
<path d="M2609.3 2132.1C2600 2139.9 2590.7 2147.1 2581.7 2153.4C2574.2 2148.7 2567.3 2142.8 2561.2 2135.6C2555.2 2128.4 2550.5 2120.6 2547.2 2112.4C2555 2104.6 2563.6 2096.7 2572.9 2088.8C2619.4 2049.7 2665.2 2027.6 2675.3 2039.6C2685.3 2051.6 2655.8 2093 2609.3 2132.1Z" fill="#FBC580"/>
<path d="M2684.3 2043.7C2690.98 2043.7 2696.4 2038.28 2696.4 2031.6C2696.4 2024.92 2690.98 2019.5 2684.3 2019.5C2677.62 2019.5 2672.2 2024.92 2672.2 2031.6C2672.2 2038.28 2677.62 2043.7 2684.3 2043.7Z" stroke="#FF7081" stroke-width="6" stroke-miterlimit="10"/>
<path d="M3188.7 2192.8V2519.8C3170.2 2519 3150.5 2517.8 3130.2 2516C3055.3 2509.5 2989.7 2497.3 2953 2484.5L2958.5 2448.3L2976.9 2326.8H2953.1C2919.2 2326.8 2891.8 2299.4 2891.8 2265.5V2145.1C2891.8 2121.3 2900.4 2098.4 2916.1 2080.5L2994.4 1991C2999.5 1985.2 3009.1 1988.8 3009.1 1996.5V2118.2C3009.1 2132.8 3003.9 2146.9 2994.4 2158L2987.4 2166.2H3072.4C3084.7 2166.2 3091.9 2152.5 3085 2142.3C3074.5 2127 3060.7 2105.2 3047.6 2080C3021.5 2030.1 3066.8 2002.2 3066.8 2002.2L3170.5 2136.7C3182.3 2153 3188.7 2172.7 3188.7 2192.8Z" fill="#FBC580"/>
<path d="M3009.1 1990V2118.2C3009.1 2132.8 3003.9 2146.9 2994.4 2158L2987.4 2166.2" stroke="white" stroke-width="5" stroke-miterlimit="10" stroke-linecap="round"/>
<path d="M2987.4 2166.1L2931.2 2229.2" stroke="white" stroke-width="5" stroke-miterlimit="10" stroke-linecap="round"/>
<path d="M3009.1 2062.5C3009.1 2077.1 3003.9 2091.2 2994.4 2102.3L2987.4 2110.5L2931.3 2173.5" stroke="white" stroke-width="5" stroke-miterlimit="10" stroke-linecap="round"/>
<path d="M3009.1 2006.9C3009.1 2021.5 3003.9 2035.6 2994.4 2046.7L2987.4 2054.9L2931.3 2117.9" stroke="white" stroke-width="5" stroke-miterlimit="10" stroke-linecap="round"/>
<path d="M2976.9 2330.1H3020" stroke="white" stroke-width="5" stroke-miterlimit="10" stroke-linecap="round"/>
<path d="M3188.7 2455.2V2519.8C3170.2 2519 3150.5 2517.8 3130.2 2516C3055.3 2509.5 2989.7 2497.3 2953 2484.5L2958.5 2448.3C2996.1 2442.8 3059 2442.5 3130.3 2448.7C3150.5 2450.6 3170.1 2452.7 3188.7 2455.2Z" fill="#FF7081"/>
<path d="M2704.7 2934.9H2147V2382C2147 2405.6 2238.7 2424.7 2351.9 2424.7C2465.1 2424.7 2556.8 2405.6 2556.8 2382V2381.9L2704.7 2934.9Z" fill="#3FB1B5"/>
<path d="M2555.3 2371C2555.3 2394.7 2464.6 2413.8 2352.6 2413.8C2240.6 2413.8 2149.9 2394.7 2149.9 2371.1V2371C2150.2 2347.5 2240.8 2328.4 2352.6 2328.4C2464.4 2328.4 2555.1 2347.5 2555.3 2371Z" fill="#7CABFF"/>
<path d="M2555.3 2371.4C2554.6 2394.8 2464.1 2413.8 2352.6 2413.8C2331.1 2413.8 2310.5 2413.1 2291.1 2411.8V2206.1H2185.3C2171.8 2206.1 2160.9 2195.2 2160.9 2181.7V2165.2C2160.9 2157.8 2164.2 2151.2 2169.4 2146.7C2164.2 2142.2 2160.9 2135.6 2160.9 2128.2V2111.7C2160.9 2105.2 2163.5 2099.2 2167.7 2094.9C2163.5 2090.5 2160.9 2084.6 2160.9 2078.1V2061.6C2160.9 2054.9 2163.6 2048.8 2168 2044.3C2163.6 2039.9 2160.9 2033.8 2160.9 2027.1V1997.2C2160.9 1983.7 2171.8 1972.8 2185.3 1972.8H2320.4C2324.9 1970.2 2332.2 1961 2319.8 1955.6L2290.8 1948.8C2267.8 1937.3 2253.2 1918.2 2253.2 1892.4H2355.2C2372.3 1892.4 2387.6 1903.2 2393.4 1919.3L2552.8 2364.3L2555.3 2371.4Z" fill="#E57281"/>
<path d="M2555.8 2371.6C2555.5 2371.3 2555.3 2371.1 2555.3 2371.1C2555.3 2394.7 2464.6 2413.8 2352.6 2413.8C2331.1 2413.8 2310.5 2413.1 2291.1 2411.8V2330.5C2310.5 2329.2 2331.2 2328.5 2352.6 2328.5C2453.6 2328.5 2537.4 2344.1 2552.8 2364.4C2553.2 2364.9 2554.3 2367.6 2555.8 2371.6Z" fill="#9A3B82"/>
<path d="M2322.7 1694.8V1775.9C2322.7 1820 2287 1855.7 2242.9 1855.7C2198.8 1855.7 2163.1 1820 2163.1 1775.9V1694.8C2163.1 1714.6 2198.8 1730.6 2242.9 1730.6C2287 1730.6 2322.7 1714.6 2322.7 1694.8Z" fill="white"/>
<path d="M2242.9 1730.6C2286.97 1730.6 2322.7 1714.57 2322.7 1694.8C2322.7 1675.03 2286.97 1659 2242.9 1659C2198.83 1659 2163.1 1675.03 2163.1 1694.8C2163.1 1714.57 2198.83 1730.6 2242.9 1730.6Z" fill="#FBC580"/>
<path d="M2322.7 1556.2V1775.8C2322.7 1805.4 2306.6 1831.2 2282.7 1845C2282.7 1845 2282.7 1845 2282.6 1845C2270.9 1851.7 2257.3 1855.6 2242.9 1855.6C2228.5 1855.6 2215 1851.8 2203.3 1845.1C2203.2 1845.1 2203.2 1845 2203.1 1845C2179.2 1831.2 2163.1 1805.4 2163.1 1775.8V1556.2H2322.7Z" stroke="#FBC580" stroke-width="6" stroke-miterlimit="10"/>
<path d="M2242.9 1592C2287.47 1592 2323.6 1575.97 2323.6 1556.2C2323.6 1536.43 2287.47 1520.4 2242.9 1520.4C2198.33 1520.4 2162.2 1536.43 2162.2 1556.2C2162.2 1575.97 2198.33 1592 2242.9 1592Z" fill="white" stroke="#FBC580" stroke-width="5" stroke-miterlimit="10"/>
<path d="M2242.9 1561.6C2249.42 1561.6 2254.7 1556.32 2254.7 1549.8C2254.7 1543.28 2249.42 1538 2242.9 1538C2236.38 1538 2231.1 1543.28 2231.1 1549.8C2231.1 1556.32 2236.38 1561.6 2242.9 1561.6Z" fill="#FBC580"/>
<path d="M2216.9 1802.6C2222.64 1802.6 2227.3 1797.94 2227.3 1792.2C2227.3 1786.46 2222.64 1781.8 2216.9 1781.8C2211.16 1781.8 2206.5 1786.46 2206.5 1792.2C2206.5 1797.94 2211.16 1802.6 2216.9 1802.6Z" fill="white" stroke="#FBC580" stroke-width="5" stroke-miterlimit="10"/>
<path d="M2279.3 1703.4C2284.05 1703.4 2287.9 1699.55 2287.9 1694.8C2287.9 1690.05 2284.05 1686.2 2279.3 1686.2C2274.55 1686.2 2270.7 1690.05 2270.7 1694.8C2270.7 1699.55 2274.55 1703.4 2279.3 1703.4Z" fill="white"/>
<path d="M2196.1 1767.9C2200.85 1767.9 2204.7 1764.05 2204.7 1759.3C2204.7 1754.55 2200.85 1750.7 2196.1 1750.7C2191.35 1750.7 2187.5 1754.55 2187.5 1759.3C2187.5 1764.05 2191.35 1767.9 2196.1 1767.9Z" fill="#FBC580"/>
<path d="M2319.6 2262.1H2166.2C2163.4 2262.1 2162.6 2258.4 2165 2257.1L2218.6 2236.8C2227 2233.6 2232.6 2225.5 2232.6 2216.5V1896.9C2232.6 1875.7 2221.6 1855.8 2203.3 1845.1C2215 1851.8 2228.5 1855.6 2242.9 1855.6C2257.4 1855.6 2270.9 1851.7 2282.6 1845C2264.2 1855.6 2253.2 1875.6 2253.2 1896.8V2216.4C2253.2 2225.4 2258.8 2233.5 2267.2 2236.7L2320.8 2257C2323.2 2258.4 2322.4 2262.1 2319.6 2262.1Z" fill="white" stroke="#FBC580" stroke-width="5" stroke-miterlimit="10"/>
<path d="M2186.1 1436.1C2193.61 1436.1 2199.7 1430.01 2199.7 1422.5C2199.7 1414.99 2193.61 1408.9 2186.1 1408.9C2178.59 1408.9 2172.5 1414.99 2172.5 1422.5C2172.5 1430.01 2178.59 1436.1 2186.1 1436.1Z" fill="#FBC580"/>
<path d="M2279.3 1458C2285.82 1458 2291.1 1452.72 2291.1 1446.2C2291.1 1439.68 2285.82 1434.4 2279.3 1434.4C2272.78 1434.4 2267.5 1439.68 2267.5 1446.2C2267.5 1452.72 2272.78 1458 2279.3 1458Z" fill="white" stroke="#FBC580" stroke-width="5" stroke-miterlimit="10"/>
<path d="M2221.5 1504C2226.25 1504 2230.1 1500.15 2230.1 1495.4C2230.1 1490.65 2226.25 1486.8 2221.5 1486.8C2216.75 1486.8 2212.9 1490.65 2212.9 1495.4C2212.9 1500.15 2216.75 1504 2221.5 1504Z" fill="white" stroke="#FBC580" stroke-width="5" stroke-miterlimit="10"/>
<path d="M2217 1399.3C2220.92 1399.3 2224.1 1396.12 2224.1 1392.2C2224.1 1388.28 2220.92 1385.1 2217 1385.1C2213.08 1385.1 2209.9 1388.28 2209.9 1392.2C2209.9 1396.12 2213.08 1399.3 2217 1399.3Z" fill="#FBC580"/>
<path d="M2345.7 2004.9V2206.2H2185.3C2171.8 2206.2 2160.9 2195.3 2160.9 2181.8V2165.3C2160.9 2157.9 2164.2 2151.3 2169.4 2146.8C2164.2 2142.3 2160.9 2135.7 2160.9 2128.3V2111.8C2160.9 2105.3 2163.5 2099.3 2167.7 2095C2163.5 2090.6 2160.9 2084.7 2160.9 2078.2V2061.7C2160.9 2055 2163.6 2048.9 2168 2044.4C2163.6 2040 2160.9 2033.9 2160.9 2027.2V2005H2345.7V2004.9Z" fill="#E57281"/>
<path d="M2163.7 2126.9C2163.7 2142.2 2176.1 2154.6 2191.4 2154.6H2321.2C2336.5 2154.6 2348.9 2142.2 2348.9 2126.9" stroke="#9A3B82" stroke-width="5" stroke-miterlimit="10" stroke-linecap="round"/>
<path d="M2163.7 2077C2163.7 2092.3 2176.1 2104.7 2191.4 2104.7H2321.2C2336.5 2104.7 2348.9 2092.3 2348.9 2077" stroke="#9A3B82" stroke-width="5" stroke-miterlimit="10" stroke-linecap="round"/>
<path d="M2163.7 2027.1C2163.7 2042.4 2176.1 2054.8 2191.4 2054.8H2321.2C2336.5 2054.8 2348.9 2042.4 2348.9 2027.1" stroke="#9A3B82" stroke-width="5" stroke-miterlimit="10" stroke-linecap="round"/>
<path d="M2190.1 2204.5H2321.2C2336.5 2204.5 2348.9 2192.1 2348.9 2176.8V1989.7" stroke="#9A3B82" stroke-width="5" stroke-miterlimit="10" stroke-linecap="round"/>
<path d="M2226.3 1988.9H2213C2208.6 1988.9 2205 1992.5 2205 1996.9C2205 2001.3 2208.6 2004.9 2213 2004.9H2287.4C2295.4 2004.9 2302 1998.4 2302 1990.3C2302 1980.7 2309.8 1972.9 2319.4 1972.9H2331.5C2341.1 1972.9 2348.9 1980.7 2348.9 1990.3V2022.7" stroke="#9A3B82" stroke-width="5" stroke-miterlimit="10" stroke-linecap="round"/>
<path d="M3134.3 958.3L2801.4 1299.7L2417.6 876.6L2836.5 581.8L3134.3 958.3Z" fill="#3FB1B5"/>
<path d="M2788.4 1316.1L2385.7 874.7L2827.3 565.1" stroke="#FBC580" stroke-width="6" stroke-miterlimit="10"/>
<path d="M2794.9 940.7L2820 937C2861.3 930.9 2899.6 959.5 2905.7 1000.7L2927.6 1149.9C2935 1200.2 2989 1229 3034.9 1207L3139.6 1156.9" stroke="#FBC580" stroke-width="6" stroke-miterlimit="10"/>
<path d="M3273.1 1185.5C3283.8 1191.3 3293.9 1197.3 3303.1 1203.3C3301.5 1212 3298.5 1220.6 3294.1 1228.9C3289.7 1237.1 3284.1 1244.4 3277.7 1250.5C3267.6 1246.1 3257 1241 3246.3 1235.2C3192.8 1206.3 3155.5 1171.8 3162.9 1158.1C3170.3 1144.4 3219.6 1156.6 3273.1 1185.5Z" fill="#FBC580"/>
<path d="M3151.5 1166.2C3158.18 1166.2 3163.6 1160.78 3163.6 1154.1C3163.6 1147.42 3158.18 1142 3151.5 1142C3144.82 1142 3139.4 1147.42 3139.4 1154.1C3139.4 1160.78 3144.82 1166.2 3151.5 1166.2Z" stroke="#7CABFF" stroke-width="6" stroke-miterlimit="10"/>
<path d="M1961.7 2560.3V2934.9H1528.8V2714.2C1538.2 2738.8 1648.4 2723.1 1766 2678.1C1871.8 2637.6 1953.5 2587.8 1961.7 2560.3Z" fill="#FF7081"/>
<path d="M1961.7 2549.4C1953.4 2576.9 1871.8 2626.7 1765.9 2667.2C1648.4 2712.2 1538.2 2727.9 1528.7 2703.3C1519.2 2678.7 1614.2 2623 1731.8 2578C1849.3 2533 1952.3 2516.5 1961.7 2541.1C1962.7 2543.6 1962.7 2546.4 1961.7 2549.4Z" fill="#66B0F0"/>
<path d="M1870 2301V2618.4L1846.1 2630.5C1821.9 2642.3 1794.8 2654 1766 2665C1713.1 2685.3 1661.6 2699.6 1620.2 2707L1644 2613.5L1682.8 2460.9C1664.4 2460.9 1647 2452.7 1635.3 2438.5L1476 2257.3C1503.3 2232.4 1544.1 2266.3 1544.1 2266.3L1528.8 2188.2C1525.2 2169.7 1530.6 2150.5 1543.3 2136.6L1591.7 2083.5C1601.3 2073 1618.6 2077.1 1622.6 2090.7L1657 2209.4C1657 2209.4 1742.4 2274.6 1758.4 2274.6C1776.5 2274.6 1782.8 2259.9 1749 2211.6C1723.6 2175.3 1749 2148.8 1749 2148.8L1831.7 2218.4C1856 2239 1870 2269.2 1870 2301Z" fill="white" stroke="#FBC580" stroke-width="5" stroke-miterlimit="10"/>
<path d="M1687.7 2282.5L1627.2 2234.1L1594.1 2119.9C1590.3 2106.8 1574.2 2102.9 1565 2113" stroke="#FBC580" stroke-width="5" stroke-miterlimit="10"/>
<path d="M1648.1 2303.8L1595.5 2261L1564.2 2152.9C1560.6 2140.5 1544.8 2136.8 1536.1 2146.4" stroke="#FBC580" stroke-width="5" stroke-miterlimit="10"/>
<path d="M1601.6 2314.7L1544 2266.4" stroke="#FBC580" stroke-width="5" stroke-miterlimit="10"/>
<path d="M1682.8 2460.9H1750.1" stroke="#FBC580" stroke-width="5" stroke-miterlimit="10"/>
<path d="M1870 2536.6V2620.5C1840.2 2636.3 1804.7 2652.3 1766 2667.2C1713 2687.5 1661.5 2701.8 1620 2709.2L1644 2615.6C1670.6 2602.8 1700.4 2590 1731.9 2578C1782.8 2558.6 1831 2544.4 1870 2536.6Z" fill="#FBC580"/>
<path d="M1802.2 1480L1832.6 1546.7C1835.5 1571.4 1817.9 1593.7 1793.2 1596.7C1768.5 1599.6 1750.9 1622 1753.8 1646.7L1758.2 1683.7" stroke="#FBC580" stroke-width="6" stroke-miterlimit="10"/>
<path d="M2154 1265.7L2314.2 1015.7L1763.2 1011.3L1582.7 1491.9L1880.7 1477.9L2154 1265.7Z" fill="#FF7081"/>
<path d="M2320.8 996.9L1744.7 990.4L1553.4 1494.8" stroke="#FBC580" stroke-width="6" stroke-miterlimit="10"/>
<path d="M2144.1 1228.2C2176.1 1283.1 2121.7 1374.5 2022.5 1432.3C1923.3 1490.1 1817 1492.4 1785 1437.5C1780.6 1430 1777.9 1421.9 1776.6 1413.2C1768.6 1358.3 1820.9 1283.3 1906.6 1233.4C1992.3 1183.5 2083.3 1174.9 2127.1 1208.9C2134 1214.3 2139.7 1220.7 2144.1 1228.2Z" fill="#66B0F0" stroke="white" stroke-width="6" stroke-miterlimit="10"/>
<path d="M2118.7 1184.6L2144.1 1228.2C2139.7 1220.7 2134 1214.3 2127.1 1208.9C2083.3 1174.9 1992.3 1183.5 1906.6 1233.4C1820.9 1283.3 1768.7 1358.3 1776.6 1413.2C1777.8 1421.9 1780.6 1430 1785 1437.5L1759.6 1393.9C1727.6 1339 1782 1247.6 1881.2 1189.8C1980.3 1132.1 2086.7 1129.7 2118.7 1184.6Z" stroke="white" stroke-width="5" stroke-miterlimit="10" stroke-linecap="round"/>
<path d="M1749.6 1818.5C1745.7 1830 1741.5 1841 1737.1 1851.1C1728.2 1851 1719.2 1849.5 1710.4 1846.5C1701.5 1843.5 1693.5 1839.3 1686.3 1834C1688.9 1823.3 1692.1 1812 1696 1800.5C1715.4 1742.9 1743 1700.3 1757.8 1705.2C1772.6 1710.2 1768.9 1760.9 1749.6 1818.5Z" fill="#FBC580"/>
<path d="M1759.8 1705.4C1766.48 1705.4 1771.9 1699.98 1771.9 1693.3C1771.9 1686.62 1766.48 1681.2 1759.8 1681.2C1753.12 1681.2 1747.7 1686.62 1747.7 1693.3C1747.7 1699.98 1753.12 1705.4 1759.8 1705.4Z" stroke="#66B0F0" stroke-width="6" stroke-miterlimit="10"/>
<path d="M1243.5 2525.6V2934.9H793.9V2332.5C802.7 2362 896.8 2423.5 1013.6 2474.9C1137.9 2529.8 1240.9 2552.4 1243.5 2525.6Z" fill="#7CABFF"/>
<path d="M1243.5 2514.7C1240.8 2541.5 1137.9 2518.8 1013.6 2464C896.8 2412.5 802.7 2351 793.9 2321.6C793.3 2319.7 793.1 2317.9 793.3 2316.3C795.9 2289.5 898.9 2312.2 1023.2 2367C1147.5 2421.8 1246.2 2487.9 1243.5 2514.7Z" fill="#9A3B82"/>
<path d="M977.4 1927.6C988.1 1905.6 1010.4 1891.6 1034.9 1891.6H1105.6L1109.3 2175.8L1158.6 2437L1174.3 2520C1132.7 2510.8 1075.9 2491.5 1013.7 2464.1C978.5 2448.6 934.4 2425.6 905 2409.4V2063.6C905 2058.9 905.9 2054.2 907.5 2049.8L977.4 1927.6Z" fill="#FFAFA7"/>
<path d="M1174.2 2520C1132.6 2510.8 1075.8 2491.5 1013.6 2464.1C978.4 2448.6 934.3 2425.6 904.9 2409.4V2322.5C937 2332.8 984.5 2350 1023.2 2367C1075.4 2390 1121 2413.7 1158.6 2437L1174.2 2520Z" fill="#FFAFA7"/>
<path d="M1437.5 1572.1L1061.4 2264.1C1047.5 2289.7 1009.2 2295.8 975.9 2277.7C942.6 2259.6 926.9 2224.2 940.8 2198.5L1316.9 1506.5L1437.5 1572.1Z" fill="white" stroke="#FBC580" stroke-width="5" stroke-miterlimit="10"/>
<path d="M1437.43 1572.27C1451.35 1546.65 1435.66 1511.21 1402.37 1493.12C1369.08 1475.03 1330.81 1481.14 1316.89 1506.76C1302.96 1532.38 1318.66 1567.81 1351.95 1585.9C1385.23 1603.99 1423.51 1597.89 1437.43 1572.27Z" fill="#7CABFF" stroke="#FBC580" stroke-width="5" stroke-miterlimit="10"/>
<path d="M1191.8 1837L1369.5 1691.9L1366.7 1743.5L1423.6 1757.7L1294 1837.7C1328.8 1831.7 1370.7 1826.8 1405.2 1829.5C1446.3 1832.7 1432.5 1880.8 1417.1 1921.9C1453.1 1918.4 1573.8 1845.3 1619.3 1859.1C1647.1 1867.5 1637.1 1924.2 1629.1 1955.5C1640.7 1956.1 1699.4 1955.4 1699.4 1955.4L1668.4 1983.7L1685.4 2012C1619.4 2014.9 1618.6 2004.5 1626.9 1957.7C1628.3 1906.8 1571.9 1955.7 1451.8 1984.4C1392.3 1998.6 1400 1959.9 1414.7 1919.6C1408.8 1901.1 1364.7 1881 1223 1918L1191.8 1837Z" fill="#FF7081"/>
<path d="M1194.4 1925.4C1223.4 1925.4 1246.9 1901.89 1246.9 1872.9C1246.9 1843.91 1223.4 1820.4 1194.4 1820.4C1165.41 1820.4 1141.9 1843.91 1141.9 1872.9C1141.9 1901.89 1165.41 1925.4 1194.4 1925.4Z" fill="white" stroke="#FF7081" stroke-width="5" stroke-miterlimit="10"/>
<path d="M1176.3 1891.6V1894.9C1176.3 1928.5 1149.1 1955.8 1115.4 1955.8H1051.5V1891.6H1176.3Z" fill="#FFAFA7"/>
<path d="M1254.1 2014.9L1237.2 2054.5L1217.5 2100.8L1206.8 2125.9L1190.5 2164.2C1190.1 2165.2 1189.5 2166.3 1189 2167.2C1189 2167.3 1188.9 2167.3 1188.9 2167.4C1183.7 2176.4 1173.6 2182 1162.5 2182H1033C1017.3 2182 1006.6 2167.1 1012.4 2153.4L1021.8 2131.3L1042.5 2082.7L1060.3 2040.8L1076 2004C1080.6 1993.2 1091.7 1986.1 1104.1 1986.1H1233.6C1249.2 1986.3 1259.9 2001.2 1254.1 2014.9Z" fill="#FFAFA7"/>
<path d="M1065.7 2041C1071.1 2035 1078.9 2031.4 1087.3 2031.4H1211C1224 2031.4 1233.4 2042.6 1232.1 2054.5" stroke="#FFAFA7" stroke-width="5" stroke-miterlimit="10" stroke-linecap="round"/>
<path d="M1048.9 2082.9C1054.2 2077.6 1061.5 2074.5 1069.4 2074.5H1193.1C1207.3 2074.5 1217.1 2087.7 1213.5 2100.7" stroke="#FFAFA7" stroke-width="5" stroke-miterlimit="10" stroke-linecap="round"/>
<path d="M1029.5 2131.4C1034.8 2126.4 1041.9 2123.5 1049.5 2123.5H1173.2C1187.8 2123.5 1197.9 2137.7 1193.2 2151.1" stroke="#FFAFA7" stroke-width="5" stroke-miterlimit="10" stroke-linecap="round"/>
<path d="M1476.8 851.8C1485.1 842.9 1493.4 834.6 1501.6 827.2C1509.6 830.9 1517.2 836 1524.1 842.4C1530.9 848.8 1536.6 856 1540.9 863.7C1534.1 872.4 1526.5 881.3 1518.2 890.2C1476.8 934.7 1434.1 962.2 1422.6 951.6C1411.2 941 1435.4 896.3 1476.8 851.8Z" fill="#FBC580"/>
<path d="M1186.2 1204.2L1173 1212.4C1125.1 1242.1 1031.8 1178.2 964.7 1069.7C897.5 961.2 881.9 849.3 929.7 819.6L943.3 811.2L1024.2 1049.2L1186.2 1204.2Z" fill="#7CABFF"/>
<path d="M1320.2 1332.5L1186.2 1204.2L1024.1 1049.1L943.2 811.2L870.9 598.5L1207.6 869.8L1320.2 1332.5Z" fill="#7CABFF" stroke="white" stroke-width="6" stroke-miterlimit="10"/>
<path d="M1330.7 1319.8L1218.9 857.9L878 589.4" stroke="#9A3B82" stroke-width="6" stroke-miterlimit="10"/>
<path d="M1142.3 1005.4C1133.7 969.8 1155.6 933.9 1191.2 925.3C1225 917.1 1259.3 936.4 1269.9 969.4L1298 1060.1C1313.5 1110.3 1385.8 1106.4 1395.9 1054.8L1412.1 971.5" stroke="#FBC580" stroke-width="6" stroke-miterlimit="10"/>
<path d="M1415.9 973.8C1422.58 973.8 1428 968.383 1428 961.7C1428 955.017 1422.58 949.6 1415.9 949.6C1409.22 949.6 1403.8 955.017 1403.8 961.7C1403.8 968.383 1409.22 973.8 1415.9 973.8Z" stroke="#7CABFF" stroke-width="6" stroke-miterlimit="10"/>
</svg>
