<svg width="5000" height="3500" viewBox="0 0 5000 3500" fill="none" xmlns="http://www.w3.org/2000/svg">
<path d="M2655.5 2541.8L2638.6 2587.9L2560.5 2800.5C2531.2 2821.2 2494.2 2834.5 2452.7 2834.5C2447.8 2834.5 2441.9 2833.3 2436.9 2833C2393.5 2830 2351.9 2811 2323.1 2786.8L2346.4 2530.4L2348.1 2511.8C2474 2560.6 2620.8 2552.4 2655.5 2541.8Z" fill="#FFAFA7"/>
<path d="M2655.5 2541.8L2622.4 2631.8C2521.4 2645.5 2373.4 2562.9 2346.5 2530.4L2348.2 2511.8C2474 2560.6 2620.8 2552.4 2655.5 2541.8Z" fill="#FFAFA7"/>
<path d="M2562.1 2800.2L2538.2 3050.5C2533.9 3116.5 2483.3 3167 2423.3 3167C2420.6 3167 2417.9 3166.9 2415.1 3166.7C2351.5 3161.9 2303.6 3102 2308.1 3033L2322.6 2811.8L2324.1 2788.1C2336.9 2800.1 2351.8 2810.4 2368.3 2818.4C2389 2828.4 2412.1 2834.9 2436.8 2836.8C2441.8 2837.2 2446.7 2837.4 2451.6 2837.4C2465.8 2837.4 2479.7 2835.8 2492.9 2832.8C2493.3 2832.7 2493.8 2832.6 2494.2 2832.5C2518.9 2826.7 2541.5 2816 2560.3 2801.5C2561 2801.1 2561.6 2800.7 2562.1 2800.2Z" fill="white" stroke="#FBC580" stroke-width="5" stroke-miterlimit="10"/>
<path d="M2539.2 2815.4L2522.3 3015.7C2518.7 3071.5 2475.9 3114.2 2425.1 3114.2C2422.8 3114.2 2420.5 3114.1 2418.2 3113.9C2364.5 3109.8 2323.9 3059.2 2327.7 3000.8L2341 2801.5" stroke="#FBC580" stroke-width="5" stroke-miterlimit="10"/>
<path d="M2494 2830.3C2480.8 2833 2465.9 2833.5 2451.7 2833.5C2446.8 2833.5 2441.9 2833.3 2436.9 2833C2412.2 2831.3 2389 2825.3 2368.4 2816.1L2361.8 2783.7C2357.6 2769.9 2368.1 2756 2382.6 2756.5L2478.6 2759.3C2490.8 2759.6 2500.1 2770.2 2499 2782.3L2494 2830.3Z" fill="#FBC580"/>
<path d="M2493 2829.3L2480.9 2981.4C2478.8 3010.9 2450.8 3032.7 2424.4 3027.9L2422.3 3027.7C2384.7 3020.8 2355.9 2981.6 2360.8 2939.6L2368.4 2816C2389.1 2825.2 2412.2 2831.2 2436.9 2832.9C2441.9 2833.3 2446.8 2833.4 2451.7 2833.4C2465.9 2833.5 2479.8 2832 2493 2829.3Z" fill="#FBC580"/>
<path d="M2478.3 2994.1L2368.8 2969.1C2357.7 2966.6 2358.5 2950.5 2369.9 2949.1L2474.6 2936.8C2487.1 2935.3 2488.8 2917.8 2476.8 2914L2376.5 2882.2C2361.2 2877.3 2362.4 2855.3 2378.2 2852.1L2493.1 2832.2C2493.1 2832.2 2407.3 2839.7 2368.5 2818.3" stroke="white" stroke-width="5" stroke-miterlimit="10" stroke-linecap="round" stroke-linejoin="round"/>
<path d="M2862.1 1979.3L2655.5 2541.8C2620.8 2552.4 2457.1 2566.4 2297.3 2492.3L2423 1910.8C2434.7 1822.8 2509.7 1757 2598.6 1757H2691C2807.1 1756.9 2891.9 1866.9 2862.1 1979.3Z" fill="#FF7081"/>
<path d="M2679.5 2481.8C2644.8 2492.4 2467.1 2505.4 2307.3 2431.3" stroke="white" stroke-width="6" stroke-miterlimit="10" stroke-linecap="round"/>
<path d="M2931 2552.9L2910.2 2589.8L2777.1 2822.7C2725.8 2843 2665.3 2850.5 2611.1 2839.1L2604.3 2837.2C2577.5 2831.6 2550.1 2816.6 2530.7 2799.8L2627.8 2540.3C2627.8 2540.3 2627.9 2540.3 2628 2540.3C2661.5 2551.4 2776.7 2582.6 2931 2552.9Z" fill="#FFAFA7"/>
<path d="M2931 2552.9L2887.1 2630.2C2718.1 2657.2 2622.3 2555.5 2622.3 2555.5L2627.9 2540.4C2661.5 2551.4 2776.7 2582.6 2931 2552.9Z" fill="#FFAFA7"/>
<path d="M3215.8 2068.5L2985.3 2542.1C2790.2 2590.9 2661.2 2551.4 2627.9 2540.4L2869.1 1895.3C2885.6 1856.2 2913 1823.9 2946.9 1801.4C2980.8 1778.9 3021.2 1766.2 3063.6 1766.2C3224.2 1766.2 3293.4 1927.8 3215.8 2068.5Z" fill="#FF7081"/>
<path d="M3011.2 2491.1C2816.1 2539.9 2683.1 2500.4 2649.8 2489.4" stroke="white" stroke-width="6" stroke-miterlimit="10" stroke-linecap="round"/>
<path d="M2869.1 1895.3L2514.6 2850.9" stroke="white" stroke-width="6" stroke-miterlimit="10"/>
<path d="M2775.1 2823.4L2767.3 2843.9L2678.9 3075.2C2653.6 3154.5 2570.4 3201.6 2497.3 3183.5L2493.3 3182.2C2442 3169.5 2409.4 3107.7 2429.5 3053.1L2530.5 2806.3L2532.6 2801.2C2545.3 2812.6 2560.1 2822 2576.6 2828.8C2585.4 2832.4 2594.7 2835.3 2604.4 2837.4L2611.2 2839.3C2639.9 2845.3 2669.5 2846.4 2698.7 2843C2724.9 2839.8 2750.7 2833.2 2775.1 2823.4Z" fill="white" stroke="#FBC580" stroke-width="5" stroke-miterlimit="10"/>
<path d="M2746.5 2834.1L2669 3038.9C2647.8 3105.3 2578.1 3144.8 2516.9 3129.6L2513.6 3128.5C2470.6 3117.8 2443.3 3066.1 2460.1 3020.3L2545.7 2812.5" stroke="#FBC580" stroke-width="5" stroke-miterlimit="10" stroke-linecap="round"/>
<path d="M2716.8 2812L2698.6 2842.8C2669.5 2846.2 2639.9 2845.1 2611.1 2839.1L2604.3 2837.2C2594.6 2835.2 2585.3 2832.3 2576.5 2828.6L2583.7 2778.6C2585.4 2766.6 2597 2758.5 2608.9 2761L2702.9 2780.7C2717.1 2783.6 2724.2 2799.6 2716.8 2812Z" fill="#FBC580"/>
<path d="M2698.6 2842.8L2698.1 2843.6L2651.1 2967.8C2638.2 3008.1 2596 3032 2558.8 3022.8L2556.8 3022.1C2530.7 3015.6 2514.1 2984.2 2524.4 2956.5L2576.3 2830.5L2576.6 2828.6C2585.4 2832.2 2594.7 2835.1 2604.4 2837.2L2611.2 2839.1C2639.9 2845.2 2669.5 2846.2 2698.6 2842.8Z" fill="#FBC580"/>
<path d="M2521.4 2978.6L2629.4 2990.3C2642.7 2991.7 2648.3 2973.7 2636.5 2967.4L2552.4 2922.5C2540.9 2916.4 2545.7 2899 2558.7 2899.6L2664.9 2904.4C2679.2 2905.1 2684.4 2885.9 2671.8 2879.2L2576.5 2828.4C2576.5 2828.4 2625.6 2851.5 2698.3 2842.5" stroke="white" stroke-width="5" stroke-miterlimit="10" stroke-linecap="round" stroke-linejoin="round"/>
<path d="M2267.9 1786.7C2675.15 1786.7 3005.3 1456.55 3005.3 1049.3C3005.3 642.045 2675.15 311.9 2267.9 311.9C1860.65 311.9 1530.5 642.045 1530.5 1049.3C1530.5 1456.55 1860.65 1786.7 2267.9 1786.7Z" fill="#F1E6FF"/>
<path d="M2020.9 1786.8C1712.6 1683.6 1490.4 1392.4 1490.4 1049.3" stroke="#FBC580" stroke-width="7" stroke-miterlimit="10"/>
<path d="M2267.9 1525.6C2530.95 1525.6 2744.2 1312.35 2744.2 1049.3C2744.2 786.247 2530.95 573 2267.9 573C2004.85 573 1791.6 786.247 1791.6 1049.3C1791.6 1312.35 2004.85 1525.6 2267.9 1525.6Z" stroke="white" stroke-width="10" stroke-miterlimit="10" stroke-linecap="round" stroke-dasharray="30.03 30.03"/>
<path d="M2267.9 573.1V652.4" stroke="white" stroke-width="15" stroke-miterlimit="10" stroke-linecap="round"/>
<path d="M2267.9 1446.2V1525.6" stroke="white" stroke-width="15" stroke-miterlimit="10" stroke-linecap="round"/>
<path d="M1931.1 712.5L1987.2 768.7" stroke="white" stroke-width="15" stroke-miterlimit="10" stroke-linecap="round"/>
<path d="M2548.5 1330L2604.6 1386.1" stroke="white" stroke-width="15" stroke-miterlimit="10" stroke-linecap="round"/>
<path d="M1791.6 1049.3H1871" stroke="white" stroke-width="15" stroke-miterlimit="10" stroke-linecap="round"/>
<path d="M2664.8 1049.3H2744.1" stroke="white" stroke-width="15" stroke-miterlimit="10" stroke-linecap="round"/>
<path d="M1931.1 1386.1L1987.2 1330" stroke="white" stroke-width="15" stroke-miterlimit="10" stroke-linecap="round"/>
<path d="M2548.5 768.7L2604.6 712.5" stroke="white" stroke-width="15" stroke-miterlimit="10" stroke-linecap="round"/>
<path d="M2267.9 1555.6C2199.6 1555.6 2133.3 1542.2 2070.8 1515.8C2010.5 1490.3 1956.4 1453.8 1909.9 1407.3C1863.4 1360.8 1826.9 1306.7 1801.4 1246.4C1775 1184 1761.6 1117.7 1761.6 1049.3C1761.6 909 1816 780.2 1913.9 691.3L1954.2 735.7C1912.5 773.6 1881.8 815.2 1858 871C1834.1 927.1 1821.5 988.7 1821.5 1049.2C1821.5 1109.5 1833.3 1167.9 1856.6 1222.9C1879.1 1276 1911.3 1323.8 1952.3 1364.8C1993.3 1405.8 2041 1438 2094.2 1460.4C2149.2 1483.7 2207.6 1495.5 2267.9 1495.5C2328.2 1495.5 2386.6 1483.7 2441.6 1460.4C2494.7 1437.9 2542.5 1405.7 2583.5 1364.8C2624.5 1323.8 2656.7 1276.1 2679.2 1222.9C2702.5 1167.9 2714.3 1109.5 2714.3 1049.2C2714.3 989.2 2702.1 930.9 2678 875.8C2654.8 822.8 2621.6 775 2579.4 733.9C2537.3 692.9 2488.5 660.6 2434.3 638C2378.4 614.7 2328.4 604.9 2268.1 604.9V544.9C2336.4 544.9 2394.2 556.3 2457.4 582.6C2518.6 608.1 2573.7 644.5 2621.3 690.9C2669.1 737.5 2706.7 791.6 2733 851.7C2760.4 914.4 2774.4 980.8 2774.4 1049.1C2774.4 1117.4 2761 1183.7 2734.6 1246.2C2709.1 1306.5 2672.6 1360.6 2626.1 1407.1C2579.6 1453.6 2525.5 1490.1 2465.2 1515.6C2402.5 1542.2 2336.2 1555.6 2267.9 1555.6Z" fill="#F1E6FF" stroke="white" stroke-width="15" stroke-miterlimit="10" stroke-linecap="round" stroke-linejoin="round"/>
<path d="M2018.3 795L2332.6 1117.4" stroke="#FF7081" stroke-width="7" stroke-miterlimit="10" stroke-linecap="round"/>
<path d="M2271.3 1077.5C2285.05 1077.5 2296.2 1066.35 2296.2 1052.6C2296.2 1038.85 2285.05 1027.7 2271.3 1027.7C2257.55 1027.7 2246.4 1038.85 2246.4 1052.6C2246.4 1066.35 2257.55 1077.5 2271.3 1077.5Z" fill="#F1E6FF" stroke="white" stroke-width="15" stroke-miterlimit="10" stroke-linecap="round"/>
<path d="M2407.1 522.8L2411.6 490.7C2413.8 475.9 2428.7 466.5 2443 470.9L2474.4 480.4C2488.7 484.7 2495.9 500.8 2489.5 514.4L2474.3 545" stroke="white" stroke-width="15" stroke-miterlimit="10" stroke-linecap="round"/>
<path d="M2192.8 3187.2V1898.7H3359.1V3187.2" stroke="#A574D2" stroke-width="6" stroke-miterlimit="10"/>
<path d="M3400.4 1941.8H2151.5C2123.3 1941.8 2100.4 1918.9 2100.4 1890.7V1696C2100.4 1667.8 2123.3 1644.9 2151.5 1644.9H3400.4C3428.6 1644.9 3451.5 1667.8 3451.5 1696V1890.7C3451.5 1918.9 3428.6 1941.8 3400.4 1941.8Z" fill="white" stroke="#A574D2" stroke-width="6" stroke-miterlimit="10"/>
<path d="M3403.4 1906.8H2148.5C2120.3 1906.8 2097.4 1883.9 2097.4 1855.7V1661C2097.4 1632.8 2120.3 1609.9 2148.5 1609.9H3403.4C3431.6 1609.9 3454.5 1632.8 3454.5 1661V1855.7C3454.5 1883.9 3431.6 1906.8 3403.4 1906.8Z" fill="#A574D2"/>
<path d="M3395.6 2686.3V2533.7C3395.6 2481.7 3437.8 2439.5 3489.8 2439.5C3541.8 2439.5 3584 2481.7 3584 2533.7V2686.3" stroke="#FBC580" stroke-width="6" stroke-miterlimit="10"/>
<path d="M3302.5 3188.1H3653.4C3694.3 3188.1 3727.5 3154.9 3727.5 3114V2625.2C3727.5 2584.3 3694.3 2551.1 3653.4 2551.1H3302.5C3261.6 2551.1 3228.4 2584.3 3228.4 2625.2V3114C3228.4 3155 3261.6 3188.1 3302.5 3188.1Z" fill="#7CABFF"/>
<path d="M3727.4 2664.6C3727.4 2617.8 3689.4 2579.8 3642.6 2579.8H3369.2C3322.4 2579.8 3284.4 2617.8 3284.4 2664.6V3002.4" stroke="white" stroke-width="6" stroke-miterlimit="10"/>
<path d="M3654.5 3188.1H3415.2C3374.9 3188.1 3342.3 3155.5 3342.3 3115.2V2679.9C3342.3 2639.6 3374.9 2607 3415.2 2607H3654.5C3694.8 2607 3727.4 2639.6 3727.4 2679.9V3115.2C3727.4 3155.5 3694.8 3188.1 3654.5 3188.1Z" fill="white" stroke="#FBC580" stroke-width="6" stroke-miterlimit="10"/>
<path d="M3448.3 2720.6V2568C3448.3 2516 3490.5 2473.8 3542.5 2473.8C3594.5 2473.8 3636.7 2516 3636.7 2568V2720.6" stroke="#FBC580" stroke-width="6" stroke-miterlimit="10"/>
<path d="M3653.7 3130.8H3418.3C3399.2 3130.8 3383.7 3115.3 3383.7 3096.2V2916.3C3383.7 2897.2 3399.2 2881.7 3418.3 2881.7H3653.7C3672.8 2881.7 3688.3 2897.2 3688.3 2916.3V3096.2C3688.4 3115.3 3672.9 3130.8 3653.7 3130.8Z" fill="#FBC580"/>
<path d="M3299.4 3002.4H3269.8" stroke="#FBC580" stroke-width="6" stroke-miterlimit="10"/>
<path d="M3233 2689.5C3233 2835.3 3073.6 3051.6 3128.5 3120.9C3180.9 3187 3233 3120.8 3233 3120.8V2689.5Z" fill="white" stroke="#7CABFF" stroke-width="6" stroke-miterlimit="10"/>
<path d="M3402.5 2948.5H3667" stroke="white" stroke-width="5" stroke-miterlimit="10" stroke-linecap="round"/>
<path d="M3467.3 2717.6H3429.3V2735.8H3467.3V2717.6Z" stroke="#FBC580" stroke-width="6" stroke-miterlimit="10"/>
<path d="M3655 2717.6H3617V2735.8H3655V2717.6Z" stroke="#FBC580" stroke-width="6" stroke-miterlimit="10"/>
<path d="M3402.5 2960.7V2948.5" stroke="white" stroke-width="5" stroke-miterlimit="10" stroke-linecap="round"/>
<path d="M3426.5 2960.7V2948.5" stroke="white" stroke-width="5" stroke-miterlimit="10" stroke-linecap="round"/>
<path d="M3450.6 2960.7V2948.5" stroke="white" stroke-width="5" stroke-miterlimit="10" stroke-linecap="round"/>
<path d="M3474.6 2960.7V2948.5" stroke="white" stroke-width="5" stroke-miterlimit="10" stroke-linecap="round"/>
<path d="M3498.7 2960.7V2948.5" stroke="white" stroke-width="5" stroke-miterlimit="10" stroke-linecap="round"/>
<path d="M3522.7 2960.7V2948.5" stroke="white" stroke-width="5" stroke-miterlimit="10" stroke-linecap="round"/>
<path d="M3547.9 2960.7V2948.5" stroke="white" stroke-width="5" stroke-miterlimit="10" stroke-linecap="round"/>
<path d="M3572 2960.7V2948.5" stroke="white" stroke-width="5" stroke-miterlimit="10" stroke-linecap="round"/>
<path d="M3594.9 2960.7V2948.5" stroke="white" stroke-width="5" stroke-miterlimit="10" stroke-linecap="round"/>
<path d="M3618.9 2960.7V2948.5" stroke="white" stroke-width="5" stroke-miterlimit="10" stroke-linecap="round"/>
<path d="M3643 2960.7V2948.5" stroke="white" stroke-width="5" stroke-miterlimit="10" stroke-linecap="round"/>
<path d="M3667 2960.7V2948.5" stroke="white" stroke-width="5" stroke-miterlimit="10" stroke-linecap="round"/>
<path d="M3430.4 3002.4C3423.9 3002.4 3419 2996.7 3419.8 2990.3L3425.1 2948.4H3435.7L3441 2990.3C3441.9 2996.7 3436.9 3002.4 3430.4 3002.4Z" fill="white" stroke="#7CABFF" stroke-width="6" stroke-miterlimit="10"/>
<path d="M3036.9 1609.8H2589.4V1846.5H3036.9V1609.8Z" fill="white"/>
<path d="M2984.5 1796C2989.64 1796 2993.8 1791.84 2993.8 1786.7C2993.8 1781.56 2989.64 1777.4 2984.5 1777.4C2979.36 1777.4 2975.2 1781.56 2975.2 1786.7C2975.2 1791.84 2979.36 1796 2984.5 1796Z" fill="#FF7081" stroke="#FF7081" stroke-width="5" stroke-miterlimit="10"/>
<path d="M2950.1 1796C2955.24 1796 2959.4 1791.84 2959.4 1786.7C2959.4 1781.56 2955.24 1777.4 2950.1 1777.4C2944.96 1777.4 2940.8 1781.56 2940.8 1786.7C2940.8 1791.84 2944.96 1796 2950.1 1796Z" fill="white" stroke="#FF7081" stroke-width="5" stroke-miterlimit="10"/>
<path d="M2915.8 1796C2920.94 1796 2925.1 1791.84 2925.1 1786.7C2925.1 1781.56 2920.94 1777.4 2915.8 1777.4C2910.66 1777.4 2906.5 1781.56 2906.5 1786.7C2906.5 1791.84 2910.66 1796 2915.8 1796Z" fill="white" stroke="#FF7081" stroke-width="5" stroke-miterlimit="10"/>
<path d="M2984.5 1761.3C2989.64 1761.3 2993.8 1757.14 2993.8 1752C2993.8 1746.86 2989.64 1742.7 2984.5 1742.7C2979.36 1742.7 2975.2 1746.86 2975.2 1752C2975.2 1757.14 2979.36 1761.3 2984.5 1761.3Z" fill="#FF7081" stroke="#FF7081" stroke-width="5" stroke-miterlimit="10"/>
<path d="M2950.1 1761.3C2955.24 1761.3 2959.4 1757.14 2959.4 1752C2959.4 1746.86 2955.24 1742.7 2950.1 1742.7C2944.96 1742.7 2940.8 1746.86 2940.8 1752C2940.8 1757.14 2944.96 1761.3 2950.1 1761.3Z" fill="white" stroke="#FF7081" stroke-width="5" stroke-miterlimit="10"/>
<path d="M2915.8 1761.3C2920.94 1761.3 2925.1 1757.14 2925.1 1752C2925.1 1746.86 2920.94 1742.7 2915.8 1742.7C2910.66 1742.7 2906.5 1746.86 2906.5 1752C2906.5 1757.14 2910.66 1761.3 2915.8 1761.3Z" fill="white" stroke="#FF7081" stroke-width="5" stroke-miterlimit="10"/>
<path d="M2984.5 1692.1C2989.64 1692.1 2993.8 1687.94 2993.8 1682.8C2993.8 1677.66 2989.64 1673.5 2984.5 1673.5C2979.36 1673.5 2975.2 1677.66 2975.2 1682.8C2975.2 1687.94 2979.36 1692.1 2984.5 1692.1Z" fill="white" stroke="#FF7081" stroke-width="5" stroke-miterlimit="10"/>
<path d="M2950.1 1692.1C2955.24 1692.1 2959.4 1687.94 2959.4 1682.8C2959.4 1677.66 2955.24 1673.5 2950.1 1673.5C2944.96 1673.5 2940.8 1677.66 2940.8 1682.8C2940.8 1687.94 2944.96 1692.1 2950.1 1692.1Z" fill="#FF7081" stroke="#FF7081" stroke-width="5" stroke-miterlimit="10"/>
<path d="M2915.8 1692.1C2920.94 1692.1 2925.1 1687.94 2925.1 1682.8C2925.1 1677.66 2920.94 1673.5 2915.8 1673.5C2910.66 1673.5 2906.5 1677.66 2906.5 1682.8C2906.5 1687.94 2910.66 1692.1 2915.8 1692.1Z" fill="white" stroke="#FF7081" stroke-width="5" stroke-miterlimit="10"/>
<path d="M2984.5 1726.7C2989.64 1726.7 2993.8 1722.54 2993.8 1717.4C2993.8 1712.26 2989.64 1708.1 2984.5 1708.1C2979.36 1708.1 2975.2 1712.26 2975.2 1717.4C2975.2 1722.54 2979.36 1726.7 2984.5 1726.7Z" fill="white" stroke="#FF7081" stroke-width="5" stroke-miterlimit="10"/>
<path d="M2950.1 1726.7C2955.24 1726.7 2959.4 1722.54 2959.4 1717.4C2959.4 1712.26 2955.24 1708.1 2950.1 1708.1C2944.96 1708.1 2940.8 1712.26 2940.8 1717.4C2940.8 1722.54 2944.96 1726.7 2950.1 1726.7Z" fill="white" stroke="#FF7081" stroke-width="5" stroke-miterlimit="10"/>
<path d="M2915.8 1726.7C2920.94 1726.7 2925.1 1722.54 2925.1 1717.4C2925.1 1712.26 2920.94 1708.1 2915.8 1708.1C2910.66 1708.1 2906.5 1712.26 2906.5 1717.4C2906.5 1722.54 2910.66 1726.7 2915.8 1726.7Z" fill="#FF7081" stroke="#FF7081" stroke-width="5" stroke-miterlimit="10"/>
<path d="M2713.5 1726.7C2718.64 1726.7 2722.8 1722.54 2722.8 1717.4C2722.8 1712.26 2718.64 1708.1 2713.5 1708.1C2708.36 1708.1 2704.2 1712.26 2704.2 1717.4C2704.2 1722.54 2708.36 1726.7 2713.5 1726.7Z" fill="#FF7081" stroke="#FF7081" stroke-width="5" stroke-miterlimit="10"/>
<path d="M2679.1 1726.7C2684.24 1726.7 2688.4 1722.54 2688.4 1717.4C2688.4 1712.26 2684.24 1708.1 2679.1 1708.1C2673.96 1708.1 2669.8 1712.26 2669.8 1717.4C2669.8 1722.54 2673.96 1726.7 2679.1 1726.7Z" fill="white" stroke="#FF7081" stroke-width="5" stroke-miterlimit="10"/>
<path d="M2644.8 1657.5C2649.94 1657.5 2654.1 1653.34 2654.1 1648.2C2654.1 1643.06 2649.94 1638.9 2644.8 1638.9C2639.66 1638.9 2635.5 1643.06 2635.5 1648.2C2635.5 1653.34 2639.66 1657.5 2644.8 1657.5Z" fill="white" stroke="#FF7081" stroke-width="5" stroke-miterlimit="10"/>
<path d="M2713.5 1692.1C2718.64 1692.1 2722.8 1687.94 2722.8 1682.8C2722.8 1677.66 2718.64 1673.5 2713.5 1673.5C2708.36 1673.5 2704.2 1677.66 2704.2 1682.8C2704.2 1687.94 2708.36 1692.1 2713.5 1692.1Z" fill="white" stroke="#FF7081" stroke-width="5" stroke-miterlimit="10"/>
<path d="M2679.1 1692.1C2684.24 1692.1 2688.4 1687.94 2688.4 1682.8C2688.4 1677.66 2684.24 1673.5 2679.1 1673.5C2673.96 1673.5 2669.8 1677.66 2669.8 1682.8C2669.8 1687.94 2673.96 1692.1 2679.1 1692.1Z" fill="white" stroke="#FF7081" stroke-width="5" stroke-miterlimit="10"/>
<path d="M2644.8 1692.1C2649.94 1692.1 2654.1 1687.94 2654.1 1682.8C2654.1 1677.66 2649.94 1673.5 2644.8 1673.5C2639.66 1673.5 2635.5 1677.66 2635.5 1682.8C2635.5 1687.94 2639.66 1692.1 2644.8 1692.1Z" fill="#FF7081" stroke="#FF7081" stroke-width="5" stroke-miterlimit="10"/>
<path d="M2843.5 1761.3C2848.64 1761.3 2852.8 1757.14 2852.8 1752C2852.8 1746.86 2848.64 1742.7 2843.5 1742.7C2838.36 1742.7 2834.2 1746.86 2834.2 1752C2834.2 1757.14 2838.36 1761.3 2843.5 1761.3Z" fill="white" stroke="#FF7081" stroke-width="5" stroke-miterlimit="10"/>
<path d="M2809.1 1761.3C2814.24 1761.3 2818.4 1757.14 2818.4 1752C2818.4 1746.86 2814.24 1742.7 2809.1 1742.7C2803.96 1742.7 2799.8 1746.86 2799.8 1752C2799.8 1757.14 2803.96 1761.3 2809.1 1761.3Z" fill="white" stroke="#FF7081" stroke-width="5" stroke-miterlimit="10"/>
<path d="M2774.8 1761.3C2779.94 1761.3 2784.1 1757.14 2784.1 1752C2784.1 1746.86 2779.94 1742.7 2774.8 1742.7C2769.66 1742.7 2765.5 1746.86 2765.5 1752C2765.5 1757.14 2769.66 1761.3 2774.8 1761.3Z" fill="#FF7081" stroke="#FF7081" stroke-width="5" stroke-miterlimit="10"/>
<path d="M2843.5 1692.1C2848.64 1692.1 2852.8 1687.94 2852.8 1682.8C2852.8 1677.66 2848.64 1673.5 2843.5 1673.5C2838.36 1673.5 2834.2 1677.66 2834.2 1682.8C2834.2 1687.94 2838.36 1692.1 2843.5 1692.1Z" fill="#FF7081" stroke="#FF7081" stroke-width="5" stroke-miterlimit="10"/>
<path d="M2809.1 1692.1C2814.24 1692.1 2818.4 1687.94 2818.4 1682.8C2818.4 1677.66 2814.24 1673.5 2809.1 1673.5C2803.96 1673.5 2799.8 1677.66 2799.8 1682.8C2799.8 1687.94 2803.96 1692.1 2809.1 1692.1Z" fill="white" stroke="#FF7081" stroke-width="5" stroke-miterlimit="10"/>
<path d="M2774.8 1692.1C2779.94 1692.1 2784.1 1687.94 2784.1 1682.8C2784.1 1677.66 2779.94 1673.5 2774.8 1673.5C2769.66 1673.5 2765.5 1677.66 2765.5 1682.8C2765.5 1687.94 2769.66 1692.1 2774.8 1692.1Z" fill="white" stroke="#FF7081" stroke-width="5" stroke-miterlimit="10"/>
<path d="M2843.5 1726.7C2848.64 1726.7 2852.8 1722.54 2852.8 1717.4C2852.8 1712.26 2848.64 1708.1 2843.5 1708.1C2838.36 1708.1 2834.2 1712.26 2834.2 1717.4C2834.2 1722.54 2838.36 1726.7 2843.5 1726.7Z" fill="white" stroke="#FF7081" stroke-width="5" stroke-miterlimit="10"/>
<path d="M2809.1 1726.7C2814.24 1726.7 2818.4 1722.54 2818.4 1717.4C2818.4 1712.26 2814.24 1708.1 2809.1 1708.1C2803.96 1708.1 2799.8 1712.26 2799.8 1717.4C2799.8 1722.54 2803.96 1726.7 2809.1 1726.7Z" fill="#FF7081" stroke="#FF7081" stroke-width="5" stroke-miterlimit="10"/>
<path d="M2774.8 1726.7C2779.94 1726.7 2784.1 1722.54 2784.1 1717.4C2784.1 1712.26 2779.94 1708.1 2774.8 1708.1C2769.66 1708.1 2765.5 1712.26 2765.5 1717.4C2765.5 1722.54 2769.66 1726.7 2774.8 1726.7Z" fill="white" stroke="#FF7081" stroke-width="5" stroke-miterlimit="10"/>
<path d="M3338.5 1663.6H2877L2877.4 1609.8H2599.4L2518.5 1372.8L2431.9 1532.3L2676.4 1740.9L2559.5 1899.3L2270.7 1714.2C2218.4 1680.1 2186.9 1622 2186.9 1559.6C2186.9 1528.4 2194.8 1497.6 2210 1470.3L2344.8 1226.5C2401.4 1124.2 2509 1060.8 2625.8 1060.8H3058.7C3130.7 1060.8 3198.2 1095.8 3239.7 1154.6L3449.6 1446.8C3514.9 1537.3 3450.1 1663.6 3338.5 1663.6Z" fill="white" stroke="#FF7081" stroke-width="6" stroke-miterlimit="10"/>
<path d="M2654.3 1844.7C2620.1 1890.7 2578 1917.1 2560.1 1903.8C2542.2 1890.5 2555.4 1842.5 2589.5 1796.5C2623.7 1750.5 2661.8 1726.1 2679.7 1739.4C2697.6 1752.7 2688.4 1798.8 2654.3 1844.7Z" fill="#FF7081"/>
<path d="M2663.1 1061.2L2801.6 1253.1L2929.4 1061.2H2663.1Z" stroke="#FF7081" stroke-width="6" stroke-miterlimit="10"/>
<path d="M2803.1 1323C2811.11 1323 2817.6 1316.51 2817.6 1308.5C2817.6 1300.49 2811.11 1294 2803.1 1294C2795.09 1294 2788.6 1300.49 2788.6 1308.5C2788.6 1316.51 2795.09 1323 2803.1 1323Z" stroke="#FF7081" stroke-width="6" stroke-miterlimit="10"/>
<path d="M2803.1 1415C2811.11 1415 2817.6 1408.51 2817.6 1400.5C2817.6 1392.49 2811.11 1386 2803.1 1386C2795.09 1386 2788.6 1392.49 2788.6 1400.5C2788.6 1408.51 2795.09 1415 2803.1 1415Z" stroke="#FF7081" stroke-width="6" stroke-miterlimit="10"/>
<path d="M3092.8 1360.6L3158.9 1463.1H2880.9V1667.1" stroke="#FF7081" stroke-width="6" stroke-miterlimit="10"/>
<path d="M3158.9 1463.1H3231.8" stroke="#FF7081" stroke-width="6" stroke-miterlimit="10"/>
<path d="M2880.9 1667.1C2903.21 1667.1 2921.3 1620.67 2921.3 1563.4C2921.3 1506.13 2903.21 1459.7 2880.9 1459.7C2858.59 1459.7 2840.5 1506.13 2840.5 1563.4C2840.5 1620.67 2858.59 1667.1 2880.9 1667.1Z" fill="#FF7081"/>
<path d="M2920.9 1463.4C2943.2 1463.4 2961.3 1508.2 2961.3 1563.4C2961.3 1618.6 2943.2 1663.4 2920.9 1663.4" stroke="#FF7081" stroke-width="6" stroke-miterlimit="10"/>
<path d="M2529 1879.9C2511.1 1866.6 2524.3 1818.6 2558.4 1772.6C2592.6 1726.6 2628.7 1702.2 2646.6 1715.5" stroke="#FF7081" stroke-width="6" stroke-miterlimit="10"/>
<path d="M2664.1 978.3C2664.8 879.7 2730.3 852.7 2837.9 861.3C2953.9 870.6 2906.4 1030.2 2970.8 1035.5C2997.8 1037.7 3028.6 1007.1 3069.6 981.9C3103.4 959.1 3144.1 945.8 3188 945.8C3305.1 945.8 3400.1 1040.8 3400.1 1157.9C3400.1 1211.8 3375 1263.9 3341.9 1301.3C3341.9 1301.3 3216.8 1125.6 3168.3 1109.1C3072.9 1076.7 3042.6 1160.5 2976.4 1173.5C2967.7 1175.2 2958.4 1175.7 2948.2 1174.5C2854 1163.7 2872 1008.4 2872 1008.4C2847.6 998.4 2842.3 973.1 2841.4 957.8C2841.9 950.4 2841.6 945.5 2841.6 945.5C2841.6 945.5 2841 950.5 2841.4 957.8C2839.4 986.6 2821.8 1055.5 2723.7 1030.8V1064.3C2723.7 1267.2 2727 1306.6 2685.9 1357.6C2679.8 1365.2 2639 1426.5 2712.1 1459.6C2806.3 1502.2 2739.8 1614.3 2739.8 1614.3H2540.5C2540.5 1614.3 2422.2 1593.3 2411.9 1485.9C2397.2 1332.4 2589.7 1291.3 2614.8 1286.6C2566 1279.1 2518.3 1231 2518.3 1172.7C2518.3 1121 2558 1077.3 2598.8 1062.9C2598.9 1062.9 2598.9 1062.9 2599 1062.8C2600.2 1062.4 2601.4 1062 2602.6 1061.6C2634.5 1050.6 2658 1026.4 2663.2 997.1L2664.1 978.3Z" fill="#A574D2"/>
<path d="M2841.9 979.4C2841.8 979.4 2841.8 979.4 2841.9 979.4C2840.5 979.4 2839.4 978.2 2839.4 976.9L2840.2 925.8C2840.2 924.4 2841.3 923.3 2842.7 923.3C2844.1 923.3 2845.2 924.5 2845.2 925.8L2844.4 976.9C2844.3 978.3 2843.2 979.4 2841.9 979.4Z" fill="#FFAFA7"/>
<path d="M2728.1 1037.6C2727.7 1037.6 2727.3 1037.5 2726.9 1037.3C2702.7 1024.6 2697.6 1011.6 2697.3 1011.1C2696.8 1009.8 2697.5 1008.4 2698.8 1007.9C2700.1 1007.4 2701.5 1008.1 2702 1009.3C2702.1 1009.5 2707 1021.2 2729.2 1032.9C2730.4 1033.5 2730.9 1035.1 2730.3 1036.3C2729.9 1037.1 2729 1037.6 2728.1 1037.6Z" fill="#FFAFA7"/>
<path d="M3064 950.7C3080.57 950.7 3094 937.268 3094 920.7C3094 904.131 3080.57 890.7 3064 890.7C3047.43 890.7 3034 904.131 3034 920.7C3034 937.268 3047.43 950.7 3064 950.7Z" fill="#A574D2"/>
<path d="M2710.9 1425.1C2724.21 1425.1 2735 1414.31 2735 1401C2735 1387.69 2724.21 1376.9 2710.9 1376.9C2697.59 1376.9 2686.8 1387.69 2686.8 1401C2686.8 1414.31 2697.59 1425.1 2710.9 1425.1Z" fill="#A574D2"/>
<path d="M2862.7 1763.7L2862.6 1781.9C2862.6 1783.5 2862.2 1785.1 2861.6 1786.5L2817.8 1884.1C2811.3 1898.2 2797.2 1907.2 2781.7 1907.2H2688C2664.6 1907.2 2641.9 1899.3 2623.5 1884.9L2620.2 1882.3L2564.4 1838.4C2570.6 1825 2579.1 1810.7 2589.6 1796.6C2609.6 1769.6 2632.5 1749.4 2651.5 1739.9H2786C2796.7 1763.8 2761.9 1783 2761.9 1783H2822.7L2844.7 1759.1C2850.4 1752.9 2860.7 1755.6 2862.7 1763.7Z" fill="#FFAFA7"/>
<path d="M2828.1 1854.4C2821.6 1868.5 2807.5 1877.5 2792 1877.5H2713.1" stroke="#FFAFA7" stroke-width="5" stroke-miterlimit="10" stroke-linecap="round"/>
<path d="M2841.9 1823.5C2835.4 1837.6 2821.3 1846.6 2805.8 1846.6H2726.9" stroke="#FFAFA7" stroke-width="5" stroke-miterlimit="10" stroke-linecap="round"/>
<path d="M2856.8 1789.1C2850.3 1803.2 2836.2 1812.2 2820.7 1812.2H2741.8" stroke="#FFAFA7" stroke-width="5" stroke-miterlimit="10" stroke-linecap="round"/>
<path d="M2653.3 1842.7C2644.4 1857.2 2631.3 1872.3 2620.2 1882.3L2620.1 1882.2L2564.3 1838.3C2570.5 1824.9 2579 1810.6 2589.5 1796.5C2609.5 1769.5 2632.4 1749.3 2651.4 1739.8H2680.3C2682.9 1762.5 2679.1 1800.7 2653.3 1842.7Z" fill="#FFAFA7"/>
<path d="M2749.2 1534.2C2749.2 1534.2 2797.8 1404.5 2816.6 1407.1C2835.3 1409.6 2774.7 1524.6 2774.7 1524.6L2749.2 1534.2Z" fill="#FF7081"/>
<path d="M2921.3 1563.4C2921.3 1618.9 2904.3 1664.1 2883 1666.9C2882.3 1667 2881.6 1667 2880.9 1667H2682.9C2676.9 1667 2672.1 1662.2 2672.1 1656.2V1593C2672.1 1575.1 2683.1 1559.1 2699.8 1552.8L2782.7 1521.4C2790.2 1518.6 2798.2 1517.1 2806.2 1517.1H2917C2919.7 1531.1 2921.3 1546.8 2921.3 1563.4Z" fill="#FFAFA7"/>
<path d="M2759.1 1566.8L2696.5 1590.5C2683.9 1595.3 2675.6 1607.4 2675.6 1620.8" stroke="#FFAFA7" stroke-width="5" stroke-miterlimit="10" stroke-linecap="round"/>
<path d="M2759.1 1604.6L2696.5 1628.3C2683.9 1633.1 2675.6 1645.2 2675.6 1658.6" stroke="#FFAFA7" stroke-width="5" stroke-miterlimit="10" stroke-linecap="round"/>
<path d="M2755.7 1639.9L2693.1 1663.6" stroke="#FFAFA7" stroke-width="5" stroke-miterlimit="10" stroke-linecap="round"/>
<path d="M2921.3 1563.4C2921.3 1618.9 2904.3 1664.1 2883 1666.9C2882.3 1667 2881.6 1667 2880.9 1667C2858.6 1667 2840.5 1620.6 2840.5 1563.3C2840.5 1548 2842.8 1530.6 2845.2 1517H2916.5C2919 1530.7 2921.3 1548.1 2921.3 1563.4Z" fill="#FFAFA7"/>
<path d="M2904.7 1030.7C2904.7 1036.5 2902.7 1042 2899.4 1046.3C2896 1050.7 2891.3 1053.9 2885.6 1055.4L2871.8 1059V1074.4C2871.8 1111.6 2841.7 1141.7 2804.5 1141.7H2791.2C2754.1 1141.7 2724.1 1111.7 2723.9 1074.7V1030.7C2822 1055.5 2839.6 986.5 2841.6 957.7C2842.4 972.3 2847.3 995.9 2868.9 1006.8L2872.7 1005.8C2888.9 1001.8 2904.7 1014 2904.7 1030.7Z" fill="#FFAFA7"/>
<path d="M2821.3 1043.1C2821.3 1043.1 2841.7 1041.1 2853.5 1051.2" stroke="#FFAFA7" stroke-width="5" stroke-miterlimit="10" stroke-linecap="round"/>
<path d="M2742.1 1048.8C2742.1 1048.8 2757.1 1040.7 2773.9 1048.1C2783.9 1052.5 2790.5 1076.1 2790.7 1107.3" stroke="#FFAFA7" stroke-width="5" stroke-miterlimit="10" stroke-linecap="round"/>
<path d="M2761.3 1079.3C2763.45 1079.3 2765.2 1075.94 2765.2 1071.8C2765.2 1067.66 2763.45 1064.3 2761.3 1064.3C2759.15 1064.3 2757.4 1067.66 2757.4 1071.8C2757.4 1075.94 2759.15 1079.3 2761.3 1079.3Z" fill="#FFAFA7"/>
<path d="M2833.9 1079.3C2836.05 1079.3 2837.8 1075.94 2837.8 1071.8C2837.8 1067.66 2836.05 1064.3 2833.9 1064.3C2831.75 1064.3 2830 1067.66 2830 1071.8C2830 1075.94 2831.75 1079.3 2833.9 1079.3Z" fill="#FFAFA7"/>
<path d="M2875.6 1040.4C2875.6 1031.7 2881.7 1024.2 2890.2 1022.4" stroke="#FFAFA7" stroke-width="5" stroke-miterlimit="10" stroke-linecap="round"/>
<path d="M2074.7 2576.9C2086.6 2604.9 2083.1 2662.5 2023.2 2661.7C1948.9 2660.7 1950.8 2460.5 1950.8 2460.5C1950.8 2460.5 2026.7 2464 2074.7 2576.9Z" fill="#7CABFF"/>
<path d="M1382.7 2509.2C1364.1 2548.6 1389.1 2580.3 1410.1 2569.4C1446.8 2550.3 1462.6 2501.2 1462.6 2501.2C1462.6 2501.2 1399.4 2474 1382.7 2509.2Z" fill="#7CABFF"/>
<path d="M2073.7 2576.9C2033.9 2497.2 1989 2459.3 1917.1 2459.3C1796 2459.3 1718.3 2588.9 1703.5 2756.5C1701.7 2735.7 1680.2 2714.4 1678.6 2692.8C1657 2405.8 1814.3 2292.6 1932.3 2292.6C2028.9 2292.5 2053 2431.3 2073.7 2576.9Z" fill="white" stroke="#7CABFF" stroke-width="6" stroke-miterlimit="10"/>
<path d="M1678.7 2760.5C1657.1 2473.5 1821.7 2360.3 1930.4 2360.3C1990.7 2360.3 2028.5 2395.9 2057.6 2476.9" stroke="#7CABFF" stroke-width="6" stroke-miterlimit="10"/>
<path d="M1225.6 2171.5C1193.3 2203.5 1134.9 2334.7 1207.2 2360.7C1279.5 2386.8 1364.2 2129.9 1364.2 2129.9C1364.2 2129.9 1302.9 2094.8 1225.6 2171.5Z" fill="#FBC580" stroke="#FBC580" stroke-width="6" stroke-miterlimit="10"/>
<path d="M1821.7 2767.6L1795.9 2907.5C1782.9 2977.7 1721.7 3028.7 1650.3 3028.7C1578.9 3028.7 1517.7 2977.7 1504.7 2907.5L1478.9 2767.6C1478.9 2760.6 1480.5 2753.9 1483.3 2747.9C1504 2768.7 1571.3 2783.9 1651 2783.9C1729.6 2783.9 1796 2769.1 1817.8 2748.9C1820.3 2754.6 1821.7 2761 1821.7 2767.6Z" fill="#F1E6FF"/>
<path d="M1804.8 2734.4C1804.8 2754.2 1735.9 2770.2 1650.9 2770.2C1565.9 2770.2 1497 2754.2 1497 2734.4C1497 2732.8 1497.4 2731.3 1498.3 2729.8C1508.1 2712.2 1572.7 2698.7 1650.9 2698.7C1731.5 2698.7 1797.6 2713.1 1804.2 2731.4C1804.6 2732.4 1804.8 2733.4 1804.8 2734.4Z" fill="#A574D2"/>
<path d="M1706.1 2525.7C1706.1 2608.5 1694.7 2686.7 1674.4 2755.5H1616C1615.8 2407.8 1489 2126.1 1332.7 2126.1C1292.1 2126.1 1253.5 2145.1 1218.6 2179.3C1321.4 2059 1364.1 2026 1422.8 2026C1563 2026 1706.1 2249.7 1706.1 2525.7Z" fill="white" stroke="#FBC580" stroke-width="6" stroke-miterlimit="10"/>
<path d="M1284 2106C1317.4 2081.7 1338.9 2070.4 1377.2 2070.4C1533.6 2070.4 1691.9 2331.4 1650.2 2755.4" stroke="#FBC580" stroke-width="6" stroke-miterlimit="10"/>
<path d="M1650.6 2755.4C1650.6 2755.4 1659.2 2428.9 1481.3 2427.8C1434.2 2427.5 1390.1 2502.2 1390.1 2502.2C1390.1 2502.2 1598.4 2447.8 1608.7 2755.4H1650.6Z" fill="white" stroke="#7CABFF" stroke-width="6" stroke-miterlimit="10"/>
<path d="M1628.8 2756.4C1631.3 2664.4 1608.1 2442.4 1428.3 2454.3" stroke="#7CABFF" stroke-width="6" stroke-miterlimit="10"/>
<path d="M1389.3 2192.5C1398.41 2192.5 1405.8 2185.11 1405.8 2176C1405.8 2166.89 1398.41 2159.5 1389.3 2159.5C1380.19 2159.5 1372.8 2166.89 1372.8 2176C1372.8 2185.11 1380.19 2192.5 1389.3 2192.5Z" fill="white" stroke="#FBC580" stroke-width="6" stroke-miterlimit="10"/>
<path d="M1778.2 2664.4C1791.51 2664.4 1802.3 2653.61 1802.3 2640.3C1802.3 2626.99 1791.51 2616.2 1778.2 2616.2C1764.89 2616.2 1754.1 2626.99 1754.1 2640.3C1754.1 2653.61 1764.89 2664.4 1778.2 2664.4Z" fill="white" stroke="#FBC580" stroke-width="6" stroke-miterlimit="10"/>
<path d="M1738.2 2199.5C1763.33 2199.5 1783.7 2179.13 1783.7 2154C1783.7 2128.87 1763.33 2108.5 1738.2 2108.5C1713.07 2108.5 1692.7 2128.87 1692.7 2154C1692.7 2179.13 1713.07 2199.5 1738.2 2199.5Z" fill="#F1E6FF"/>
<path d="M1857.7 3187.2L1817.4 2986.5C1814 2969.4 1791.2 2965.4 1782.2 2980.4C1726.6 3072.9 1575.6 3073.5 1519.1 2981.3L1518.1 2979.6C1509 2964.8 1486.4 2968.8 1483 2985.8L1442.6 3187.1" stroke="#A574D2" stroke-width="6" stroke-miterlimit="10"/>
<path d="M1650.2 3050.2V3188.1" stroke="#A574D2" stroke-width="6" stroke-miterlimit="10"/>
<path d="M1351.1 3187.2H2691.5" stroke="#A574D2" stroke-width="6" stroke-miterlimit="10"/>
</svg>
