<svg width="5000" height="3500" viewBox="0 0 5000 3500" fill="none" xmlns="http://www.w3.org/2000/svg">
<path d="M4256.7 3193.8L3077.8 3195.9C2933.3 3196.9 2779.8 3197.4 2620.6 3197.4C2233.1 3197.4 1878.9 3194.2 1608 3188.9H517.5C517.5 2996.3 729.5 3080.9 785.4 3114.9C850.4 3154.4 766.7 2944.1 899.4 2944.1C1013 2944.1 1078 3001.2 1078 3001.2C1078 3001.2 1081.1 2890.2 1188.8 2888.6C1296.5 2887 1364.9 2981.9 1449.9 3060C1485 3092.2 1527.2 3117.8 1567.1 3137.3C1842.8 3131.5 2213.2 3127.9 2620.6 3127.9C2813.6 3127.9 2998.2 3128.7 3168.5 3130.2C3471.1 3130.2 3748.2 2971.1 3826.8 2931.2C4021 2832.4 3929 3067.9 3929 3067.9C3929 3067.9 4078.7 3004.9 4184 3005.4C4332.7 3006 4256.7 3193.8 4256.7 3193.8Z" fill="#F1E6FF"/>
<path d="M3645 3188C3645 3188 3674.8 2919.8 3480.8 2833.5C3480.8 2833.5 3452.2 3125.3 3549 3106.2C3585.3 3099 3507.4 3028.2 3380.4 3025.2C3380.4 3025.2 3477.7 3188.7 3595.9 3191" stroke="#FBC580" stroke-width="6" stroke-miterlimit="10"/>
<path d="M3596.3 3190.6C3596.3 3190.6 3607.5 3067.9 3727.1 3029.7C3835.1 2995.3 3646.1 3187.6 3646.1 3187.6" stroke="#FBC580" stroke-width="6" stroke-miterlimit="10"/>
<path d="M910.7 3179.4C910.7 3179.4 739.2 3061.9 690.9 2870.2C690.9 2870.2 842.7 2915.6 907.1 3012.2C907.1 3012.2 933.5 2792.3 997.3 2718.3C997.3 2718.3 1031.8 2767.9 1036.1 2951.7C1036.1 2951.7 1114.3 2818.5 1172.5 2775.5C1172.5 2775.5 1164.5 2948.8 1122.9 3037.3C1122.9 3037.3 1183 2990.5 1223.6 3036.4C1264.2 3082.3 1184.6 3149.5 1184.6 3149.5" stroke="#A574D2" stroke-width="5" stroke-miterlimit="10"/>
<path d="M997.4 2724.8C997.4 2724.8 999.1 3125.4 980.9 3177.3" stroke="#A574D2" stroke-width="5" stroke-miterlimit="10"/>
<path d="M1166.9 2785.6C1166.9 2785.6 1047.3 3092.9 980.9 3177.3" stroke="#A574D2" stroke-width="5" stroke-miterlimit="10"/>
<path d="M1121.1 3038.7C1116.7 3054.8 1086.4 3099.2 1080.4 3080.1C1074.5 3061 1129 3030.1 1142.7 3025" stroke="#A574D2" stroke-width="5" stroke-miterlimit="10"/>
<path d="M907.2 3012.3C915.3 3027.9 942.7 3071.7 915 3070.6C896.9 3069.9 912.1 2978 912.1 2978" stroke="#A574D2" stroke-width="5" stroke-miterlimit="10"/>
<path d="M3168.1 2850.1C3100.1 2883.4 3106.5 2947.3 3105.9 2990.2C3105.2 3035.9 3018 3059.8 3018 3059.8C3041.2 2986.7 3024.7 2911.4 3024.7 2911.4L3168.1 2850.1Z" fill="#FFAFA7"/>
<path d="M3240.2 3018.4L3224.7 3026.8L3192.2 2952.5C3190.5 2948.6 3186.7 2946.3 3182.8 2946.3C3181.5 2946.3 3180.1 2946.6 3178.8 2947.1C3175.5 2948.5 3173.1 2951.6 3172.7 2955.2L3158.4 3062.9L2970.3 3165.3C2964.7 3151.9 2999.6 3118.3 3018.1 3059.8C3018.1 3059.8 3105.4 3035.9 3106 2990.2C3106.6 2947.3 3100.3 2883.3 3168.2 2850.1L3182.5 2844C3260.5 2879.9 3240.2 3018.4 3240.2 3018.4Z" fill="#FBC580"/>
<path d="M3182.4 2316.4V2844L3026.8 2911.5L2910.2 2381.8C2962.4 2383.8 3049.4 2372.8 3182.4 2316.4Z" fill="white" stroke="#FFAFA7" stroke-width="5" stroke-miterlimit="10"/>
<path d="M3068 2362.8L3098.7 2880.1" stroke="#FFAFA7" stroke-width="5" stroke-miterlimit="10"/>
<path d="M3182.4 2316.4V2454.5L2917.6 2416.2L2910.2 2381.8C2962.4 2383.8 3049.4 2372.8 3182.4 2316.4Z" fill="#FFAFA7"/>
<path d="M3966.6 1958.4L3866 1979.6C3862.6 1980.3 3859.2 1979.2 3856.8 1976.7C3855.1 1974.8 3854.2 1972.5 3854.2 1970.1C3854.2 1967.5 3855.2 1964.9 3857.3 1963L3913.3 1910.5L3900.9 1899.4C3900.9 1899.4 3770.9 1924.9 3763.5 2006L3773.4 2016.8C3824.5 2067 3879.6 2041.1 3918.1 2028.1C3954.9 2015.7 3998.8 2072.8 4007.5 2084.6C4007.6 2084.6 4007.8 2084.6 4007.9 2084.6C4065.9 2082.7 4107 2103.3 4117.1 2094L3966.6 1958.4Z" fill="#FBC580"/>
<path d="M3773.5 2016.8C3824.6 2067 3879.7 2041.1 3918.2 2028.1C3959.2 2014.3 4008.1 2084.6 4008.1 2084.6C3935.5 2086.9 3873.6 2125.4 3873.6 2125.4L3773.5 2016.8Z" fill="#FFAFA7"/>
<path d="M3152.3 2320.9C3152.3 2320.9 3177.6 2491.8 3371.7 2488.6C3565.8 2485.4 3871.5 2124.4 3871.5 2124.4L3764 2006.6L3152.3 2320.9Z" fill="white" stroke="#FFAFA7" stroke-width="5" stroke-miterlimit="10"/>
<path d="M3264.2 2274.5C3270.6 2319.5 3300.8 2361.9 3392.9 2360.4C3529.7 2358.2 3723 2178.7 3825.2 2072.9" stroke="#FFAFA7" stroke-width="5" stroke-miterlimit="10"/>
<path d="M3999.5 1658C3981.8 1651.3 3939.7 1674.3 3908 1714.3C3873.9 1757.2 3860.1 1802.8 3875.1 1814.7L3394.8 1559.3C3371.2 1546.8 3344 1568.2 3350.7 1594L3496.1 2144.8C3003.6 2464.4 2845.7 2368.6 2845.7 2368.6V558.6C2845.7 558.7 2845.7 558.7 2845.8 558.8C2850 569.5 2895.1 562 2946.6 541.9C2994 523.5 3030.2 500.9 3032.5 489.1L3032.6 489V1059.3C3032.6 1095.1 3051.9 1128 3083.1 1145.5L3999.5 1658Z" fill="#A574D2"/>
<path d="M3999.5 1658C3981.8 1651.3 3939.7 1674.3 3908 1714.3C3873.9 1757.2 3860.1 1802.8 3875.1 1814.7L3394.8 1559.3C3371.2 1546.8 3344 1568.2 3350.7 1594L3496.1 2147C3370.9 2228.3 3267.3 2280.5 3182.4 2316.5C3049.4 2372.8 2962.4 2383.9 2910.2 2381.9C2864.7 2380.2 2845.7 2368.6 2845.7 2368.6V558.6C2845.7 558.7 2845.7 558.7 2845.8 558.8C2850 569.5 2895.1 562 2946.6 541.9C2994 523.5 3030.2 500.9 3032.5 489.1L3032.6 489V1059.3C3032.6 1095.1 3051.9 1128 3083.1 1145.5L3999.5 1658Z" fill="#A574D2"/>
<path d="M3310.6 1514.9L3875.1 1821.1" stroke="white" stroke-width="6" stroke-miterlimit="10" stroke-linecap="round"/>
<path d="M3096.5 1152.9L3033.2 1520.8L3356.3 1298.3L3096.5 1152.9Z" fill="#FBC580"/>
<path d="M3096.5 1152.9L3033.2 1520.8L3356.3 1298.3" stroke="white" stroke-width="6" stroke-miterlimit="10" stroke-linecap="round"/>
<path d="M3093.9 442.8L2676.8 528.3C2661.4 531.5 2645.5 517.8 2641.4 497.7C2637.3 477.6 2646.5 458.8 2661.9 455.6L3079 370.1L3093.9 442.8Z" fill="white" stroke="#7CABFF" stroke-width="5" stroke-miterlimit="10" stroke-linecap="round"/>
<path d="M3093.75 442.859C3109.17 439.698 3118.33 420.865 3114.22 400.793C3110.11 380.721 3094.27 367.012 3078.85 370.173C3063.43 373.333 3054.27 392.167 3058.38 412.239C3062.5 432.31 3078.33 446.02 3093.75 442.859Z" fill="white" stroke="#7CABFF" stroke-width="5" stroke-miterlimit="10" stroke-linecap="round"/>
<path d="M2855.9 479.2C2855.9 479.2 2721 630.8 2735.7 664.2C2754.9 683.3 2770.5 691.7 2768.2 698.8C2765.7 706.5 2733.4 753 2733.4 753L2730.2 718.5L2699.3 728.7C2699.3 728.7 2731.9 681.1 2734 666.5C2720.6 656.3 2693.3 635.1 2694.2 620.3C2695.2 604.6 2743 548.8 2777.7 510.3L2725.4 527.6L2715.1 479.3L2809.2 462L2855.9 479.2Z" fill="#A574D2"/>
<path d="M2837.6 485.8C2853.28 485.8 2866 473.085 2866 457.4C2866 441.715 2853.28 429 2837.6 429C2821.92 429 2809.2 441.715 2809.2 457.4C2809.2 473.085 2821.92 485.8 2837.6 485.8Z" fill="white" stroke="#A574D2" stroke-width="5" stroke-miterlimit="10"/>
<path d="M3032.5 489.1C3030.2 500.9 2994 523.5 2946.6 541.9C2895.1 561.9 2850 569.5 2845.8 558.8C2845.8 558.7 2845.8 558.7 2845.7 558.6C2842.1 547.8 2880.3 523.1 2931.5 503.2C2983 483.2 3028.1 475.6 3032.3 486.3C3032.6 487.1 3032.7 488 3032.5 489.1Z" fill="#FFAFA7"/>
<path d="M2997.8 405.1L2992.3 484.5L2989.7 522.5C2977.2 529.1 2962.5 535.7 2946.6 541.9C2919.6 552.4 2894.4 559.4 2875.9 562.3V489.7L2951.8 474.1C2951.8 474.1 2956 447 2964 424.3C2971.9 401.5 2997.8 405.1 2997.8 405.1Z" fill="#FFAFA7"/>
<path d="M2953.9 470.8C2952.8 475.3 2919.8 485.8 2919.8 509.8" stroke="#FFAFA7" stroke-width="4" stroke-miterlimit="10" stroke-linecap="round"/>
<path d="M2992.3 484.5L2989.7 522.5C2977.2 529.1 2962.5 535.7 2946.6 541.9C2919.6 552.4 2894.4 559.4 2875.9 562.3V529.5C2890.7 520.8 2910 511.6 2931.5 503.2C2953.9 494.4 2975.1 488 2992.3 484.5Z" fill="#FFAFA7"/>
<path d="M2942.6 444.8L2857.9 464.2C2853.4 465.2 2849.2 461.6 2849.2 456.6V405.2C2849.2 398.3 2853.4 392.3 2859.5 390.3L2943.2 363C2948.5 361.3 2953.8 365.5 2953.8 371.4V430C2953.7 437.1 2949.1 443.3 2942.6 444.8Z" fill="#FFAFA7"/>
<path d="M2879.2 456.2C2874.6 457.2 2870.2 453.7 2870.2 448.9V399.6C2870.2 393 2874.5 387.2 2880.8 385.3" stroke="#FFAFA7" stroke-width="4" stroke-miterlimit="10" stroke-linecap="round"/>
<path d="M2903.6 450.9C2899 451.9 2894.6 448.3 2894.6 443.4V392.6C2894.6 385.8 2898.9 379.8 2905.2 377.9" stroke="#FFAFA7" stroke-width="4" stroke-miterlimit="10" stroke-linecap="round"/>
<path d="M2930.9 445.1C2926.3 446.1 2921.9 442.4 2921.9 437.4V384.8C2921.9 377.8 2926.2 371.6 2932.5 369.6" stroke="#FFAFA7" stroke-width="4" stroke-miterlimit="10" stroke-linecap="round"/>
<path d="M3962.3 1757.4C3928.2 1800.4 3890 1826.5 3875 1814.6C3860 1802.7 3873.8 1757.2 3907.9 1714.2C3939.7 1674.2 3981.7 1651.2 3999.4 1657.9L4002.9 1659.9C4018 1671.9 3996.4 1714.5 3962.3 1757.4Z" fill="#FFAFA7"/>
<path d="M4116.6 1829.7L4093.9 1841.7C4084.9 1846.5 4073.7 1843.1 4068.9 1834.1L4045 1789.7L4008.8 1777.3C4012.8 1778.8 4028.4 1786.8 4023.5 1815.9L3938.5 1784.2L3909.3 1773.3L3881.6 1755.6C3888.1 1742.4 3897 1728.2 3908.1 1714.3C3917.4 1702.6 3927.5 1692.4 3937.6 1684L3966.5 1704.2L3996.1 1707.4L4044.2 1712.5C4051.9 1713.3 4059.3 1715.9 4065.8 1720L4104.2 1747.3C4109.8 1751.3 4113.5 1757.3 4114.4 1764.1L4122.2 1818.7C4122.9 1823.2 4120.6 1827.6 4116.6 1829.7Z" fill="#FFAFA7"/>
<path d="M4060.7 1740.8L4094 1764.5C4098.8 1767.9 4102 1773.2 4102.9 1779.1L4109.7 1823.2C4110.2 1827.1 4108.3 1830.9 4104.8 1832.7" stroke="#FFAFA7" stroke-width="4" stroke-miterlimit="10" stroke-linecap="round"/>
<path d="M4040.1 1748.7L4073.4 1772.4C4078.2 1775.8 4081.4 1781.1 4082.3 1787L4089.1 1831.1C4089.6 1835 4087.7 1838.8 4084.2 1840.6" stroke="#FFAFA7" stroke-width="4" stroke-miterlimit="10" stroke-linecap="round"/>
<path d="M4008.8 1777.2L3984.6 1769" stroke="#FFAFA7" stroke-width="4" stroke-miterlimit="10" stroke-linecap="round"/>
<path d="M3996.1 1707.4C3988 1722.7 3976.2 1740.1 3962.4 1757.5C3954.5 1767.4 3946.5 1776.4 3938.5 1784.2L3909.3 1773.3L3881.6 1755.6C3888.1 1742.4 3897 1728.2 3908.1 1714.3C3917.4 1702.6 3927.5 1692.4 3937.6 1684L3966.5 1704.2L3996.1 1707.4Z" fill="#FFAFA7"/>
<path d="M3122.9 885.9L3336.8 980.8L3413.1 1204L3258.1 1093.2L3185.8 1004.9L3122.9 885.9Z" fill="#A574D2"/>
<path d="M3185.8 1004.9C3185.8 1004.9 3255.8 1016.9 3284 1094.9L3298.9 1079.9C3298.9 1079.9 3271.8 1004 3200.2 984.5L3185.8 1004.9Z" fill="#FFAFA7"/>
<path d="M3603 1101.8C3579 1088.2 3556.8 1080.7 3549.7 1083.4C3550.2 1082.2 3550.5 1080.8 3550.4 1079.4C3550 1075 3546.4 1071.7 3542.1 1071.7C3541.9 1071.7 3541.7 1071.7 3541.4 1071.7C3536.8 1072.1 3533.4 1076.1 3533.7 1080.7C3533.7 1081 3533.8 1081.3 3533.8 1081.5L3508.4 1097.8C3502.7 1101.5 3495.7 1101.7 3489.7 1098.4C3483.7 1095.1 3480.2 1089.1 3480.2 1082.3V1045.8C3480.2 1029.9 3472.3 1015.2 3459 1006.4C3445.7 997.6 3429 996.2 3414.4 1002.4L3366 1024L3347.6 970.1L3132.6 874.8C3131.3 874.2 3129.7 874.8 3129.1 876.2C3128.5 877.5 3129.1 879.1 3130.5 879.7L3343.3 974.1L3419.2 1196.2C3419.6 1197.3 3420.6 1198 3421.7 1198C3422 1198 3422.3 1197.9 3422.6 1197.9C3424 1197.4 3424.7 1195.9 3424.3 1194.5L3367.8 1029.1L3416.6 1007.3C3429.6 1001.7 3444.4 1003 3456.1 1010.8C3467.9 1018.6 3474.9 1031.6 3474.9 1045.8V1082.3C3474.9 1091.1 3479.5 1098.9 3487.2 1103.1C3490.8 1105.1 3494.7 1106.1 3498.6 1106.1C3503 1106.1 3507.4 1104.8 3511.3 1102.3L3536.5 1086.2C3538 1087.6 3540 1088.4 3542.1 1088.4C3542.3 1088.4 3542.6 1088.4 3542.8 1088.4C3544.6 1088.3 3546.2 1087.6 3547.4 1086.5C3547.4 1093.6 3565.6 1109.5 3590.6 1123.7C3596 1126.8 3601.4 1129.6 3606.5 1132C3609.6 1129.4 3612.2 1126.3 3614.3 1122.6C3616.4 1119 3617.7 1115.1 3618.3 1111.1C3613.5 1108.1 3608.4 1104.9 3603 1101.8ZM3542.3 1084.2C3540 1084.4 3538.1 1082.7 3537.9 1080.5C3537.7 1078.3 3539.4 1076.3 3541.6 1076.1C3543.8 1075.9 3545.8 1077.6 3546 1079.8C3546.2 1082 3544.5 1084 3542.3 1084.2Z" fill="#FBC580"/>
<path d="M3171.9 1136.4L3134.9 1342.2L3261 1245V1116.7L3171.9 1136.4Z" fill="#FFAFA7"/>
<path d="M3171.9 1136.4L3167.3 1162.2L3223.1 1274.2L3261 1245V1116.7L3171.9 1136.4Z" fill="#FFAFA7"/>
<path d="M3187.9 1007C3187.9 1007 3124.8 991.3 3105.1 1027.9C3085.4 1064.5 3143 1074.6 3145.4 1061.8C3146.5 1056.2 3041.7 1056.3 3059.3 1135.6C3077.6 1218.2 3160.1 1189.8 3160.1 1189.8L3169.7 1136.4L3187.9 1007Z" fill="white" stroke="#FFAFA7" stroke-width="4" stroke-miterlimit="10"/>
<path d="M3260 1125.4C3260 1125.4 3165.8 1248.2 3248.6 1300.4C3315 1342.2 3332.1 1283.3 3314.3 1275.2C3295 1266.4 3250.7 1432.4 3387.1 1431.9C3523.8 1431.4 3482 1260.7 3413.1 1204.1C3380.2 1177.1 3270.4 1101.6 3270.4 1101.6L3260 1125.4Z" fill="white" stroke="#FFAFA7" stroke-width="4" stroke-miterlimit="10"/>
<path d="M3257.2 1094.6L3264.3 1099.1C3271.2 1103.5 3273.2 1112.6 3268.9 1119.5L3267.5 1121.6C3263.1 1128.5 3254 1130.6 3247.1 1126.2L3239.5 1121.4C3231.1 1127.4 3180.6 1161.1 3149.4 1127.6C3119.1 1095.1 3189.1 1000 3189.1 1000C3248.5 1018.6 3271.7 1071.4 3271.7 1071.4L3257.2 1094.6Z" fill="#FFAFA7"/>
<path d="M3169.6 1021.6C3169.6 1021.6 3186 1027.7 3184.4 1041.8C3182.8 1055.9 3168 1078.1 3171.5 1081.9C3175 1085.7 3179.7 1086.4 3179.7 1086.4" stroke="#FFAFA7" stroke-width="4" stroke-miterlimit="10" stroke-linecap="round"/>
<path d="M3165.6 1094.9C3165.6 1094.9 3177.8 1101.7 3194.4 1099.1" stroke="#FFAFA7" stroke-width="4" stroke-miterlimit="10" stroke-linecap="round"/>
<path d="M3217.89 1074.89C3219.31 1071.17 3218.83 1067.54 3216.81 1066.77C3214.8 1066 3212.02 1068.39 3210.61 1072.11C3209.19 1075.82 3209.67 1079.46 3211.69 1080.23C3213.7 1080.99 3216.48 1078.6 3217.89 1074.89Z" fill="#FFAFA7"/>
<path d="M3171.72 1053.71C3172.9 1050.61 3172.48 1047.57 3170.77 1046.92C3169.07 1046.28 3166.73 1048.26 3165.55 1051.36C3164.37 1054.45 3164.8 1057.49 3166.5 1058.14C3168.2 1058.79 3170.54 1056.8 3171.72 1053.71Z" fill="#FFAFA7"/>
<path d="M3252 1111.8C3254.8 1107.4 3260.6 1106.1 3265 1108.9" stroke="#FFAFA7" stroke-width="4" stroke-miterlimit="10" stroke-linecap="round"/>
<path d="M3215.1 1048.5C3215.1 1048.5 3227.3 1051.8 3233.6 1066.3" stroke="#FFAFA7" stroke-width="4" stroke-miterlimit="10" stroke-linecap="round"/>
<path d="M3233.3 1024.2C3233.3 1024.2 3220 1068.3 3258.1 1098.4C3280.5 1116.1 3281.8 1094.8 3281.8 1094.8C3281.8 1094.8 3278.9 1051.5 3233.3 1024.2Z" fill="white" stroke="#FFAFA7" stroke-width="4" stroke-miterlimit="10"/>
<path d="M2349.9 2154.3C2339.4 2116 2166 2151.9 1975 2221.4C1792.3 2287.9 1643.8 2377.6 1642.2 2413.7L1542 1682.8C1540.5 1672.5 1531.7 1664.9 1521.3 1664.9C1515.5 1664.9 1510.3 1667.2 1506.5 1671C1502.7 1674.8 1500.4 1680 1500.4 1685.8V2310C1499.2 2292.9 1455.1 2279.2 1400.9 2279.2C1346.7 2279.2 1302.7 2292.9 1301.4 2310V1608.6C1301.4 1549.4 1332.4 1494.6 1383 1464L1448.7 1424.3L1719.3 1260.9L1971 1107.7V846.2C1971 857.4 2017.3 866.4 2071.9 866.4C2126.4 866.4 2172.8 857.5 2172.8 846.2V1129.7C2172.8 1192.5 2142.1 1251.8 2093.1 1291L1940 1400.4C1913.9 1419 1907.6 1455.2 1925.8 1481.6C2027.3 1628.5 2339.2 2057.2 2349.8 2151.5C2349.9 2152.4 2349.9 2153.4 2349.9 2154.3Z" fill="#7CABFF"/>
<path d="M1968 1085.3V1162.3" stroke="white" stroke-width="6" stroke-miterlimit="10" stroke-linecap="round"/>
<path d="M1448.9 1424.3L1782.6 1647.5L1719.5 1260.9L1647.2 1303.7L1664.2 1462.2L1520.8 1379.3L1448.9 1424.3Z" stroke="white" stroke-width="6" stroke-miterlimit="10" stroke-linecap="round"/>
<path d="M2339.2 2163.9C2327.2 2130.8 2168.2 2169 1977.1 2238.5C1786 2308 1639.3 2395.9 1651.4 2429C1663.4 2462.1 1829.7 2427.9 2020.8 2358.4C2211.9 2288.9 2351.3 2197 2339.2 2163.9Z" stroke="#7CABFF" stroke-width="5" stroke-miterlimit="10" stroke-linecap="round"/>
<path d="M1904 2854.4L1893 2873.6L1880.8 2895C1775.3 2908.2 1756.7 2839.2 1756.7 2839.2L1772.6 2807.6C1815.2 2833.8 1869.2 2847.7 1904 2854.4Z" fill="#FFAFA7"/>
<path d="M2284 2352.3C2209 2481.6 1939.3 2860 1939.3 2860C1939.3 2860 1925.2 2858.5 1904 2854.4C1869.2 2847.6 1815.2 2833.8 1772.5 2807.6C1762.6 2801.5 1753.4 2794.8 1745.1 2787.3L1940.6 2390.3L1990 2286.2L2017.4 2228.4C2020.7 2227.2 2024 2226.1 2027.2 2225C2028.8 2224.4 2030.4 2223.9 2032.1 2223.3C2037 2221.6 2041.8 2220 2046.6 2218.4C2050.6 2217.1 2054.5 2215.8 2058.4 2214.4C2070.3 2210.4 2082 2206.7 2093.4 2203.1C2170 2178.9 2235.5 2162.6 2279.7 2157.6C2289.5 2171.3 2300.7 2191 2307.1 2215.7C2316.4 2251.8 2315.3 2298.4 2284 2352.3Z" fill="white" stroke="#FFAFA7" stroke-width="5" stroke-miterlimit="10"/>
<path d="M1956.6 3149.5C1953.2 3164.4 1934.7 3169.7 1923.9 3158.9L1682.2 2918L1757.8 2839.1C1757.8 2839.1 1775.3 2908 1880.9 2894.9C1966.2 3023.7 1966 3108 1956.6 3149.5Z" fill="white" stroke="#A574D2" stroke-width="5" stroke-miterlimit="10"/>
<path d="M1946.7 3164.7C1930.3 3171 1911.8 3167.7 1898.5 3156L1772.3 3045.1C1769.2 3042.3 1768.8 3037.6 1771.4 3034.3C1773.9 3031.2 1773.7 3026.6 1770.8 3023.8L1760.5 3013.8C1757.7 3011 1753.2 3010.9 1750.2 3013.5L1747.8 3015.5C1744.9 3018 1740.7 3018 1737.9 3015.5L1670.1 2956.6C1661.3 2949 1661 2935.4 1669.3 2927.3L1681.1 2915.9L1924.3 3161.4C1931.3 3168.4 1941.4 3168.7 1948.6 3164L1946.7 3164.7Z" fill="#A574D2"/>
<path d="M1913.8 2927.1C1913.8 2927.1 1934.3 2945.3 1885.3 2967.4" stroke="#A574D2" stroke-width="5" stroke-miterlimit="10" stroke-linecap="round"/>
<path d="M1926.7 2949C1926.7 2949 1947.2 2967.2 1898.2 2989.3" stroke="#A574D2" stroke-width="5" stroke-miterlimit="10" stroke-linecap="round"/>
<path d="M1939.6 2970.9C1939.6 2970.9 1960.1 2989.1 1911.1 3011.2" stroke="#A574D2" stroke-width="5" stroke-miterlimit="10" stroke-linecap="round"/>
<path d="M2307.1 2215.7C2242.1 2215.6 2175.5 2226.9 2111.3 2244.7C2106.2 2226.7 2099 2212.4 2093.4 2203.1C2170 2178.9 2235.5 2162.6 2279.7 2157.6C2289.6 2171.4 2300.8 2191.1 2307.1 2215.7Z" fill="#FFAFA7"/>
<path d="M1629.3 2844.3L1610 2869L1594.8 2888.4C1488.5 2886.3 1480 2815.4 1480 2815.4L1503.1 2782.3C1543.2 2814.5 1597.4 2834.5 1629.3 2844.3Z" fill="#FFAFA7"/>
<path d="M2113.5 2325.6C2107.7 2350.3 2095.3 2376.9 2072.5 2404.3C1978.9 2517 1655.7 2851.6 1655.7 2851.6C1655.7 2851.6 1529.5 2823.2 1475.6 2755.2L1693.2 2446.1L1773.5 2332C1828.9 2302.5 1899.3 2271.2 1977.1 2242.8C2017.7 2228 2056.8 2214.7 2093.4 2203.1C2098.9 2212.4 2106.2 2226.8 2111.3 2244.7C2117.7 2266.9 2120.8 2294.7 2113.5 2325.6Z" fill="white" stroke="#FFAFA7" stroke-width="5" stroke-miterlimit="10"/>
<path d="M1633.2 3151.2C1627.7 3165.5 1608.7 3168.1 1599.5 3155.8L1394.8 2882.7L1480.9 2815.4C1480.9 2815.4 1488.3 2886.3 1594.7 2888.4C1660.8 3028.1 1648.5 3111.5 1633.2 3151.2Z" fill="white" stroke="#A574D2" stroke-width="5" stroke-miterlimit="10"/>
<path d="M1621.3 3164C1604.2 3167.9 1586.3 3161.9 1574.9 3148.6L1465.9 3021C1463.2 3017.8 1463.5 3013.1 1466.5 3010.2C1469.5 3007.5 1469.8 3002.9 1467.4 2999.7L1458.6 2988.4C1456.2 2985.3 1451.8 2984.5 1448.4 2986.6L1445.8 2988.3C1442.6 2990.3 1438.5 2989.7 1436 2986.9L1377 2919.2C1369.4 2910.4 1371 2897 1380.4 2890.2L1393.7 2880.6L1599.4 3157.5C1605.3 3165.4 1615.3 3167.1 1623.1 3163.6L1621.3 3164Z" fill="#A574D2"/>
<path d="M1624.9 2925.6C1624.9 2925.6 1642.6 2946.5 1590.9 2961.4" stroke="#A574D2" stroke-width="5" stroke-miterlimit="10" stroke-linecap="round"/>
<path d="M1636.6 2949.1C1636.6 2949.1 1654.3 2970 1602.6 2984.9" stroke="#A574D2" stroke-width="5" stroke-miterlimit="10" stroke-linecap="round"/>
<path d="M1646.2 2972.6C1646.2 2972.6 1663.9 2993.5 1612.2 3008.4" stroke="#A574D2" stroke-width="5" stroke-miterlimit="10" stroke-linecap="round"/>
<path d="M2111.4 2244.7C2069.6 2256.3 2028.8 2270.6 1990.1 2286.1C1823 2353.4 1694.9 2444.8 1693.3 2445.9L1773.6 2331.8C1829 2302.3 1899.4 2271 1977.2 2242.6C1990.8 2237.7 2004.2 2232.9 2017.5 2228.2C2020.8 2227 2024.1 2225.9 2027.3 2224.8C2028.9 2224.2 2030.5 2223.7 2032.2 2223.1C2037.1 2221.4 2041.9 2219.8 2046.7 2218.2C2050.7 2216.9 2054.6 2215.6 2058.5 2214.2C2070.4 2210.2 2082.1 2206.5 2093.5 2202.9C2099 2212.5 2106.2 2226.8 2111.4 2244.7Z" fill="#FFAFA7"/>
<path d="M1498.2 2323.5C1498.2 2340.9 1454.7 2355.1 1401 2355.1C1347.3 2355.1 1303.8 2341 1303.8 2323.5C1303.8 2323.3 1303.8 2323 1303.8 2322.8C1305 2305.7 1348.1 2292 1401 2292C1453.9 2292 1497 2305.7 1498.2 2322.8C1498.2 2323 1498.2 2323.3 1498.2 2323.5Z" fill="white" stroke="#7CABFF" stroke-width="5" stroke-miterlimit="10" stroke-linecap="round"/>
<path d="M1459 2300V2382.1C1459 2408.7 1444.3 2433 1420.9 2445.5L1381 2466.7C1371.3 2471.9 1360.4 2474.6 1349.4 2474.6C1344.7 2474.6 1341.5 2470.7 1341.5 2466.6C1341.5 2464.9 1342.1 2463.1 1343.3 2461.6L1358.2 2443.6C1360.3 2441.1 1358.5 2437.4 1355.3 2437.4H1267.6L1251.6 2457.6C1243.1 2468.3 1230.1 2474.6 1216.5 2474.6H1211.9C1206.2 2474.6 1202.7 2468.5 1205.5 2463.6L1207.3 2460.3C1201.8 2462.6 1195.8 2463.9 1189.7 2463.9H1185.1C1179.4 2463.9 1175.9 2457.8 1178.7 2452.9L1214.6 2413.3L1239.5 2403.5V2403.6L1363.2 2355V2296.6C1374.9 2295.1 1387.6 2294.2 1401 2294.2C1422.7 2294.1 1442.7 2296.3 1459 2300Z" fill="#FFAFA7"/>
<path d="M1236.3 2407.7L1206.3 2459.2" stroke="#FFAFA7" stroke-width="4" stroke-miterlimit="10" stroke-linecap="round"/>
<path d="M1350.6 2452.6L1369 2430.1C1372.6 2425.7 1369.5 2419.2 1363.8 2419.2" stroke="#FFAFA7" stroke-width="4" stroke-miterlimit="10" stroke-linecap="round"/>
<path d="M1459 2300V2351.3C1442.7 2355 1422.7 2357.2 1401 2357.2C1387.6 2357.2 1374.9 2356.4 1363.2 2354.8V2296.4C1374.9 2294.9 1387.6 2294 1401 2294C1422.6 2294.1 1442.7 2296.3 1459 2300Z" fill="#FFAFA7"/>
<path d="M2170.7 835.5C2170.7 846.8 2126.5 855.7 2072 855.7C2017.5 855.7 1973.3 846.8 1973.3 835.5C1973.3 824.2 2017.5 814.9 2072 814.9C2126.5 814.9 2170.7 824.3 2170.7 835.5Z" stroke="#7CABFF" stroke-width="5" stroke-miterlimit="10" stroke-linecap="round"/>
<path d="M2041.9 852C2029.7 851.2 2018.6 850 2009 848.3V751.2C2009 748 2009.7 744.8 2011.1 741.9L2042.5 677.1C2048.3 665.1 2060.5 657.5 2073.8 657.5H2112.3L2028.1 812.4C2027.7 813.1 2027.4 813.8 2027.1 814.5C2022.2 826.6 2028.3 842.1 2041.9 852Z" fill="#FFAFA7"/>
<path d="M2114.3 812.7L2126.7 791.1V849.7C2116.5 851 2105 852.1 2092.7 852.6L2114.3 812.7Z" fill="#FFAFA7"/>
<path d="M2295.7 473.6L2090.7 850.8C2083.1 864.8 2062.3 868.1 2044.1 858.2C2025.9 848.3 2017.4 829 2025 815.1L2230 437.9L2295.7 473.6Z" fill="white" stroke="#A574D2" stroke-width="5" stroke-miterlimit="10"/>
<path d="M2295.63 473.738C2303.22 459.763 2294.67 440.439 2276.52 430.576C2258.37 420.713 2237.5 424.046 2229.91 438.021C2222.31 451.996 2230.87 471.32 2249.01 481.183C2267.16 491.046 2288.03 487.713 2295.63 473.738Z" fill="white" stroke="#A574D2" stroke-width="5" stroke-miterlimit="10"/>
<path d="M2170.1 612L2267 531.8L2265.5 561L2296.5 568.7L2222.5 614.4C2279.3 602.2 2381.3 585 2396.8 615C2402.9 626.8 2391.4 650.9 2383.7 668.2C2378.9 704.7 2570.3 659.5 2572.5 659L2543 686.3L2572.5 703.1C2572.5 703.1 2411.9 733.7 2370.5 725.3C2347.1 720.5 2365.7 689.1 2382 666.1C2387 648.4 2347.2 642.6 2181.7 660.6L2170.1 612Z" fill="#A574D2"/>
<path d="M2171.5 660.2C2187.29 660.2 2200.1 647.395 2200.1 631.6C2200.1 615.805 2187.29 603 2171.5 603C2155.7 603 2142.9 615.805 2142.9 631.6C2142.9 647.395 2155.7 660.2 2171.5 660.2Z" fill="white" stroke="#A574D2" stroke-width="5" stroke-miterlimit="10"/>
<path d="M2193.9 727.4L2184.7 749L2173.9 774.2L2168.1 787.9L2159.2 808.8C2159 809.4 2158.7 809.9 2158.4 810.5C2158.4 810.5 2158.4 810.6 2158.3 810.6C2155.4 815.5 2149.9 818.6 2143.9 818.6H2073.3C2064.8 818.6 2058.9 810.5 2062.1 803L2067.2 791L2078.5 764.5L2088.2 741.7L2096.7 721.6C2099.2 715.7 2105.3 711.9 2112 711.9H2182.6C2191.3 711.8 2197.1 719.9 2193.9 727.4Z" fill="#FFAFA7"/>
<path d="M2090.7 741.6C2093.6 738.3 2097.9 736.4 2102.5 736.4H2169.9C2177 736.4 2182.1 742.5 2181.4 749" stroke="#FFAFA7" stroke-width="4" stroke-miterlimit="10" stroke-linecap="round"/>
<path d="M2081.5 764.5C2084.4 761.6 2088.4 759.9 2092.7 759.9H2160.1C2167.8 759.9 2173.2 767.1 2171.2 774.2" stroke="#FFAFA7" stroke-width="4" stroke-miterlimit="10" stroke-linecap="round"/>
<path d="M2070.9 790.9C2073.8 788.2 2077.7 786.6 2081.8 786.6H2149.2C2157.2 786.6 2162.7 794.3 2160.1 801.6" stroke="#FFAFA7" stroke-width="4" stroke-miterlimit="10" stroke-linecap="round"/>
<path d="M2151 657.4V659.2C2151 677.5 2136.2 692.4 2117.8 692.4H2083V657.4H2151Z" fill="#FFAFA7"/>
<path d="M1305.9 1439.7C1302.7 1444.5 1299.4 1449 1296.1 1453.1C1292.5 1452.2 1289 1450.7 1285.8 1448.5C1282.6 1446.3 1279.9 1443.7 1277.7 1440.6C1280.3 1436.1 1283.2 1431.3 1286.5 1426.5C1302.7 1402.5 1320.1 1386 1325.5 1389.6C1330.9 1393.2 1322.1 1415.7 1305.9 1439.7Z" fill="#FBC580"/>
<path d="M1453.3 1079.4L1328.4 1263.8C1326.9 1266 1329 1268.7 1331.5 1268L1391.2 1248.8C1383.9 1257.5 1379.4 1268.8 1379.4 1281V1339.1C1379.4 1361.8 1361.3 1380.3 1338.7 1380.9C1337.3 1378.3 1334.5 1376.5 1331.2 1376.5C1328.9 1376.5 1326.8 1377.4 1325.2 1379C1323.6 1380.6 1322.7 1382.7 1322.8 1385C1322.8 1389.6 1326.6 1393.4 1331.3 1393.4C1335.5 1393.4 1339 1390.2 1339.6 1386.2C1364.6 1385.1 1384.7 1364.4 1384.7 1339.1V1281C1384.7 1266.4 1391.9 1253.1 1402.7 1245.1L1522.8 1206.5L1677 1079.4H1453.3ZM1333.5 1387C1332.9 1387.6 1332.1 1387.9 1331.3 1387.9C1330.5 1387.9 1329.7 1387.6 1329.1 1387C1328.5 1386.4 1328.2 1385.6 1328.2 1384.8C1328.2 1384 1328.5 1383.2 1329.1 1382.6C1329.7 1382 1330.5 1381.7 1331.3 1381.7C1332.2 1381.7 1332.9 1382 1333.5 1382.6C1334.1 1383.2 1334.4 1383.9 1334.4 1384.8C1334.5 1385.7 1334.1 1386.4 1333.5 1387Z" fill="#7CABFF"/>
<path d="M1317.5 1263.4C1317 1263.4 1316.5 1263.3 1316 1262.9C1314.8 1262.1 1314.5 1260.4 1315.3 1259.2L1445.5 1067H1681.3C1682.8 1067 1684 1068.2 1684 1069.7C1684 1071.2 1682.8 1072.4 1681.3 1072.4H1448.3L1319.7 1262.2C1319.2 1263 1318.4 1263.4 1317.5 1263.4Z" fill="#7CABFF"/>
<path d="M1449.1 1232.4L1434.1 1225.6L1434.9 1223.3C1435.2 1222.4 1442.5 1201.2 1460.5 1178.7C1477.2 1157.8 1506.5 1132.1 1551.6 1127.7L1554.2 1127.5L1556.8 1146.4L1551.5 1147.1L1549.6 1133.3C1507.8 1138.1 1480.4 1162.3 1464.7 1182C1450.6 1199.6 1443.2 1216.8 1440.9 1222.8L1451.4 1227.6L1449.1 1232.4Z" fill="white"/>
<path d="M1525.1 1378.2L1494.8 1279.2L1565.7 1244.5L1594.9 1266.7L1645.1 1304.8L1660.3 1456.2L1525.1 1378.2Z" fill="#FFAFA7"/>
<path d="M1594.9 1266.7L1540.8 1387.3L1525.1 1378.2L1494.8 1279.2L1565.7 1244.5L1594.9 1266.7Z" fill="#FFAFA7"/>
<path d="M1534.8 1285.7C1529.7 1286.2 1519.4 1281 1507.7 1273.6L1494 1284.7C1486.1 1291.1 1474.5 1290 1468.1 1282.1C1465.3 1278.7 1463.9 1274.5 1463.9 1270.4C1463.9 1265.1 1466.2 1259.8 1470.7 1256.1L1476.3 1251.5C1461.6 1240.5 1450.1 1231 1450.1 1231C1450.1 1231 1475.6 1154.4 1557.1 1146.6C1557.1 1146.6 1600.3 1235.9 1603.2 1244.4C1606.1 1253 1563.6 1282.8 1534.8 1285.7Z" fill="#FFAFA7"/>
<path d="M1476.3 1251.5C1461.6 1240.5 1450.1 1231 1450.1 1231C1450.1 1231 1459.5 1202.7 1485.3 1178.7C1458.3 1205.6 1498.6 1235.6 1476.3 1251.5Z" fill="#FBC580"/>
<path d="M1490.5 1199.9C1490.5 1199.9 1494.8 1188.3 1505.7 1182.3" stroke="#FFAFA7" stroke-width="4" stroke-miterlimit="10" stroke-linecap="round"/>
<path d="M1568.5 1170.5C1568.5 1170.5 1553.4 1168.4 1545.9 1173C1538.4 1177.6 1538.4 1201.4 1550.4 1216.3" stroke="#FFAFA7" stroke-width="4" stroke-miterlimit="10" stroke-linecap="round"/>
<path d="M1557.6 1231.2C1557.6 1231.2 1548.3 1239.5 1532.5 1233.4" stroke="#FFAFA7" stroke-width="4" stroke-miterlimit="10" stroke-linecap="round"/>
<path d="M1534 1229C1534 1229 1530.7 1233.7 1530.9 1239" stroke="#FFAFA7" stroke-width="4" stroke-miterlimit="10" stroke-linecap="round"/>
<path d="M1514.44 1214.87C1516.04 1214.44 1516.65 1211.54 1515.81 1208.39C1514.96 1205.24 1512.98 1203.04 1511.38 1203.47C1509.78 1203.9 1509.17 1206.8 1510.01 1209.94C1510.86 1213.09 1512.84 1215.29 1514.44 1214.87Z" fill="#FFAFA7"/>
<path d="M1559.15 1195.29C1560.59 1194.91 1561.12 1192.22 1560.33 1189.28C1559.54 1186.35 1557.74 1184.28 1556.3 1184.67C1554.85 1185.06 1554.33 1187.75 1555.11 1190.68C1555.9 1193.62 1557.71 1195.68 1559.15 1195.29Z" fill="#FFAFA7"/>
<path d="M1512.9 1279.6L1489.8 1261.6C1487.2 1259.6 1483.6 1259.8 1481.2 1262L1479.8 1263.3C1477.1 1265.9 1477.1 1270.1 1479.8 1272.7" stroke="#FFAFA7" stroke-width="4" stroke-miterlimit="10" stroke-linecap="round"/>
</svg>
